  0
SECTION
  2
HEADER
  9
$ACADVER
  1
AC1024
  9
$ACADMAINTVER
 70
6
  9
$DWGCODEPAGE
  3
ANSI_1252
  9
$LASTSAVEDBY
  1
ezdxf
  9
$INSBASE
 10
0.0
 20
0.0
 30
0.0
  9
$EXTMIN
 10
1e+20
 20
1e+20
 30
1e+20
  9
$EXTMAX
 10
-1e+20
 20
-1e+20
 30
-1e+20
  9
$LIMMIN
 10
0.0
 20
0.0
  9
$LIMMAX
 10
420.0
 20
297.0
  9
$ORTHOMODE
 70
0
  9
$REGENMODE
 70
1
  9
$FILLMODE
 70
1
  9
$QTEXTMODE
 70
0
  9
$MIRRTEXT
 70
1
  9
$LTSCALE
 40
1.0
  9
$ATTMODE
 70
1
  9
$TEXTSIZE
 40
2.5
  9
$TRACEWID
 40
1.0
  9
$TEXTSTYLE
  7
Standard
  9
$CLAYER
  8
0
  9
$CELTYPE
  6
ByLayer
  9
$CECOLOR
 62
256
  9
$CELTSCALE
 40
1.0
  9
$DISPSILH
 70
0
  9
$DIMSCALE
 40
1.0
  9
$DIMASZ
 40
2.5
  9
$DIMEXO
 40
0.625
  9
$DIMDLI
 40
3.75
  9
$DIMRND
 40
0.0
  9
$DIMDLE
 40
0.0
  9
$DIMEXE
 40
1.25
  9
$DIMTP
 40
0.0
  9
$DIMTM
 40
0.0
  9
$DIMTXT
 40
2.5
  9
$DIMCEN
 40
2.5
  9
$DIMTSZ
 40
0.0
  9
$DIMTOL
 70
0
  9
$DIMLIM
 70
0
  9
$DIMTIH
 70
0
  9
$DIMTOH
 70
0
  9
$DIMSE1
 70
0
  9
$DIMSE2
 70
0
  9
$DIMTAD
 70
1
  9
$DIMZIN
 70
8
  9
$DIMBLK
  1

  9
$DIMASO
 70
1
  9
$DIMSHO
 70
1
  9
$DIMPOST
  1

  9
$DIMAPOST
  1

  9
$DIMALT
 70
0
  9
$DIMALTD
 70
3
  9
$DIMALTF
 40
0.03937007874
  9
$DIMLFAC
 40
1.0
  9
$DIMTOFL
 70
1
  9
$DIMTVP
 40
0.0
  9
$DIMTIX
 70
0
  9
$DIMSOXD
 70
0
  9
$DIMSAH
 70
0
  9
$DIMBLK1
  1

  9
$DIMBLK2
  1

  9
$DIMSTYLE
  2
ISO-25
  9
$DIMCLRD
 70
0
  9
$DIMCLRE
 70
0
  9
$DIMCLRT
 70
0
  9
$DIMTFAC
 40
1.0
  9
$DIMGAP
 40
0.625
  9
$DIMJUST
 70
0
  9
$DIMSD1
 70
0
  9
$DIMSD2
 70
0
  9
$DIMTOLJ
 70
0
  9
$DIMTZIN
 70
8
  9
$DIMALTZ
 70
0
  9
$DIMALTTZ
 70
0
  9
$DIMUPT
 70
0
  9
$DIMDEC
 70
2
  9
$DIMTDEC
 70
2
  9
$DIMALTU
 70
2
  9
$DIMALTTD
 70
3
  9
$DIMTXSTY
  7
Standard
  9
$DIMAUNIT
 70
0
  9
$DIMADEC
 70
0
  9
$DIMALTRND
 40
0.0
  9
$DIMAZIN
 70
0
  9
$DIMDSEP
 70
44
  9
$DIMATFIT
 70
3
  9
$DIMFRAC
 70
0
  9
$DIMLDRBLK
  1

  9
$DIMLUNIT
 70
2
  9
$DIMLWD
 70
-2
  9
$DIMLWE
 70
-2
  9
$DIMTMOVE
 70
0
  9
$DIMFXL
 40
1.0
  9
$DIMFXLON
 70
0
  9
$DIMJOGANG
 40
0.785398163397
  9
$DIMTFILL
 70
0
  9
$DIMTFILLCLR
 70
0
  9
$DIMARCSYM
 70
0
  9
$DIMLTYPE
  6

  9
$DIMLTEX1
  6

  9
$DIMLTEX2
  6

  9
$DIMTXTDIRECTION
 70
0
  9
$LUNITS
 70
2
  9
$LUPREC
 70
4
  9
$SKETCHINC
 40
1.0
  9
$FILLETRAD
 40
10.0
  9
$AUNITS
 70
0
  9
$AUPREC
 70
2
  9
$MENU
  1
.
  9
$ELEVATION
 40
0.0
  9
$PELEVATION
 40
0.0
  9
$THICKNESS
 40
0.0
  9
$LIMCHECK
 70
0
  9
$CHAMFERA
 40
0.0
  9
$CHAMFERB
 40
0.0
  9
$CHAMFERC
 40
0.0
  9
$CHAMFERD
 40
0.0
  9
$SKPOLY
 70
0
  9
$TDCREATE
 40
2461324.839976852
  9
$TDUCREATE
 40
2458532.153996898
  9
$TDUPDATE
 40
2461324.839976852
  9
$TDUUPDATE
 40
2458532.1544311
  9
$TDINDWG
 40
0.0
  9
$TDUSRTIMER
 40
0.0
  9
$USRTIMER
 70
1
  9
$ANGBASE
 50
0.0
  9
$ANGDIR
 70
0
  9
$PDMODE
 70
0
  9
$PDSIZE
 40
0.0
  9
$PLINEWID
 40
0.0
  9
$SPLFRAME
 70
0
  9
$SPLINETYPE
 70
6
  9
$SPLINESEGS
 70
8
  9
$HANDSEED
  5
1A5
  9
$SURFTAB1
 70
6
  9
$SURFTAB2
 70
6
  9
$SURFTYPE
 70
6
  9
$SURFU
 70
6
  9
$SURFV
 70
6
  9
$UCSBASE
  2

  9
$UCSNAME
  2

  9
$UCSORG
 10
0.0
 20
0.0
 30
0.0
  9
$UCSXDIR
 10
1.0
 20
0.0
 30
0.0
  9
$UCSYDIR
 10
0.0
 20
1.0
 30
0.0
  9
$UCSORTHOREF
  2

  9
$UCSORTHOVIEW
 70
0
  9
$UCSORGTOP
 10
0.0
 20
0.0
 30
0.0
  9
$UCSORGBOTTOM
 10
0.0
 20
0.0
 30
0.0
  9
$UCSORGLEFT
 10
0.0
 20
0.0
 30
0.0
  9
$UCSORGRIGHT
 10
0.0
 20
0.0
 30
0.0
  9
$UCSORGFRONT
 10
0.0
 20
0.0
 30
0.0
  9
$UCSORGBACK
 10
0.0
 20
0.0
 30
0.0
  9
$PUCSBASE
  2

  9
$PUCSNAME
  2

  9
$PUCSORG
 10
0.0
 20
0.0
 30
0.0
  9
$PUCSXDIR
 10
1.0
 20
0.0
 30
0.0
  9
$PUCSYDIR
 10
0.0
 20
1.0
 30
0.0
  9
$PUCSORTHOREF
  2

  9
$PUCSORTHOVIEW
 70
0
  9
$PUCSORGTOP
 10
0.0
 20
0.0
 30
0.0
  9
$PUCSORGBOTTOM
 10
0.0
 20
0.0
 30
0.0
  9
$PUCSORGLEFT
 10
0.0
 20
0.0
 30
0.0
  9
$PUCSORGRIGHT
 10
0.0
 20
0.0
 30
0.0
  9
$PUCSORGFRONT
 10
0.0
 20
0.0
 30
0.0
  9
$PUCSORGBACK
 10
0.0
 20
0.0
 30
0.0
  9
$USERI1
 70
0
  9
$USERI2
 70
0
  9
$USERI3
 70
0
  9
$USERI4
 70
0
  9
$USERI5
 70
0
  9
$USERR1
 40
0.0
  9
$USERR2
 40
0.0
  9
$USERR3
 40
0.0
  9
$USERR4
 40
0.0
  9
$USERR5
 40
0.0
  9
$WORLDVIEW
 70
1
  9
$SHADEDGE
 70
3
  9
$SHADEDIF
 70
70
  9
$TILEMODE
 70
1
  9
$MAXACTVP
 70
64
  9
$PINSBASE
 10
0.0
 20
0.0
 30
0.0
  9
$PLIMCHECK
 70
0
  9
$PEXTMIN
 10
1e+20
 20
1e+20
 30
1e+20
  9
$PEXTMAX
 10
-1e+20
 20
-1e+20
 30
-1e+20
  9
$PLIMMIN
 10
0.0
 20
0.0
  9
$PLIMMAX
 10
420.0
 20
297.0
  9
$UNITMODE
 70
0
  9
$VISRETAIN
 70
1
  9
$PLINEGEN
 70
0
  9
$PSLTSCALE
 70
1
  9
$TREEDEPTH
 70
3020
  9
$CMLSTYLE
  2
Standard
  9
$CMLJUST
 70
0
  9
$CMLSCALE
 40
20.0
  9
$PROXYGRAPHICS
 70
1
  9
$MEASUREMENT
 70
1
  9
$CELWEIGHT
370
-1
  9
$ENDCAPS
280
0
  9
$JOINSTYLE
280
0
  9
$LWDISPLAY
290
0
  9
$INSUNITS
 70
4
  9
$HYPERLINKBASE
  1

  9
$STYLESHEET
  1

  9
$XEDIT
290
1
  9
$CEPSNTYPE
380
0
  9
$PSTYLEMODE
290
1
  9
$FINGERPRINTGUID
  2
{446D805F-D6F8-447E-A71B-5E41D5988681}
  9
$VERSIONGUID
  2
{0C09A01A-E490-4828-AF34-F5699D3DDEF6}
  9
$EXTNAMES
290
1
  9
$PSVPSCALE
 40
0.0
  9
$OLESTARTUP
290
0
  9
$SORTENTS
280
127
  9
$INDEXCTL
280
0
  9
$HIDETEXT
280
1
  9
$XCLIPFRAME
280
1
  9
$HALOGAP
280
0
  9
$OBSCOLOR
 70
257
  9
$OBSLTYPE
280
0
  9
$INTERSECTIONDISPLAY
280
0
  9
$INTERSECTIONCOLOR
 70
257
  9
$DIMASSOC
280
2
  9
$PROJECTNAME
  1

  9
$CAMERADISPLAY
290
0
  9
$LENSLENGTH
 40
50.0
  9
$CAMERAHEIGHT
 40
0.0
  9
$STEPSPERSEC
 40
24.0
  9
$STEPSIZE
 40
100.0
  9
$3DDWFPREC
 40
2.0
  9
$PSOLWIDTH
 40
0.005
  9
$PSOLHEIGHT
 40
0.08
  9
$LOFTANG1
 40
1.570796326795
  9
$LOFTANG2
 40
1.570796326795
  9
$LOFTMAG1
 40
0.0
  9
$LOFTMAG2
 40
0.0
  9
$LOFTPARAM
 70
7
  9
$LOFTNORMALS
280
1
  9
$LATITUDE
 40
37.795
  9
$LONGITUDE
 40
-122.394
  9
$NORTHDIRECTION
 40
0.0
  9
$TIMEZONE
 70
-8000
  9
$LIGHTGLYPHDISPLAY
280
1
  9
$TILEMODELIGHTSYNCH
280
1
  9
$CMATERIAL
347
20
  9
$SOLIDHIST
280
0
  9
$SHOWHIST
280
1
  9
$DWFFRAME
280
2
  9
$DGNFRAME
280
2
  9
$REALWORLDSCALE
290
1
  9
$INTERFERECOLOR
 62
256
  9
$CSHADOW
280
0
  9
$SHADOWPLANELOCATION
 40
0.0
  0
ENDSEC
  0
SECTION
  2
CLASSES
  0
CLASS
  1
ACDBDICTIONARYWDFLT
  2
AcDbDictionaryWithDefault
  3
ObjectDBX Classes
 90
0
 91
0
280
0
281
0
  0
CLASS
  1
SUN
  2
AcDbSun
  3
SCENEOE
 90
1153
 91
0
280
0
281
0
  0
CLASS
  1
VISUALSTYLE
  2
AcDbVisualStyle
  3
ObjectDBX Classes
 90
4095
 91
0
280
0
281
0
  0
CLASS
  1
MATERIAL
  2
AcDbMaterial
  3
ObjectDBX Classes
 90
1153
 91
0
280
0
281
0
  0
CLASS
  1
SCALE
  2
AcDbScale
  3
ObjectDBX Classes
 90
1153
 91
0
280
0
281
0
  0
CLASS
  1
TABLESTYLE
  2
AcDbTableStyle
  3
ObjectDBX Classes
 90
4095
 91
0
280
0
281
0
  0
CLASS
  1
MLEADERSTYLE
  2
AcDbMLeaderStyle
  3
ACDB_MLEADERSTYLE_CLASS
 90
4095
 91
0
280
0
281
0
  0
CLASS
  1
DICTIONARYVAR
  2
AcDbDictionaryVar
  3
ObjectDBX Classes
 90
0
 91
0
280
0
281
0
  0
CLASS
  1
CELLSTYLEMAP
  2
AcDbCellStyleMap
  3
ObjectDBX Classes
 90
1152
 91
0
280
0
281
0
  0
CLASS
  1
MENTALRAYRENDERSETTINGS
  2
AcDbMentalRayRenderSettings
  3
SCENEOE
 90
1024
 91
0
280
0
281
0
  0
CLASS
  1
ACDBDETAILVIEWSTYLE
  2
AcDbDetailViewStyle
  3
ObjectDBX Classes
 90
1025
 91
0
280
0
281
0
  0
CLASS
  1
ACDBSECTIONVIEWSTYLE
  2
AcDbSectionViewStyle
  3
ObjectDBX Classes
 90
1025
 91
0
280
0
281
0
  0
CLASS
  1
RASTERVARIABLES
  2
AcDbRasterVariables
  3
ISM
 90
0
 91
0
280
0
281
0
  0
CLASS
  1
LAYOUT
  2
AcDbLayout
  3
ObjectDBX Classes
 90
0
 91
0
280
0
281
0
  0
CLASS
  1
ACDBPLACEHOLDER
  2
AcDbPlaceHolder
  3
ObjectDBX Classes
 90
0
 91
0
280
0
281
0
  0
ENDSEC
  0
SECTION
  2
TABLES
  0
TABLE
  2
VPORT
  5
8
330
0
100
AcDbSymbolTable
 70
1
  0
VPORT
  5
23
330
8
100
AcDbSymbolTableRecord
100
AcDbViewportTableRecord
  2
*Active
 70
0
 10
0.0
 20
0.0
 11
1.0
 21
1.0
 12
0.0
 22
0.0
 13
0.0
 23
0.0
 14
0.5
 24
0.5
 15
0.5
 25
0.5
 16
0.0
 26
0.0
 36
1.0
 17
0.0
 27
0.0
 37
0.0
 40
1000.0
 41
1.34
 42
50.0
 43
0.0
 44
0.0
 50
0.0
 51
0.0
 71
0
 72
1000
 73
1
 74
3
 75
0
 76
0
 77
0
 78
0
281
0
 65
0
146
0.0
  0
ENDTAB
  0
TABLE
  2
LTYPE
  5
2
330
0
100
AcDbSymbolTable
 70
3
  0
LTYPE
  5
24
330
2
100
AcDbSymbolTableRecord
100
AcDbLinetypeTableRecord
  2
ByBlock
 70
0
  3

 72
65
 73
0
 40
0.0
  0
LTYPE
  5
25
330
2
100
AcDbSymbolTableRecord
100
AcDbLinetypeTableRecord
  2
ByLayer
 70
0
  3

 72
65
 73
0
 40
0.0
  0
LTYPE
  5
26
330
2
100
AcDbSymbolTableRecord
100
AcDbLinetypeTableRecord
  2
Continuous
 70
0
  3

 72
65
 73
0
 40
0.0
  0
ENDTAB
  0
TABLE
  2
LAYER
  5
1
330
0
100
AcDbSymbolTable
 70
10
  0
LAYER
  5
27
330
1
100
AcDbSymbolTableRecord
100
AcDbLayerTableRecord
  2
0
 70
0
 62
7
  6
Continuous
370
-3
390
13
347
21
  0
LAYER
  5
28
330
1
100
AcDbSymbolTableRecord
100
AcDbLayerTableRecord
  2
Defpoints
 70
0
 62
7
  6
Continuous
290
0
370
-3
390
13
347
21
  0
LAYER
  5
2F
330
1
100
AcDbSymbolTableRecord
100
AcDbLayerTableRecord
  2
OUTSIDE_THROUGH
 70
0
 62
7
  6
Continuous
370
-3
390
13
347
21
  0
LAYER
  5
31
330
1
100
AcDbSymbolTableRecord
100
AcDbLayerTableRecord
  2
INSIDE_THROUGH
 70
0
 62
7
  6
Continuous
370
-3
390
13
347
21
  0
LAYER
  5
32
330
1
100
AcDbSymbolTableRecord
100
AcDbLayerTableRecord
  2
EDGE_BANDING
 70
0
 62
7
  6
Continuous
370
-3
390
13
347
21
  0
LAYER
  5
33
330
1
100
AcDbSymbolTableRecord
100
AcDbLayerTableRecord
  2
GRAIN_DIRECTION
 70
0
 62
3
  6
Continuous
370
-3
390
13
347
21
  0
LAYER
  5
70
330
1
100
AcDbSymbolTableRecord
100
AcDbLayerTableRecord
  2
A_SIDE_GROOVE_5.5
 70
0
 62
7
  6
Continuous
370
-3
390
13
347
21
  0
LAYER
  5
123
330
1
100
AcDbSymbolTableRecord
100
AcDbLayerTableRecord
  2
B_SIDE_GROOVE_5.5
 70
0
 62
7
  6
Continuous
370
-3
390
13
347
21
  0
LAYER
  5
184
330
1
100
AcDbSymbolTableRecord
100
AcDbLayerTableRecord
  2
SHEET_BOUNDARY
 70
0
 62
8
  6
Continuous
290
0
370
-3
390
13
347
21
  0
LAYER
  5
185
330
1
100
AcDbSymbolTableRecord
100
AcDbLayerTableRecord
  2
PART_LABELS
 70
0
 62
3
  6
Continuous
290
0
370
-3
390
13
347
21
  0
ENDTAB
  0
TABLE
  2
STYLE
  5
5
330
0
100
AcDbSymbolTable
 70
1
  0
STYLE
  5
29
330
5
100
AcDbSymbolTableRecord
100
AcDbTextStyleTableRecord
  2
Standard
 70
0
 40
0.0
 41
1.0
 50
0.0
 71
0
 42
2.5
  3
txt
  4

  0
ENDTAB
  0
TABLE
  2
VIEW
  5
7
330
0
100
AcDbSymbolTable
 70
0
  0
ENDTAB
  0
TABLE
  2
UCS
  5
6
330
0
100
AcDbSymbolTable
 70
0
  0
ENDTAB
  0
TABLE
  2
APPID
  5
3
330
0
100
AcDbSymbolTable
 70
3
  0
APPID
  5
2A
330
3
100
AcDbSymbolTableRecord
100
AcDbRegAppTableRecord
  2
ACAD
 70
0
  0
APPID
  5
1A2
330
3
100
AcDbSymbolTableRecord
100
AcDbRegAppTableRecord
  2
HATCHBACKGROUNDCOLOR
 70
0
  0
APPID
  5
1A3
330
3
100
AcDbSymbolTableRecord
100
AcDbRegAppTableRecord
  2
EZDXF
 70
0
  0
ENDTAB
  0
TABLE
  2
DIMSTYLE
  5
4
330
0
100
AcDbSymbolTable
 70
1
100
AcDbDimStyleTable
  0
DIMSTYLE
105
2B
330
4
100
AcDbSymbolTableRecord
100
AcDbDimStyleTableRecord
  2
Standard
 70
0
 40
1.0
 41
2.5
 42
0.625
 43
3.75
 44
1.25
 45
0.0
 46
0.0
 47
0.0
 48
0.0
 49
2.5
140
2.5
141
2.5
142
0.0
143
0.03937007874
144
1.0
145
0.0
146
1.0
147
0.625
148
0.0
 69
0
 70
0
 71
0
 72
0
 73
0
 74
0
 75
0
 76
0
 77
1
 78
8
 79
3
170
0
171
3
172
1
173
0
174
0
175
0
176
0
177
0
178
0
179
2
271
2
272
2
273
2
274
3
275
0
276
0
277
2
278
44
279
0
280
0
281
0
282
0
283
0
284
8
285
0
286
0
288
0
289
3
290
0
371
-2
372
-2
  0
ENDTAB
  0
TABLE
  2
BLOCK_RECORD
  5
9
330
0
100
AcDbSymbolTable
 70
2
  0
BLOCK_RECORD
  5
17
330
9
100
AcDbSymbolTableRecord
100
AcDbBlockTableRecord
  2
*Model_Space
340
1A
 70
0
280
1
281
0
  0
BLOCK_RECORD
  5
1B
330
9
100
AcDbSymbolTableRecord
100
AcDbBlockTableRecord
  2
*Paper_Space
340
1E
 70
0
280
1
281
0
  0
ENDTAB
  0
ENDSEC
  0
SECTION
  2
BLOCKS
  0
BLOCK
  5
18
330
17
100
AcDbEntity
  8
0
100
AcDbBlockBegin
  2
*Model_Space
 70
0
 10
0.0
 20
0.0
 30
0.0
  3
*Model_Space
  1

  0
ENDBLK
  5
19
330
17
100
AcDbEntity
  8
0
100
AcDbBlockEnd
  0
BLOCK
  5
1C
330
1B
100
AcDbEntity
  8
0
100
AcDbBlockBegin
  2
*Paper_Space
 70
0
 10
0.0
 20
0.0
 30
0.0
  3
*Paper_Space
  1

  0
ENDBLK
  5
1D
330
1B
100
AcDbEntity
  8
0
100
AcDbBlockEnd
  0
ENDSEC
  0
SECTION
  2
ENTITIES
  0
LWPOLYLINE
  5
34
330
17
100
AcDbEntity
  8
OUTSIDE_THROUGH
100
AcDbPolyline
 90
4
 70
1
 10
0.0
 20
0.0
 10
1183.0
 20
0.0
 10
1183.0
 20
547.0
 10
0.0
 20
547.0
  0
CIRCLE
  5
35
330
17
100
AcDbEntity
  8
INSIDE_THROUGH
100
AcDbCircle
 10
5.0
 20
62.56000000000003
 30
0.0
 40
1.6
  0
CIRCLE
  5
36
330
17
100
AcDbEntity
  8
INSIDE_THROUGH
100
AcDbCircle
 10
5.0
 20
209.36
 30
0.0
 40
1.6
  0
CIRCLE
  5
37
330
17
100
AcDbEntity
  8
INSIDE_THROUGH
100
AcDbCircle
 10
5.0
 20
356.15999999999997
 30
0.0
 40
1.6
  0
CIRCLE
  5
38
330
17
100
AcDbEntity
  8
INSIDE_THROUGH
100
AcDbCircle
 10
5.0
 20
502.9599999999999
 30
0.0
 40
1.6
  0
CIRCLE
  5
39
330
17
100
AcDbEntity
  8
INSIDE_THROUGH
100
AcDbCircle
 10
1178.0
 20
62.56000000000003
 30
0.0
 40
1.6
  0
CIRCLE
  5
3A
330
17
100
AcDbEntity
  8
INSIDE_THROUGH
100
AcDbCircle
 10
1178.0
 20
209.36
 30
0.0
 40
1.6
  0
CIRCLE
  5
3B
330
17
100
AcDbEntity
  8
INSIDE_THROUGH
100
AcDbCircle
 10
1178.0
 20
356.15999999999997
 30
0.0
 40
1.6
  0
CIRCLE
  5
3C
330
17
100
AcDbEntity
  8
INSIDE_THROUGH
100
AcDbCircle
 10
1178.0
 20
502.9599999999999
 30
0.0
 40
1.6
  0
CIRCLE
  5
3D
330
17
100
AcDbEntity
  8
INSIDE_THROUGH
100
AcDbCircle
 10
59.150000000000006
 20
6.5
 30
0.0
 40
1.6
  0
CIRCLE
  5
3E
330
17
100
AcDbEntity
  8
INSIDE_THROUGH
100
AcDbCircle
 10
236.60000000000002
 20
6.5
 30
0.0
 40
1.6
  0
CIRCLE
  5
3F
330
17
100
AcDbEntity
  8
INSIDE_THROUGH
100
AcDbCircle
 10
414.04999999999995
 20
6.5
 30
0.0
 40
1.6
  0
CIRCLE
  5
40
330
17
100
AcDbEntity
  8
INSIDE_THROUGH
100
AcDbCircle
 10
591.5
 20
6.5
 30
0.0
 40
1.6
  0
CIRCLE
  5
41
330
17
100
AcDbEntity
  8
INSIDE_THROUGH
100
AcDbCircle
 10
768.95
 20
6.5
 30
0.0
 40
1.6
  0
CIRCLE
  5
42
330
17
100
AcDbEntity
  8
INSIDE_THROUGH
100
AcDbCircle
 10
946.4000000000001
 20
6.5
 30
0.0
 40
1.6
  0
CIRCLE
  5
43
330
17
100
AcDbEntity
  8
INSIDE_THROUGH
100
AcDbCircle
 10
1123.85
 20
6.5
 30
0.0
 40
1.6
  0
LINE
  5
44
330
17
100
AcDbEntity
  8
EDGE_BANDING
100
AcDbLine
 10
0.0
 20
0.0
 30
0.0
 11
1183.0
 21
0.0
 31
0.0
  0
LINE
  5
45
330
17
100
AcDbEntity
  8
EDGE_BANDING
100
AcDbLine
 10
0.0
 20
547.0
 30
0.0
 11
1183.0
 21
547.0
 31
0.0
  0
LINE
  5
46
330
17
100
AcDbEntity
  8
GRAIN_DIRECTION
100
AcDbLine
 10
354.9
 20
273.5
 30
0.0
 11
828.0999999999999
 21
273.5
 31
0.0
  0
LINE
  5
47
330
17
100
AcDbEntity
  8
GRAIN_DIRECTION
100
AcDbLine
 10
813.0999999999999
 20
266.0
 30
0.0
 11
828.0999999999999
 21
273.5
 31
0.0
  0
LINE
  5
48
330
17
100
AcDbEntity
  8
GRAIN_DIRECTION
100
AcDbLine
 10
813.0999999999999
 20
281.0
 30
0.0
 11
828.0999999999999
 21
273.5
 31
0.0
  0
LWPOLYLINE
  5
4E
330
17
100
AcDbEntity
  8
OUTSIDE_THROUGH
100
AcDbPolyline
 90
4
 70
1
 10
1187.0
 20
0.0
 10
2370.0
 20
0.0
 10
2370.0
 20
287.0
 10
1187.0
 20
287.0
  0
CIRCLE
  5
4F
330
17
100
AcDbEntity
  8
INSIDE_THROUGH
100
AcDbCircle
 10
1192.0
 20
52.8
 30
0.0
 40
1.6
  0
CIRCLE
  5
50
330
17
100
AcDbEntity
  8
INSIDE_THROUGH
100
AcDbCircle
 10
1192.0
 20
151.5
 30
0.0
 40
1.6
  0
CIRCLE
  5
51
330
17
100
AcDbEntity
  8
INSIDE_THROUGH
100
AcDbCircle
 10
1192.0
 20
250.2
 30
0.0
 40
1.6
  0
CIRCLE
  5
52
330
17
100
AcDbEntity
  8
INSIDE_THROUGH
100
AcDbCircle
 10
2365.0
 20
250.2
 30
0.0
 40
1.6
  0
CIRCLE
  5
53
330
17
100
AcDbEntity
  8
INSIDE_THROUGH
100
AcDbCircle
 10
2365.0
 20
151.5
 30
0.0
 40
1.6
  0
CIRCLE
  5
54
330
17
100
AcDbEntity
  8
INSIDE_THROUGH
100
AcDbCircle
 10
2365.0
 20
19.899999999999977
 30
0.0
 40
1.6
  0
LINE
  5
55
330
17
100
AcDbEntity
  8
EDGE_BANDING
100
AcDbLine
 10
1187.0
 20
287.0
 30
0.0
 11
2370.0
 21
287.0
 31
0.0
  0
LINE
  5
56
330
17
100
AcDbEntity
  8
GRAIN_DIRECTION
100
AcDbLine
 10
1541.9
 20
143.5
 30
0.0
 11
2015.1
 21
143.5
 31
0.0
  0
LINE
  5
57
330
17
100
AcDbEntity
  8
GRAIN_DIRECTION
100
AcDbLine
 10
2000.1
 20
136.0
 30
0.0
 11
2015.1
 21
143.5
 31
0.0
  0
LINE
  5
58
330
17
100
AcDbEntity
  8
GRAIN_DIRECTION
100
AcDbLine
 10
2000.1
 20
151.0
 30
0.0
 11
2015.1
 21
143.5
 31
0.0
  0
LWPOLYLINE
  5
5E
330
17
100
AcDbEntity
  8
OUTSIDE_THROUGH
100
AcDbPolyline
 90
4
 70
1
 10
1187.0
 20
291.0
 10
2370.0
 20
291.0
 10
2370.0
 20
463.0
 10
1187.0
 20
463.0
  0
CIRCLE
  5
5F
330
17
100
AcDbEntity
  8
INSIDE_THROUGH
100
AcDbCircle
 10
1192.0
 20
321.72
 30
0.0
 40
1.6
  0
CIRCLE
  5
60
330
17
100
AcDbEntity
  8
INSIDE_THROUGH
100
AcDbCircle
 10
1192.0
 20
409.8
 30
0.0
 40
1.6
  0
CIRCLE
  5
61
330
17
100
AcDbEntity
  8
INSIDE_THROUGH
100
AcDbCircle
 10
2365.0
 20
321.72
 30
0.0
 40
1.6
  0
CIRCLE
  5
62
330
17
100
AcDbEntity
  8
INSIDE_THROUGH
100
AcDbCircle
 10
2365.0
 20
409.8
 30
0.0
 40
1.6
  0
CIRCLE
  5
63
330
17
100
AcDbEntity
  8
INSIDE_THROUGH
100
AcDbCircle
 10
1246.15
 20
456.5
 30
0.0
 40
1.6
  0
CIRCLE
  5
64
330
17
100
AcDbEntity
  8
INSIDE_THROUGH
100
AcDbCircle
 10
1423.6
 20
456.5
 30
0.0
 40
1.6
  0
CIRCLE
  5
65
330
17
100
AcDbEntity
  8
INSIDE_THROUGH
100
AcDbCircle
 10
1601.05
 20
456.5
 30
0.0
 40
1.6
  0
CIRCLE
  5
66
330
17
100
AcDbEntity
  8
INSIDE_THROUGH
100
AcDbCircle
 10
1778.5
 20
456.5
 30
0.0
 40
1.6
  0
CIRCLE
  5
67
330
17
100
AcDbEntity
  8
INSIDE_THROUGH
100
AcDbCircle
 10
1955.95
 20
456.5
 30
0.0
 40
1.6
  0
CIRCLE
  5
68
330
17
100
AcDbEntity
  8
INSIDE_THROUGH
100
AcDbCircle
 10
2133.4
 20
456.5
 30
0.0
 40
1.6
  0
CIRCLE
  5
69
330
17
100
AcDbEntity
  8
INSIDE_THROUGH
100
AcDbCircle
 10
2310.85
 20
456.5
 30
0.0
 40
1.6
  0
LINE
  5
6A
330
17
100
AcDbEntity
  8
EDGE_BANDING
100
AcDbLine
 10
1187.0
 20
463.0
 30
0.0
 11
2370.0
 21
463.0
 31
0.0
  0
LINE
  5
6B
330
17
100
AcDbEntity
  8
GRAIN_DIRECTION
100
AcDbLine
 10
1541.9
 20
377.0
 30
0.0
 11
2015.1
 21
377.0
 31
0.0
  0
LINE
  5
6C
330
17
100
AcDbEntity
  8
GRAIN_DIRECTION
100
AcDbLine
 10
2000.1
 20
369.5
 30
0.0
 11
2015.1
 21
377.0
 31
0.0
  0
LINE
  5
6D
330
17
100
AcDbEntity
  8
GRAIN_DIRECTION
100
AcDbLine
 10
2000.1
 20
384.5
 30
0.0
 11
2015.1
 21
377.0
 31
0.0
  0
LWPOLYLINE
  5
73
330
17
100
AcDbEntity
  8
OUTSIDE_THROUGH
100
AcDbPolyline
 90
8
 70
1
 10
1264.01
 20
481.5
 10
1264.01
 20
467.0
 10
2235.01
 20
467.0
 10
2235.01
 20
481.5
 10
2310.01
 20
481.5
 10
2310.01
 20
640.0
 10
1189.01
 20
640.0
 10
1189.01
 20
481.5
  0
LWPOLYLINE
  5
74
330
17
100
AcDbEntity
  8
A_SIDE_GROOVE_5.5
100
AcDbPolyline
 90
8
 70
1
 10
1189.0
 20
481.5
 10
2310.02
 20
481.5
 42
0.4142135623730951
 10
2312.02
 20
483.5
 10
2312.02
 20
487.0
 42
0.4142135623730951
 10
2310.02
 20
489.0
 10
1189.0
 20
489.0
 42
0.4142135623730951
 10
1187.0
 20
487.0
 10
1187.0
 20
483.5
 42
0.4142135623730951
  0
LINE
  5
75
330
17
100
AcDbEntity
  8
EDGE_BANDING
100
AcDbLine
 10
1264.01
 20
467.0
 30
0.0
 11
2235.01
 21
467.0
 31
0.0
  0
LINE
  5
76
330
17
100
AcDbEntity
  8
EDGE_BANDING
100
AcDbLine
 10
1189.01
 20
640.0
 30
0.0
 11
2310.01
 21
640.0
 31
0.0
  0
LINE
  5
77
330
17
100
AcDbEntity
  8
GRAIN_DIRECTION
100
AcDbLine
 10
1525.31
 20
553.5
 30
0.0
 11
1973.71
 21
553.5
 31
0.0
  0
LINE
  5
78
330
17
100
AcDbEntity
  8
GRAIN_DIRECTION
100
AcDbLine
 10
1958.71
 20
546.0
 30
0.0
 11
1973.71
 21
553.5
 31
0.0
  0
LINE
  5
79
330
17
100
AcDbEntity
  8
GRAIN_DIRECTION
100
AcDbLine
 10
1958.71
 20
561.0
 30
0.0
 11
1973.71
 21
553.5
 31
0.0
  0
LWPOLYLINE
  5
7F
330
17
100
AcDbEntity
  8
OUTSIDE_THROUGH
100
AcDbPolyline
 90
8
 70
1
 10
77.01
 20
565.5
 10
77.01
 20
551.0
 10
1048.01
 20
551.0
 10
1048.01
 20
565.5
 10
1123.01
 20
565.5
 10
1123.01
 20
724.0
 10
2.01
 20
724.0
 10
2.01
 20
565.5
  0
LWPOLYLINE
  5
80
330
17
100
AcDbEntity
  8
A_SIDE_GROOVE_5.5
100
AcDbPolyline
 90
8
 70
1
 10
2.0
 20
565.5
 10
1123.02
 20
565.5
 42
0.4142135623730951
 10
1125.02
 20
567.5
 10
1125.02
 20
571.0
 42
0.4142135623730951
 10
1123.02
 20
573.0
 10
2.0
 20
573.0
 42
0.4142135623730951
 10
0.0
 20
571.0
 10
0.0
 20
567.5
 42
0.4142135623730951
  0
LINE
  5
81
330
17
100
AcDbEntity
  8
EDGE_BANDING
100
AcDbLine
 10
77.01
 20
551.0
 30
0.0
 11
1048.01
 21
551.0
 31
0.0
  0
LINE
  5
82
330
17
100
AcDbEntity
  8
EDGE_BANDING
100
AcDbLine
 10
2.01
 20
724.0
 30
0.0
 11
1123.01
 21
724.0
 31
0.0
  0
LINE
  5
83
330
17
100
AcDbEntity
  8
GRAIN_DIRECTION
100
AcDbLine
 10
338.31
 20
637.5
 30
0.0
 11
786.7099999999999
 21
637.5
 31
0.0
  0
LINE
  5
84
330
17
100
AcDbEntity
  8
GRAIN_DIRECTION
100
AcDbLine
 10
771.7099999999999
 20
630.0
 30
0.0
 11
786.7099999999999
 21
637.5
 31
0.0
  0
LINE
  5
85
330
17
100
AcDbEntity
  8
GRAIN_DIRECTION
100
AcDbLine
 10
771.7099999999999
 20
645.0
 30
0.0
 11
786.7099999999999
 21
637.5
 31
0.0
  0
LWPOLYLINE
  5
8B
330
17
100
AcDbEntity
  8
OUTSIDE_THROUGH
100
AcDbPolyline
 90
4
 70
1
 10
0.0
 20
728.0
 10
590.0
 20
728.0
 10
590.0
 20
905.0
 10
0.0
 20
905.0
  0
LWPOLYLINE
  5
8C
330
17
100
AcDbEntity
  8
A_SIDE_GROOVE_5.5
100
AcDbPolyline
 90
8
 70
1
 10
8.0
 20
742.5
 10
582.0
 20
742.5
 42
0.4142135623730951
 10
584.0
 20
744.5
 10
584.0
 20
748.0
 42
0.4142135623730951
 10
582.0
 20
750.0
 10
8.0
 20
750.0
 42
0.4142135623730951
 10
6.0
 20
748.0
 10
6.0
 20
744.5
 42
0.4142135623730951
  0
LINE
  5
8D
330
17
100
AcDbEntity
  8
EDGE_BANDING
100
AcDbLine
 10
0.0
 20
728.0
 30
0.0
 11
590.0
 21
728.0
 31
0.0
  0
LINE
  5
8E
330
17
100
AcDbEntity
  8
EDGE_BANDING
100
AcDbLine
 10
0.0
 20
905.0
 30
0.0
 11
590.0
 21
905.0
 31
0.0
  0
LINE
  5
8F
330
17
100
AcDbEntity
  8
EDGE_BANDING
100
AcDbLine
 10
0.0
 20
728.0
 30
0.0
 11
0.0
 21
905.0
 31
0.0
  0
LINE
  5
90
330
17
100
AcDbEntity
  8
GRAIN_DIRECTION
100
AcDbLine
 10
177.0
 20
816.5
 30
0.0
 11
413.0
 21
816.5
 31
0.0
  0
LINE
  5
91
330
17
100
AcDbEntity
  8
GRAIN_DIRECTION
100
AcDbLine
 10
398.0
 20
809.0
 30
0.0
 11
413.0
 21
816.5
 31
0.0
  0
LINE
  5
92
330
17
100
AcDbEntity
  8
GRAIN_DIRECTION
100
AcDbLine
 10
398.0
 20
824.0
 30
0.0
 11
413.0
 21
816.5
 31
0.0
  0
LWPOLYLINE
  5
98
330
17
100
AcDbEntity
  8
OUTSIDE_THROUGH
100
AcDbPolyline
 90
4
 70
1
 10
0.0
 20
909.0
 10
590.0
 20
909.0
 10
590.0
 20
1086.0
 10
0.0
 20
1086.0
  0
LWPOLYLINE
  5
99
330
17
100
AcDbEntity
  8
A_SIDE_GROOVE_5.5
100
AcDbPolyline
 90
8
 70
1
 10
8.0
 20
923.5
 10
582.0
 20
923.5
 42
0.4142135623730951
 10
584.0
 20
925.5
 10
584.0
 20
929.0
 42
0.4142135623730951
 10
582.0
 20
931.0
 10
8.0
 20
931.0
 42
0.4142135623730951
 10
6.0
 20
929.0
 10
6.0
 20
925.5
 42
0.4142135623730951
  0
LINE
  5
9A
330
17
100
AcDbEntity
  8
EDGE_BANDING
100
AcDbLine
 10
0.0
 20
909.0
 30
0.0
 11
590.0
 21
909.0
 31
0.0
  0
LINE
  5
9B
330
17
100
AcDbEntity
  8
EDGE_BANDING
100
AcDbLine
 10
0.0
 20
1086.0
 30
0.0
 11
590.0
 21
1086.0
 31
0.0
  0
LINE
  5
9C
330
17
100
AcDbEntity
  8
EDGE_BANDING
100
AcDbLine
 10
590.0
 20
909.0
 30
0.0
 11
590.0
 21
1086.0
 31
0.0
  0
LINE
  5
9D
330
17
100
AcDbEntity
  8
GRAIN_DIRECTION
100
AcDbLine
 10
177.0
 20
997.5
 30
0.0
 11
413.0
 21
997.5
 31
0.0
  0
LINE
  5
9E
330
17
100
AcDbEntity
  8
GRAIN_DIRECTION
100
AcDbLine
 10
398.0
 20
990.0
 30
0.0
 11
413.0
 21
997.5
 31
0.0
  0
LINE
  5
9F
330
17
100
AcDbEntity
  8
GRAIN_DIRECTION
100
AcDbLine
 10
398.0
 20
1005.0
 30
0.0
 11
413.0
 21
997.5
 31
0.0
  0
LWPOLYLINE
  5
A5
330
17
100
AcDbEntity
  8
OUTSIDE_THROUGH
100
AcDbPolyline
 90
4
 70
1
 10
594.0
 20
728.0
 10
1184.0
 20
728.0
 10
1184.0
 20
905.0
 10
594.0
 20
905.0
  0
LWPOLYLINE
  5
A6
330
17
100
AcDbEntity
  8
A_SIDE_GROOVE_5.5
100
AcDbPolyline
 90
8
 70
1
 10
602.0
 20
742.5
 10
1176.0
 20
742.5
 42
0.4142135623730951
 10
1178.0
 20
744.5
 10
1178.0
 20
748.0
 42
0.4142135623730951
 10
1176.0
 20
750.0
 10
602.0
 20
750.0
 42
0.4142135623730951
 10
600.0
 20
748.0
 10
600.0
 20
744.5
 42
0.4142135623730951
  0
LINE
  5
A7
330
17
100
AcDbEntity
  8
EDGE_BANDING
100
AcDbLine
 10
594.0
 20
728.0
 30
0.0
 11
1184.0
 21
728.0
 31
0.0
  0
LINE
  5
A8
330
17
100
AcDbEntity
  8
EDGE_BANDING
100
AcDbLine
 10
594.0
 20
905.0
 30
0.0
 11
1184.0
 21
905.0
 31
0.0
  0
LINE
  5
A9
330
17
100
AcDbEntity
  8
EDGE_BANDING
100
AcDbLine
 10
594.0
 20
728.0
 30
0.0
 11
594.0
 21
905.0
 31
0.0
  0
LINE
  5
AA
330
17
100
AcDbEntity
  8
GRAIN_DIRECTION
100
AcDbLine
 10
771.0
 20
816.5
 30
0.0
 11
1007.0
 21
816.5
 31
0.0
  0
LINE
  5
AB
330
17
100
AcDbEntity
  8
GRAIN_DIRECTION
100
AcDbLine
 10
992.0
 20
809.0
 30
0.0
 11
1007.0
 21
816.5
 31
0.0
  0
LINE
  5
AC
330
17
100
AcDbEntity
  8
GRAIN_DIRECTION
100
AcDbLine
 10
992.0
 20
824.0
 30
0.0
 11
1007.0
 21
816.5
 31
0.0
  0
LWPOLYLINE
  5
B2
330
17
100
AcDbEntity
  8
OUTSIDE_THROUGH
100
AcDbPolyline
 90
4
 70
1
 10
594.0
 20
909.0
 10
1184.0
 20
909.0
 10
1184.0
 20
1086.0
 10
594.0
 20
1086.0
  0
LWPOLYLINE
  5
B3
330
17
100
AcDbEntity
  8
A_SIDE_GROOVE_5.5
100
AcDbPolyline
 90
8
 70
1
 10
602.0
 20
923.5
 10
1176.0
 20
923.5
 42
0.4142135623730951
 10
1178.0
 20
925.5
 10
1178.0
 20
929.0
 42
0.4142135623730951
 10
1176.0
 20
931.0
 10
602.0
 20
931.0
 42
0.4142135623730951
 10
600.0
 20
929.0
 10
600.0
 20
925.5
 42
0.4142135623730951
  0
LINE
  5
B4
330
17
100
AcDbEntity
  8
EDGE_BANDING
100
AcDbLine
 10
594.0
 20
909.0
 30
0.0
 11
1184.0
 21
909.0
 31
0.0
  0
LINE
  5
B5
330
17
100
AcDbEntity
  8
EDGE_BANDING
100
AcDbLine
 10
594.0
 20
1086.0
 30
0.0
 11
1184.0
 21
1086.0
 31
0.0
  0
LINE
  5
B6
330
17
100
AcDbEntity
  8
EDGE_BANDING
100
AcDbLine
 10
1184.0
 20
909.0
 30
0.0
 11
1184.0
 21
1086.0
 31
0.0
  0
LINE
  5
B7
330
17
100
AcDbEntity
  8
GRAIN_DIRECTION
100
AcDbLine
 10
771.0
 20
997.5
 30
0.0
 11
1007.0
 21
997.5
 31
0.0
  0
LINE
  5
B8
330
17
100
AcDbEntity
  8
GRAIN_DIRECTION
100
AcDbLine
 10
992.0
 20
990.0
 30
0.0
 11
1007.0
 21
997.5
 31
0.0
  0
LINE
  5
B9
330
17
100
AcDbEntity
  8
GRAIN_DIRECTION
100
AcDbLine
 10
992.0
 20
1005.0
 30
0.0
 11
1007.0
 21
997.5
 31
0.0
  0
LWPOLYLINE
  5
BF
330
17
100
AcDbEntity
  8
OUTSIDE_THROUGH
100
AcDbPolyline
 90
4
 70
1
 10
1188.0
 20
644.0
 10
1778.0
 20
644.0
 10
1778.0
 20
817.0
 10
1188.0
 20
817.0
  0
LWPOLYLINE
  5
C0
330
17
100
AcDbEntity
  8
A_SIDE_GROOVE_5.5
100
AcDbPolyline
 90
8
 70
1
 10
1196.0
 20
658.5
 10
1770.0
 20
658.5
 42
0.4142135623730951
 10
1772.0
 20
660.5
 10
1772.0
 20
664.0
 42
0.4142135623730951
 10
1770.0
 20
666.0
 10
1196.0
 20
666.0
 42
0.4142135623730951
 10
1194.0
 20
664.0
 10
1194.0
 20
660.5
 42
0.4142135623730951
  0
LINE
  5
C1
330
17
100
AcDbEntity
  8
EDGE_BANDING
100
AcDbLine
 10
1188.0
 20
644.0
 30
0.0
 11
1778.0
 21
644.0
 31
0.0
  0
LINE
  5
C2
330
17
100
AcDbEntity
  8
EDGE_BANDING
100
AcDbLine
 10
1188.0
 20
817.0
 30
0.0
 11
1778.0
 21
817.0
 31
0.0
  0
LINE
  5
C3
330
17
100
AcDbEntity
  8
EDGE_BANDING
100
AcDbLine
 10
1188.0
 20
644.0
 30
0.0
 11
1188.0
 21
817.0
 31
0.0
  0
LINE
  5
C4
330
17
100
AcDbEntity
  8
GRAIN_DIRECTION
100
AcDbLine
 10
1365.0
 20
730.5
 30
0.0
 11
1601.0
 21
730.5
 31
0.0
  0
LINE
  5
C5
330
17
100
AcDbEntity
  8
GRAIN_DIRECTION
100
AcDbLine
 10
1586.0
 20
723.0
 30
0.0
 11
1601.0
 21
730.5
 31
0.0
  0
LINE
  5
C6
330
17
100
AcDbEntity
  8
GRAIN_DIRECTION
100
AcDbLine
 10
1586.0
 20
738.0
 30
0.0
 11
1601.0
 21
730.5
 31
0.0
  0
LWPOLYLINE
  5
CC
330
17
100
AcDbEntity
  8
OUTSIDE_THROUGH
100
AcDbPolyline
 90
4
 70
1
 10
1782.0
 20
644.0
 10
2372.0
 20
644.0
 10
2372.0
 20
817.0
 10
1782.0
 20
817.0
  0
LWPOLYLINE
  5
CD
330
17
100
AcDbEntity
  8
A_SIDE_GROOVE_5.5
100
AcDbPolyline
 90
8
 70
1
 10
1790.0
 20
658.5
 10
2364.0
 20
658.5
 42
0.4142135623730951
 10
2366.0
 20
660.5
 10
2366.0
 20
664.0
 42
0.4142135623730951
 10
2364.0
 20
666.0
 10
1790.0
 20
666.0
 42
0.4142135623730951
 10
1788.0
 20
664.0
 10
1788.0
 20
660.5
 42
0.4142135623730951
  0
LINE
  5
CE
330
17
100
AcDbEntity
  8
EDGE_BANDING
100
AcDbLine
 10
1782.0
 20
644.0
 30
0.0
 11
2372.0
 21
644.0
 31
0.0
  0
LINE
  5
CF
330
17
100
AcDbEntity
  8
EDGE_BANDING
100
AcDbLine
 10
1782.0
 20
817.0
 30
0.0
 11
2372.0
 21
817.0
 31
0.0
  0
LINE
  5
D0
330
17
100
AcDbEntity
  8
EDGE_BANDING
100
AcDbLine
 10
2372.0
 20
644.0
 30
0.0
 11
2372.0
 21
817.0
 31
0.0
  0
LINE
  5
D1
330
17
100
AcDbEntity
  8
GRAIN_DIRECTION
100
AcDbLine
 10
1959.0
 20
730.5
 30
0.0
 11
2195.0
 21
730.5
 31
0.0
  0
LINE
  5
D2
330
17
100
AcDbEntity
  8
GRAIN_DIRECTION
100
AcDbLine
 10
2180.0
 20
723.0
 30
0.0
 11
2195.0
 21
730.5
 31
0.0
  0
LINE
  5
D3
330
17
100
AcDbEntity
  8
GRAIN_DIRECTION
100
AcDbLine
 10
2180.0
 20
738.0
 30
0.0
 11
2195.0
 21
730.5
 31
0.0
  0
LWPOLYLINE
  5
D9
330
17
100
AcDbEntity
  8
OUTSIDE_THROUGH
100
AcDbPolyline
 90
8
 70
1
 10
1265.01
 20
835.5
 10
1265.01
 20
821.0
 10
1645.01
 20
821.0
 10
1645.01
 20
835.5
 10
1720.01
 20
835.5
 10
1720.01
 20
998.0
 10
1190.01
 20
998.0
 10
1190.01
 20
835.5
  0
LWPOLYLINE
  5
DA
330
17
100
AcDbEntity
  8
A_SIDE_GROOVE_5.5
100
AcDbPolyline
 90
8
 70
1
 10
1190.0
 20
835.5
 10
1720.02
 20
835.5
 42
0.4142135623730951
 10
1722.02
 20
837.5
 10
1722.02
 20
841.0
 42
0.4142135623730951
 10
1720.02
 20
843.0
 10
1190.0
 20
843.0
 42
0.4142135623730951
 10
1188.0
 20
841.0
 10
1188.0
 20
837.5
 42
0.4142135623730951
  0
LINE
  5
DB
330
17
100
AcDbEntity
  8
EDGE_BANDING
100
AcDbLine
 10
1265.01
 20
821.0
 30
0.0
 11
1645.01
 21
821.0
 31
0.0
  0
LINE
  5
DC
330
17
100
AcDbEntity
  8
EDGE_BANDING
100
AcDbLine
 10
1190.01
 20
998.0
 30
0.0
 11
1720.01
 21
998.0
 31
0.0
  0
LINE
  5
DD
330
17
100
AcDbEntity
  8
GRAIN_DIRECTION
100
AcDbLine
 10
1349.01
 20
909.5
 30
0.0
 11
1561.01
 21
909.5
 31
0.0
  0
LINE
  5
DE
330
17
100
AcDbEntity
  8
GRAIN_DIRECTION
100
AcDbLine
 10
1546.01
 20
902.0
 30
0.0
 11
1561.01
 21
909.5
 31
0.0
  0
LINE
  5
DF
330
17
100
AcDbEntity
  8
GRAIN_DIRECTION
100
AcDbLine
 10
1546.01
 20
917.0
 30
0.0
 11
1561.01
 21
909.5
 31
0.0
  0
LWPOLYLINE
  5
E5
330
17
100
AcDbEntity
  8
OUTSIDE_THROUGH
100
AcDbPolyline
 90
8
 70
1
 10
1265.01
 20
1016.5
 10
1265.01
 20
1002.0
 10
1645.01
 20
1002.0
 10
1645.01
 20
1016.5
 10
1720.01
 20
1016.5
 10
1720.01
 20
1179.0
 10
1190.01
 20
1179.0
 10
1190.01
 20
1016.5
  0
LWPOLYLINE
  5
E6
330
17
100
AcDbEntity
  8
A_SIDE_GROOVE_5.5
100
AcDbPolyline
 90
8
 70
1
 10
1190.0
 20
1016.5
 10
1720.02
 20
1016.5
 42
0.4142135623730951
 10
1722.02
 20
1018.5
 10
1722.02
 20
1022.0
 42
0.4142135623730951
 10
1720.02
 20
1024.0
 10
1190.0
 20
1024.0
 42
0.4142135623730951
 10
1188.0
 20
1022.0
 10
1188.0
 20
1018.5
 42
0.4142135623730951
  0
LINE
  5
E7
330
17
100
AcDbEntity
  8
EDGE_BANDING
100
AcDbLine
 10
1265.01
 20
1002.0
 30
0.0
 11
1645.01
 21
1002.0
 31
0.0
  0
LINE
  5
E8
330
17
100
AcDbEntity
  8
EDGE_BANDING
100
AcDbLine
 10
1190.01
 20
1179.0
 30
0.0
 11
1720.01
 21
1179.0
 31
0.0
  0
LINE
  5
E9
330
17
100
AcDbEntity
  8
GRAIN_DIRECTION
100
AcDbLine
 10
1349.01
 20
1090.5
 30
0.0
 11
1561.01
 21
1090.5
 31
0.0
  0
LINE
  5
EA
330
17
100
AcDbEntity
  8
GRAIN_DIRECTION
100
AcDbLine
 10
1546.01
 20
1083.0
 30
0.0
 11
1561.01
 21
1090.5
 31
0.0
  0
LINE
  5
EB
330
17
100
AcDbEntity
  8
GRAIN_DIRECTION
100
AcDbLine
 10
1546.01
 20
1098.0
 30
0.0
 11
1561.01
 21
1090.5
 31
0.0
  0
LWPOLYLINE
  5
F1
330
17
100
AcDbEntity
  8
OUTSIDE_THROUGH
100
AcDbPolyline
 90
8
 70
1
 10
1803.03
 20
835.5
 10
1803.03
 20
821.0
 10
2183.0299999999997
 20
821.0
 10
2183.0299999999997
 20
835.5
 10
2258.0299999999997
 20
835.5
 10
2258.0299999999997
 20
998.0
 10
1728.03
 20
998.0
 10
1728.03
 20
835.5
  0
LWPOLYLINE
  5
F2
330
17
100
AcDbEntity
  8
A_SIDE_GROOVE_5.5
100
AcDbPolyline
 90
8
 70
1
 10
1728.02
 20
835.5
 10
2258.04
 20
835.5
 42
0.4142135623730951
 10
2260.04
 20
837.5
 10
2260.04
 20
841.0
 42
0.4142135623730951
 10
2258.04
 20
843.0
 10
1728.02
 20
843.0
 42
0.4142135623730951
 10
1726.02
 20
841.0
 10
1726.02
 20
837.5
 42
0.4142135623730951
  0
LINE
  5
F3
330
17
100
AcDbEntity
  8
EDGE_BANDING
100
AcDbLine
 10
1803.03
 20
821.0
 30
0.0
 11
2183.0299999999997
 21
821.0
 31
0.0
  0
LINE
  5
F4
330
17
100
AcDbEntity
  8
EDGE_BANDING
100
AcDbLine
 10
1728.03
 20
998.0
 30
0.0
 11
2258.0299999999997
 21
998.0
 31
0.0
  0
LINE
  5
F5
330
17
100
AcDbEntity
  8
GRAIN_DIRECTION
100
AcDbLine
 10
1887.03
 20
909.5
 30
0.0
 11
2099.0299999999997
 21
909.5
 31
0.0
  0
LINE
  5
F6
330
17
100
AcDbEntity
  8
GRAIN_DIRECTION
100
AcDbLine
 10
2084.0299999999997
 20
902.0
 30
0.0
 11
2099.0299999999997
 21
909.5
 31
0.0
  0
LINE
  5
F7
330
17
100
AcDbEntity
  8
GRAIN_DIRECTION
100
AcDbLine
 10
2084.0299999999997
 20
917.0
 30
0.0
 11
2099.0299999999997
 21
909.5
 31
0.0
  0
LWPOLYLINE
  5
FD
330
17
100
AcDbEntity
  8
OUTSIDE_THROUGH
100
AcDbPolyline
 90
8
 70
1
 10
1803.03
 20
1016.5
 10
1803.03
 20
1002.0
 10
2183.0299999999997
 20
1002.0
 10
2183.0299999999997
 20
1016.5
 10
2258.0299999999997
 20
1016.5
 10
2258.0299999999997
 20
1179.0
 10
1728.03
 20
1179.0
 10
1728.03
 20
1016.5
  0
LWPOLYLINE
  5
FE
330
17
100
AcDbEntity
  8
A_SIDE_GROOVE_5.5
100
AcDbPolyline
 90
8
 70
1
 10
1728.02
 20
1016.5
 10
2258.04
 20
1016.5
 42
0.4142135623730951
 10
2260.04
 20
1018.5
 10
2260.04
 20
1022.0
 42
0.4142135623730951
 10
2258.04
 20
1024.0
 10
1728.02
 20
1024.0
 42
0.4142135623730951
 10
1726.02
 20
1022.0
 10
1726.02
 20
1018.5
 42
0.4142135623730951
  0
LINE
  5
FF
330
17
100
AcDbEntity
  8
EDGE_BANDING
100
AcDbLine
 10
1803.03
 20
1002.0
 30
0.0
 11
2183.0299999999997
 21
1002.0
 31
0.0
  0
LINE
  5
100
330
17
100
AcDbEntity
  8
EDGE_BANDING
100
AcDbLine
 10
1728.03
 20
1179.0
 30
0.0
 11
2258.0299999999997
 21
1179.0
 31
0.0
  0
LINE
  5
101
330
17
100
AcDbEntity
  8
GRAIN_DIRECTION
100
AcDbLine
 10
1887.03
 20
1090.5
 30
0.0
 11
2099.0299999999997
 21
1090.5
 31
0.0
  0
LINE
  5
102
330
17
100
AcDbEntity
  8
GRAIN_DIRECTION
100
AcDbLine
 10
2084.0299999999997
 20
1083.0
 30
0.0
 11
2099.0299999999997
 21
1090.5
 31
0.0
  0
LINE
  5
103
330
17
100
AcDbEntity
  8
GRAIN_DIRECTION
100
AcDbLine
 10
2084.0299999999997
 20
1098.0
 30
0.0
 11
2099.0299999999997
 21
1090.5
 31
0.0
  0
LWPOLYLINE
  5
109
330
17
100
AcDbEntity
  8
OUTSIDE_THROUGH
100
AcDbPolyline
 90
8
 70
1
 10
77.01
 20
1111.5
 10
77.01
 20
1090.0
 10
678.01
 20
1090.0
 10
678.01
 20
1111.5
 10
753.01
 20
1111.5
 10
753.01
 20
1140.0
 10
2.01
 20
1140.0
 10
2.01
 20
1111.5
  0
LWPOLYLINE
  5
10A
330
17
100
AcDbEntity
  8
A_SIDE_GROOVE_5.5
100
AcDbPolyline
 90
8
 70
1
 10
2.0
 20
1111.5
 10
148.51
 20
1111.5
 42
0.4142135623730951
 10
150.51
 20
1113.5
 10
150.51
 20
1117.0
 42
0.4142135623730951
 10
148.51
 20
1119.0
 10
2.0
 20
1119.0
 42
0.4142135623730951
 10
0.0
 20
1117.0
 10
0.0
 20
1113.5
 42
0.4142135623730951
  0
LWPOLYLINE
  5
10B
330
17
100
AcDbEntity
  8
A_SIDE_GROOVE_5.5
100
AcDbPolyline
 90
8
 70
1
 10
606.51
 20
1111.5
 10
753.02
 20
1111.5
 42
0.4142135623730951
 10
755.02
 20
1113.5
 10
755.02
 20
1117.0
 42
0.4142135623730951
 10
753.02
 20
1119.0
 10
606.51
 20
1119.0
 42
0.4142135623730951
 10
604.51
 20
1117.0
 10
604.51
 20
1113.5
 42
0.4142135623730951
  0
LWPOLYLINE
  5
10C
330
17
100
AcDbEntity
  8
A_SIDE_GROOVE_5.5
100
AcDbPolyline
 90
8
 70
1
 10
150.51
 20
1096.0
 10
604.51
 20
1096.0
 42
0.4142135623730951
 10
606.51
 20
1098.0
 10
606.51
 20
1101.5
 42
0.4142135623730951
 10
604.51
 20
1103.5
 10
150.51
 20
1103.5
 42
0.4142135623730951
 10
148.51
 20
1101.5
 10
148.51
 20
1098.0
 42
0.4142135623730951
  0
LINE
  5
10D
330
17
100
AcDbEntity
  8
EDGE_BANDING
100
AcDbLine
 10
77.01
 20
1090.0
 30
0.0
 11
678.01
 21
1090.0
 31
0.0
  0
LINE
  5
10E
330
17
100
AcDbEntity
  8
EDGE_BANDING
100
AcDbLine
 10
2.01
 20
1140.0
 30
0.0
 11
753.01
 21
1140.0
 31
0.0
  0
LINE
  5
10F
330
17
100
AcDbEntity
  8
GRAIN_DIRECTION
100
AcDbLine
 10
227.30999999999997
 20
1115.0
 30
0.0
 11
527.7099999999999
 21
1115.0
 31
0.0
  0
LINE
  5
110
330
17
100
AcDbEntity
  8
GRAIN_DIRECTION
100
AcDbLine
 10
520.2099999999999
 20
1111.25
 30
0.0
 11
527.7099999999999
 21
1115.0
 31
0.0
  0
LINE
  5
111
330
17
100
AcDbEntity
  8
GRAIN_DIRECTION
100
AcDbLine
 10
520.2099999999999
 20
1118.75
 30
0.0
 11
527.7099999999999
 21
1115.0
 31
0.0
  0
LWPOLYLINE
  5
117
330
17
100
AcDbEntity
  8
OUTSIDE_THROUGH
100
AcDbPolyline
 90
8
 70
1
 10
77.01
 20
1165.5
 10
77.01
 20
1144.0
 10
678.01
 20
1144.0
 10
678.01
 20
1165.5
 10
753.01
 20
1165.5
 10
753.01
 20
1194.0
 10
2.01
 20
1194.0
 10
2.01
 20
1165.5
  0
LWPOLYLINE
  5
118
330
17
100
AcDbEntity
  8
A_SIDE_GROOVE_5.5
100
AcDbPolyline
 90
8
 70
1
 10
2.0
 20
1165.5
 10
148.51
 20
1165.5
 42
0.4142135623730951
 10
150.51
 20
1167.5
 10
150.51
 20
1171.0
 42
0.4142135623730951
 10
148.51
 20
1173.0
 10
2.0
 20
1173.0
 42
0.4142135623730951
 10
0.0
 20
1171.0
 10
0.0
 20
1167.5
 42
0.4142135623730951
  0
LWPOLYLINE
  5
119
330
17
100
AcDbEntity
  8
A_SIDE_GROOVE_5.5
100
AcDbPolyline
 90
8
 70
1
 10
606.51
 20
1165.5
 10
753.02
 20
1165.5
 42
0.4142135623730951
 10
755.02
 20
1167.5
 10
755.02
 20
1171.0
 42
0.4142135623730951
 10
753.02
 20
1173.0
 10
606.51
 20
1173.0
 42
0.4142135623730951
 10
604.51
 20
1171.0
 10
604.51
 20
1167.5
 42
0.4142135623730951
  0
LWPOLYLINE
  5
11A
330
17
100
AcDbEntity
  8
A_SIDE_GROOVE_5.5
100
AcDbPolyline
 90
8
 70
1
 10
150.51
 20
1150.0
 10
604.51
 20
1150.0
 42
0.4142135623730951
 10
606.51
 20
1152.0
 10
606.51
 20
1155.5
 42
0.4142135623730951
 10
604.51
 20
1157.5
 10
150.51
 20
1157.5
 42
0.4142135623730951
 10
148.51
 20
1155.5
 10
148.51
 20
1152.0
 42
0.4142135623730951
  0
LINE
  5
11B
330
17
100
AcDbEntity
  8
EDGE_BANDING
100
AcDbLine
 10
77.01
 20
1144.0
 30
0.0
 11
678.01
 21
1144.0
 31
0.0
  0
LINE
  5
11C
330
17
100
AcDbEntity
  8
EDGE_BANDING
100
AcDbLine
 10
2.01
 20
1194.0
 30
0.0
 11
753.01
 21
1194.0
 31
0.0
  0
LINE
  5
11D
330
17
100
AcDbEntity
  8
GRAIN_DIRECTION
100
AcDbLine
 10
227.30999999999997
 20
1169.0
 30
0.0
 11
527.7099999999999
 21
1169.0
 31
0.0
  0
LINE
  5
11E
330
17
100
AcDbEntity
  8
GRAIN_DIRECTION
100
AcDbLine
 10
520.2099999999999
 20
1165.25
 30
0.0
 11
527.7099999999999
 21
1169.0
 31
0.0
  0
LINE
  5
11F
330
17
100
AcDbEntity
  8
GRAIN_DIRECTION
100
AcDbLine
 10
520.2099999999999
 20
1172.75
 30
0.0
 11
527.7099999999999
 21
1169.0
 31
0.0
  0
LWPOLYLINE
  5
126
330
17
100
AcDbEntity
  8
OUTSIDE_THROUGH
100
AcDbPolyline
 90
4
 70
1
 10
761.03
 20
1090.0
 10
975.03
 20
1090.0
 10
975.03
 20
1147.0
 10
761.03
 20
1147.0
  0
LWPOLYLINE
  5
127
330
17
100
AcDbEntity
  8
A_SIDE_GROOVE_5.5
100
AcDbPolyline
 90
8
 70
1
 10
761.02
 20
1111.5
 10
975.04
 20
1111.5
 42
0.4142135623730951
 10
977.04
 20
1113.5
 10
977.04
 20
1117.0
 42
0.4142135623730951
 10
975.04
 20
1119.0
 10
761.02
 20
1119.0
 42
0.4142135623730951
 10
759.02
 20
1117.0
 10
759.02
 20
1113.5
 42
0.4142135623730951
  0
LWPOLYLINE
  5
128
330
17
100
AcDbEntity
  8
B_SIDE_GROOVE_5.5
100
AcDbPolyline
 90
8
 70
1
 10
761.02
 20
1096.0
 10
975.04
 20
1096.0
 42
0.4142135623730951
 10
977.04
 20
1098.0
 10
977.04
 20
1101.5
 42
0.4142135623730951
 10
975.04
 20
1103.5
 10
761.02
 20
1103.5
 42
0.4142135623730951
 10
759.02
 20
1101.5
 10
759.02
 20
1098.0
 42
0.4142135623730951
  0
LINE
  5
129
330
17
100
AcDbEntity
  8
EDGE_BANDING
100
AcDbLine
 10
761.03
 20
1090.0
 30
0.0
 11
975.03
 21
1090.0
 31
0.0
  0
LINE
  5
12A
330
17
100
AcDbEntity
  8
EDGE_BANDING
100
AcDbLine
 10
761.03
 20
1147.0
 30
0.0
 11
975.03
 21
1147.0
 31
0.0
  0
LINE
  5
12B
330
17
100
AcDbEntity
  8
GRAIN_DIRECTION
100
AcDbLine
 10
825.23
 20
1118.5
 30
0.0
 11
910.8299999999999
 21
1118.5
 31
0.0
  0
LINE
  5
12C
330
17
100
AcDbEntity
  8
GRAIN_DIRECTION
100
AcDbLine
 10
902.28
 20
1114.225
 30
0.0
 11
910.8299999999999
 21
1118.5
 31
0.0
  0
LINE
  5
12D
330
17
100
AcDbEntity
  8
GRAIN_DIRECTION
100
AcDbLine
 10
902.28
 20
1122.775
 30
0.0
 11
910.8299999999999
 21
1118.5
 31
0.0
  0
LWPOLYLINE
  5
134
330
17
100
AcDbEntity
  8
OUTSIDE_THROUGH
100
AcDbPolyline
 90
4
 70
1
 10
761.03
 20
1151.0
 10
975.03
 20
1151.0
 10
975.03
 20
1208.0
 10
761.03
 20
1208.0
  0
LWPOLYLINE
  5
135
330
17
100
AcDbEntity
  8
A_SIDE_GROOVE_5.5
100
AcDbPolyline
 90
8
 70
1
 10
761.02
 20
1172.5
 10
975.04
 20
1172.5
 42
0.4142135623730951
 10
977.04
 20
1174.5
 10
977.04
 20
1178.0
 42
0.4142135623730951
 10
975.04
 20
1180.0
 10
761.02
 20
1180.0
 42
0.4142135623730951
 10
759.02
 20
1178.0
 10
759.02
 20
1174.5
 42
0.4142135623730951
  0
LWPOLYLINE
  5
136
330
17
100
AcDbEntity
  8
B_SIDE_GROOVE_5.5
100
AcDbPolyline
 90
8
 70
1
 10
761.02
 20
1157.0
 10
975.04
 20
1157.0
 42
0.4142135623730951
 10
977.04
 20
1159.0
 10
977.04
 20
1162.5
 42
0.4142135623730951
 10
975.04
 20
1164.5
 10
761.02
 20
1164.5
 42
0.4142135623730951
 10
759.02
 20
1162.5
 10
759.02
 20
1159.0
 42
0.4142135623730951
  0
LINE
  5
137
330
17
100
AcDbEntity
  8
EDGE_BANDING
100
AcDbLine
 10
761.03
 20
1151.0
 30
0.0
 11
975.03
 21
1151.0
 31
0.0
  0
LINE
  5
138
330
17
100
AcDbEntity
  8
EDGE_BANDING
100
AcDbLine
 10
761.03
 20
1208.0
 30
0.0
 11
975.03
 21
1208.0
 31
0.0
  0
LINE
  5
139
330
17
100
AcDbEntity
  8
GRAIN_DIRECTION
100
AcDbLine
 10
825.23
 20
1179.5
 30
0.0
 11
910.8299999999999
 21
1179.5
 31
0.0
  0
LINE
  5
13A
330
17
100
AcDbEntity
  8
GRAIN_DIRECTION
100
AcDbLine
 10
902.28
 20
1175.225
 30
0.0
 11
910.8299999999999
 21
1179.5
 31
0.0
  0
LINE
  5
13B
330
17
100
AcDbEntity
  8
GRAIN_DIRECTION
100
AcDbLine
 10
902.28
 20
1183.775
 30
0.0
 11
910.8299999999999
 21
1179.5
 31
0.0
  0
LWPOLYLINE
  5
140
330
17
100
AcDbEntity
  8
OUTSIDE_THROUGH
100
AcDbPolyline
 90
4
 70
1
 10
2264.04
 20
821.0
 10
2388.04
 20
821.0
 10
2388.04
 20
856.0
 10
2264.04
 20
856.0
  0
LINE
  5
141
330
17
100
AcDbEntity
  8
EDGE_BANDING
100
AcDbLine
 10
2264.04
 20
821.0
 30
0.0
 11
2388.04
 21
821.0
 31
0.0
  0
LINE
  5
142
330
17
100
AcDbEntity
  8
GRAIN_DIRECTION
100
AcDbLine
 10
2301.24
 20
838.5
 30
0.0
 11
2350.84
 21
838.5
 31
0.0
  0
LINE
  5
143
330
17
100
AcDbEntity
  8
GRAIN_DIRECTION
100
AcDbLine
 10
2345.59
 20
835.875
 30
0.0
 11
2350.84
 21
838.5
 31
0.0
  0
LINE
  5
144
330
17
100
AcDbEntity
  8
GRAIN_DIRECTION
100
AcDbLine
 10
2345.59
 20
841.125
 30
0.0
 11
2350.84
 21
838.5
 31
0.0
  0
LWPOLYLINE
  5
149
330
17
100
AcDbEntity
  8
OUTSIDE_THROUGH
100
AcDbPolyline
 90
4
 70
1
 10
2264.04
 20
875.0
 10
2388.04
 20
875.0
 10
2388.04
 20
910.0
 10
2264.04
 20
910.0
  0
LINE
  5
14A
330
17
100
AcDbEntity
  8
EDGE_BANDING
100
AcDbLine
 10
2264.04
 20
875.0
 30
0.0
 11
2388.04
 21
875.0
 31
0.0
  0
LINE
  5
14B
330
17
100
AcDbEntity
  8
GRAIN_DIRECTION
100
AcDbLine
 10
2301.24
 20
892.5
 30
0.0
 11
2350.84
 21
892.5
 31
0.0
  0
LINE
  5
14C
330
17
100
AcDbEntity
  8
GRAIN_DIRECTION
100
AcDbLine
 10
2345.59
 20
889.875
 30
0.0
 11
2350.84
 21
892.5
 31
0.0
  0
LINE
  5
14D
330
17
100
AcDbEntity
  8
GRAIN_DIRECTION
100
AcDbLine
 10
2345.59
 20
895.125
 30
0.0
 11
2350.84
 21
892.5
 31
0.0
  0
LWPOLYLINE
  5
152
330
17
100
AcDbEntity
  8
OUTSIDE_THROUGH
100
AcDbPolyline
 90
4
 70
1
 10
2264.04
 20
929.0
 10
2388.04
 20
929.0
 10
2388.04
 20
964.0
 10
2264.04
 20
964.0
  0
LINE
  5
153
330
17
100
AcDbEntity
  8
EDGE_BANDING
100
AcDbLine
 10
2264.04
 20
929.0
 30
0.0
 11
2388.04
 21
929.0
 31
0.0
  0
LINE
  5
154
330
17
100
AcDbEntity
  8
GRAIN_DIRECTION
100
AcDbLine
 10
2301.24
 20
946.5
 30
0.0
 11
2350.84
 21
946.5
 31
0.0
  0
LINE
  5
155
330
17
100
AcDbEntity
  8
GRAIN_DIRECTION
100
AcDbLine
 10
2345.59
 20
943.875
 30
0.0
 11
2350.84
 21
946.5
 31
0.0
  0
LINE
  5
156
330
17
100
AcDbEntity
  8
GRAIN_DIRECTION
100
AcDbLine
 10
2345.59
 20
949.125
 30
0.0
 11
2350.84
 21
946.5
 31
0.0
  0
LWPOLYLINE
  5
15B
330
17
100
AcDbEntity
  8
OUTSIDE_THROUGH
100
AcDbPolyline
 90
4
 70
1
 10
2264.04
 20
983.0
 10
2388.04
 20
983.0
 10
2388.04
 20
1018.0
 10
2264.04
 20
1018.0
  0
LINE
  5
15C
330
17
100
AcDbEntity
  8
EDGE_BANDING
100
AcDbLine
 10
2264.04
 20
983.0
 30
0.0
 11
2388.04
 21
983.0
 31
0.0
  0
LINE
  5
15D
330
17
100
AcDbEntity
  8
GRAIN_DIRECTION
100
AcDbLine
 10
2301.24
 20
1000.5
 30
0.0
 11
2350.84
 21
1000.5
 31
0.0
  0
LINE
  5
15E
330
17
100
AcDbEntity
  8
GRAIN_DIRECTION
100
AcDbLine
 10
2345.59
 20
997.875
 30
0.0
 11
2350.84
 21
1000.5
 31
0.0
  0
LINE
  5
15F
330
17
100
AcDbEntity
  8
GRAIN_DIRECTION
100
AcDbLine
 10
2345.59
 20
1003.125
 30
0.0
 11
2350.84
 21
1000.5
 31
0.0
  0
LWPOLYLINE
  5
164
330
17
100
AcDbEntity
  8
OUTSIDE_THROUGH
100
AcDbPolyline
 90
4
 70
1
 10
2264.04
 20
1037.0
 10
2388.04
 20
1037.0
 10
2388.04
 20
1072.0
 10
2264.04
 20
1072.0
  0
LINE
  5
165
330
17
100
AcDbEntity
  8
EDGE_BANDING
100
AcDbLine
 10
2264.04
 20
1037.0
 30
0.0
 11
2388.04
 21
1037.0
 31
0.0
  0
LINE
  5
166
330
17
100
AcDbEntity
  8
GRAIN_DIRECTION
100
AcDbLine
 10
2301.24
 20
1054.5
 30
0.0
 11
2350.84
 21
1054.5
 31
0.0
  0
LINE
  5
167
330
17
100
AcDbEntity
  8
GRAIN_DIRECTION
100
AcDbLine
 10
2345.59
 20
1051.875
 30
0.0
 11
2350.84
 21
1054.5
 31
0.0
  0
LINE
  5
168
330
17
100
AcDbEntity
  8
GRAIN_DIRECTION
100
AcDbLine
 10
2345.59
 20
1057.125
 30
0.0
 11
2350.84
 21
1054.5
 31
0.0
  0
LWPOLYLINE
  5
16D
330
17
100
AcDbEntity
  8
OUTSIDE_THROUGH
100
AcDbPolyline
 90
4
 70
1
 10
2264.04
 20
1091.0
 10
2388.04
 20
1091.0
 10
2388.04
 20
1126.0
 10
2264.04
 20
1126.0
  0
LINE
  5
16E
330
17
100
AcDbEntity
  8
EDGE_BANDING
100
AcDbLine
 10
2264.04
 20
1091.0
 30
0.0
 11
2388.04
 21
1091.0
 31
0.0
  0
LINE
  5
16F
330
17
100
AcDbEntity
  8
GRAIN_DIRECTION
100
AcDbLine
 10
2301.24
 20
1108.5
 30
0.0
 11
2350.84
 21
1108.5
 31
0.0
  0
LINE
  5
170
330
17
100
AcDbEntity
  8
GRAIN_DIRECTION
100
AcDbLine
 10
2345.59
 20
1105.875
 30
0.0
 11
2350.84
 21
1108.5
 31
0.0
  0
LINE
  5
171
330
17
100
AcDbEntity
  8
GRAIN_DIRECTION
100
AcDbLine
 10
2345.59
 20
1111.125
 30
0.0
 11
2350.84
 21
1108.5
 31
0.0
  0
LWPOLYLINE
  5
176
330
17
100
AcDbEntity
  8
OUTSIDE_THROUGH
100
AcDbPolyline
 90
4
 70
1
 10
2264.04
 20
1145.0
 10
2388.04
 20
1145.0
 10
2388.04
 20
1180.0
 10
2264.04
 20
1180.0
  0
LINE
  5
177
330
17
100
AcDbEntity
  8
EDGE_BANDING
100
AcDbLine
 10
2264.04
 20
1145.0
 30
0.0
 11
2388.04
 21
1145.0
 31
0.0
  0
LINE
  5
178
330
17
100
AcDbEntity
  8
GRAIN_DIRECTION
100
AcDbLine
 10
2301.24
 20
1162.5
 30
0.0
 11
2350.84
 21
1162.5
 31
0.0
  0
LINE
  5
179
330
17
100
AcDbEntity
  8
GRAIN_DIRECTION
100
AcDbLine
 10
2345.59
 20
1159.875
 30
0.0
 11
2350.84
 21
1162.5
 31
0.0
  0
LINE
  5
17A
330
17
100
AcDbEntity
  8
GRAIN_DIRECTION
100
AcDbLine
 10
2345.59
 20
1165.125
 30
0.0
 11
2350.84
 21
1162.5
 31
0.0
  0
LWPOLYLINE
  5
17F
330
17
100
AcDbEntity
  8
OUTSIDE_THROUGH
100
AcDbPolyline
 90
4
 70
1
 10
981.04
 20
1090.0
 10
1105.04
 20
1090.0
 10
1105.04
 20
1125.0
 10
981.04
 20
1125.0
  0
LINE
  5
180
330
17
100
AcDbEntity
  8
EDGE_BANDING
100
AcDbLine
 10
981.04
 20
1090.0
 30
0.0
 11
1105.04
 21
1090.0
 31
0.0
  0
LINE
  5
181
330
17
100
AcDbEntity
  8
GRAIN_DIRECTION
100
AcDbLine
 10
1018.24
 20
1107.5
 30
0.0
 11
1067.84
 21
1107.5
 31
0.0
  0
LINE
  5
182
330
17
100
AcDbEntity
  8
GRAIN_DIRECTION
100
AcDbLine
 10
1062.59
 20
1104.875
 30
0.0
 11
1067.84
 21
1107.5
 31
0.0
  0
LINE
  5
183
330
17
100
AcDbEntity
  8
GRAIN_DIRECTION
100
AcDbLine
 10
1062.59
 20
1110.125
 30
0.0
 11
1067.84
 21
1107.5
 31
0.0
  0
LWPOLYLINE
  5
186
330
17
100
AcDbEntity
  8
SHEET_BOUNDARY
100
AcDbPolyline
 90
4
 70
1
 10
0.0
 20
0.0
 10
2440.0
 20
0.0
 10
2440.0
 20
1220.0
 10
0.0
 20
1220.0
  0
TEXT
  5
187
330
17
100
AcDbEntity
  8
PART_LABELS
100
AcDbText
 10
4.0
 20
6.0
 30
0.0
 40
24.0
  1
1
100
AcDbText
  0
TEXT
  5
188
330
17
100
AcDbEntity
  8
PART_LABELS
100
AcDbText
 10
1191.0
 20
6.0
 30
0.0
 40
24.0
  1
2
100
AcDbText
  0
TEXT
  5
189
330
17
100
AcDbEntity
  8
PART_LABELS
100
AcDbText
 10
1191.0
 20
297.0
 30
0.0
 40
24.0
  1
3
100
AcDbText
  0
TEXT
  5
18A
330
17
100
AcDbEntity
  8
PART_LABELS
100
AcDbText
 10
1191.0
 20
473.0
 30
0.0
 40
24.0
  1
4
100
AcDbText
  0
TEXT
  5
18B
330
17
100
AcDbEntity
  8
PART_LABELS
100
AcDbText
 10
4.0
 20
557.0
 30
0.0
 40
24.0
  1
5
100
AcDbText
  0
TEXT
  5
18C
330
17
100
AcDbEntity
  8
PART_LABELS
100
AcDbText
 10
4.0
 20
734.0
 30
0.0
 40
24.0
  1
6
100
AcDbText
  0
TEXT
  5
18D
330
17
100
AcDbEntity
  8
PART_LABELS
100
AcDbText
 10
4.0
 20
915.0
 30
0.0
 40
24.0
  1
7
100
AcDbText
  0
TEXT
  5
18E
330
17
100
AcDbEntity
  8
PART_LABELS
100
AcDbText
 10
598.0
 20
734.0
 30
0.0
 40
24.0
  1
8
100
AcDbText
  0
TEXT
  5
18F
330
17
100
AcDbEntity
  8
PART_LABELS
100
AcDbText
 10
598.0
 20
915.0
 30
0.0
 40
24.0
  1
9
100
AcDbText
  0
TEXT
  5
190
330
17
100
AcDbEntity
  8
PART_LABELS
100
AcDbText
 10
1192.0
 20
650.0
 30
0.0
 40
24.0
  1
10
100
AcDbText
  0
TEXT
  5
191
330
17
100
AcDbEntity
  8
PART_LABELS
100
AcDbText
 10
1786.0
 20
650.0
 30
0.0
 40
24.0
  1
11
100
AcDbText
  0
TEXT
  5
192
330
17
100
AcDbEntity
  8
PART_LABELS
100
AcDbText
 10
1192.0
 20
827.0
 30
0.0
 40
24.0
  1
12
100
AcDbText
  0
TEXT
  5
193
330
17
100
AcDbEntity
  8
PART_LABELS
100
AcDbText
 10
1192.0
 20
1008.0
 30
0.0
 40
24.0
  1
13
100
AcDbText
  0
TEXT
  5
194
330
17
100
AcDbEntity
  8
PART_LABELS
100
AcDbText
 10
1730.02
 20
827.0
 30
0.0
 40
24.0
  1
14
100
AcDbText
  0
TEXT
  5
195
330
17
100
AcDbEntity
  8
PART_LABELS
100
AcDbText
 10
1730.02
 20
1008.0
 30
0.0
 40
24.0
  1
15
100
AcDbText
  0
TEXT
  5
196
330
17
100
AcDbEntity
  8
PART_LABELS
100
AcDbText
 10
4.0
 20
1096.0
 30
0.0
 40
24.0
  1
16
100
AcDbText
  0
TEXT
  5
197
330
17
100
AcDbEntity
  8
PART_LABELS
100
AcDbText
 10
4.0
 20
1150.0
 30
0.0
 40
24.0
  1
17
100
AcDbText
  0
TEXT
  5
198
330
17
100
AcDbEntity
  8
PART_LABELS
100
AcDbText
 10
763.02
 20
1096.0
 30
0.0
 40
24.0
  1
18
100
AcDbText
  0
TEXT
  5
199
330
17
100
AcDbEntity
  8
PART_LABELS
100
AcDbText
 10
763.02
 20
1157.0
 30
0.0
 40
24.0
  1
19
100
AcDbText
  0
TEXT
  5
19A
330
17
100
AcDbEntity
  8
PART_LABELS
100
AcDbText
 10
2268.04
 20
827.0
 30
0.0
 40
24.0
  1
20
100
AcDbText
  0
TEXT
  5
19B
330
17
100
AcDbEntity
  8
PART_LABELS
100
AcDbText
 10
2268.04
 20
881.0
 30
0.0
 40
24.0
  1
21
100
AcDbText
  0
TEXT
  5
19C
330
17
100
AcDbEntity
  8
PART_LABELS
100
AcDbText
 10
2268.04
 20
935.0
 30
0.0
 40
24.0
  1
22
100
AcDbText
  0
TEXT
  5
19D
330
17
100
AcDbEntity
  8
PART_LABELS
100
AcDbText
 10
2268.04
 20
989.0
 30
0.0
 40
24.0
  1
23
100
AcDbText
  0
TEXT
  5
19E
330
17
100
AcDbEntity
  8
PART_LABELS
100
AcDbText
 10
2268.04
 20
1043.0
 30
0.0
 40
24.0
  1
24
100
AcDbText
  0
TEXT
  5
19F
330
17
100
AcDbEntity
  8
PART_LABELS
100
AcDbText
 10
2268.04
 20
1097.0
 30
0.0
 40
24.0
  1
25
100
AcDbText
  0
TEXT
  5
1A0
330
17
100
AcDbEntity
  8
PART_LABELS
100
AcDbText
 10
2268.04
 20
1151.0
 30
0.0
 40
24.0
  1
26
100
AcDbText
  0
TEXT
  5
1A1
330
17
100
AcDbEntity
  8
PART_LABELS
100
AcDbText
 10
985.04
 20
1096.0
 30
0.0
 40
24.0
  1
27
100
AcDbText
  0
ENDSEC
  0
SECTION
  2
OBJECTS
  0
DICTIONARY
  5
A
330
0
100
AcDbDictionary
281
1
  3
ACAD_COLOR
350
B
  3
ACAD_GROUP
350
C
  3
ACAD_LAYOUT
350
D
  3
ACAD_MATERIAL
350
E
  3
ACAD_MLEADERSTYLE
350
F
  3
ACAD_MLINESTYLE
350
10
  3
ACAD_PLOTSETTINGS
350
11
  3
ACAD_PLOTSTYLENAME
350
12
  3
ACAD_SCALELIST
350
14
  3
ACAD_TABLESTYLE
350
15
  3
ACAD_VISUALSTYLE
350
16
  3
EZDXF_META
350
2D
  0
DICTIONARY
  5
B
330
A
100
AcDbDictionary
281
1
  0
DICTIONARY
  5
C
330
A
100
AcDbDictionary
281
1
  0
DICTIONARY
  5
D
330
A
100
AcDbDictionary
281
1
  3
Model
350
1A
  3
Layout1
350
1E
  0
DICTIONARY
  5
E
330
A
100
AcDbDictionary
281
1
  3
ByBlock
350
1F
  3
ByLayer
350
20
  3
Global
350
21
  0
DICTIONARY
  5
F
330
A
100
AcDbDictionary
281
1
  3
Standard
350
2C
  0
DICTIONARY
  5
10
330
A
100
AcDbDictionary
281
1
  3
Standard
350
22
  0
DICTIONARY
  5
11
330
A
100
AcDbDictionary
281
1
  0
ACDBDICTIONARYWDFLT
  5
12
330
A
100
AcDbDictionary
281
1
  3
Normal
350
13
100
AcDbDictionaryWithDefault
340
13
  0
ACDBPLACEHOLDER
  5
13
330
12
  0
DICTIONARY
  5
14
330
A
100
AcDbDictionary
281
1
  0
DICTIONARY
  5
15
330
A
100
AcDbDictionary
281
1
  0
DICTIONARY
  5
16
330
A
100
AcDbDictionary
281
1
  0
LAYOUT
  5
1A
330
D
100
AcDbPlotSettings
  1

  4
A3
  6

 40
7.5
 41
20.0
 42
7.5
 43
20.0
 44
420.0
 45
297.0
 46
0.0
 47
0.0
 48
0.0
 49
0.0
140
0.0
141
0.0
142
1.0
143
1.0
 70
1024
 72
1
 73
0
 74
5
  7

 75
16
 76
0
 77
2
 78
300
147
1.0
148
0.0
149
0.0
100
AcDbLayout
  1
Model
 70
1
 71
0
 10
0.0
 20
0.0
 11
420.0
 21
297.0
 12
0.0
 22
0.0
 32
0.0
 14
1e+20
 24
1e+20
 34
1e+20
 15
-1e+20
 25
-1e+20
 35
-1e+20
146
0.0
 13
0.0
 23
0.0
 33
0.0
 16
1.0
 26
0.0
 36
0.0
 17
0.0
 27
1.0
 37
0.0
 76
1
330
17
  0
LAYOUT
  5
1E
330
D
100
AcDbPlotSettings
  1

  4
A3
  6

 40
7.5
 41
20.0
 42
7.5
 43
20.0
 44
420.0
 45
297.0
 46
0.0
 47
0.0
 48
0.0
 49
0.0
140
0.0
141
0.0
142
1.0
143
1.0
 70
0
 72
1
 73
0
 74
5
  7

 75
16
 76
0
 77
2
 78
300
147
1.0
148
0.0
149
0.0
100
AcDbLayout
  1
Layout1
 70
1
 71
1
 10
0.0
 20
0.0
 11
420.0
 21
297.0
 12
0.0
 22
0.0
 32
0.0
 14
1e+20
 24
1e+20
 34
1e+20
 15
-1e+20
 25
-1e+20
 35
-1e+20
146
0.0
 13
0.0
 23
0.0
 33
0.0
 16
1.0
 26
0.0
 36
0.0
 17
0.0
 27
1.0
 37
0.0
 76
1
330
1B
  0
MATERIAL
  5
1F
102
{ACAD_REACTORS
330
E
102
}
330
E
100
AcDbMaterial
  1
ByBlock
  2

 70
0
 40
1.0
 71
1
 41
1.0
 91
-1023410177
 42
1.0
 72
1
  3

 73
1
 74
1
 75
1
 44
0.5
 73
0
 45
1.0
 46
1.0
 77
1
  4

 78
1
 79
1
170
1
 48
1.0
171
1
  6

172
1
173
1
174
1
140
1.0
141
1.0
175
1
  7

176
1
177
1
178
1
143
1.0
179
1
  8

270
1
271
1
272
1
145
1.0
146
1.0
273
1
  9

274
1
275
1
276
1
 42
1.0
 72
1
  3

 73
1
 74
1
 75
1
 94
63
  0
MATERIAL
  5
20
102
{ACAD_REACTORS
330
E
102
}
330
E
100
AcDbMaterial
  1
ByLayer
  2

 70
0
 40
1.0
 71
1
 41
1.0
 91
-1023410177
 42
1.0
 72
1
  3

 73
1
 74
1
 75
1
 44
0.5
 73
0
 45
1.0
 46
1.0
 77
1
  4

 78
1
 79
1
170
1
 48
1.0
171
1
  6

172
1
173
1
174
1
140
1.0
141
1.0
175
1
  7

176
1
177
1
178
1
143
1.0
179
1
  8

270
1
271
1
272
1
145
1.0
146
1.0
273
1
  9

274
1
275
1
276
1
 42
1.0
 72
1
  3

 73
1
 74
1
 75
1
 94
63
  0
MATERIAL
  5
21
102
{ACAD_REACTORS
330
E
102
}
330
E
100
AcDbMaterial
  1
Global
  2

 70
0
 40
1.0
 71
1
 41
1.0
 91
-1023410177
 42
1.0
 72
1
  3

 73
1
 74
1
 75
1
 44
0.5
 73
0
 45
1.0
 46
1.0
 77
1
  4

 78
1
 79
1
170
1
 48
1.0
171
1
  6

172
1
173
1
174
1
140
1.0
141
1.0
175
1
  7

176
1
177
1
178
1
143
1.0
179
1
  8

270
1
271
1
272
1
145
1.0
146
1.0
273
1
  9

274
1
275
1
276
1
 42
1.0
 72
1
  3

 73
1
 74
1
 75
1
 94
63
  0
MLINESTYLE
  5
22
102
{ACAD_REACTORS
330
10
102
}
330
10
100
AcDbMlineStyle
  2
Standard
 70
0
  3

 62
256
 51
90.0
 52
90.0
 71
2
 49
0.5
 62
256
  6
BYLAYER
 49
-0.5
 62
256
  6
BYLAYER
  0
MLEADERSTYLE
  5
2C
102
{ACAD_REACTORS
330
F
102
}
330
F
100
AcDbMLeaderStyle
179
2
170
2
171
1
172
0
 90
2
 40
0.0
 41
0.0
173
1
 91
-1056964608
 92
-2
290
1
 42
2.0
291
1
 43
8.0
  3
Standard
 44
4.0
300

342
29
174
1
175
1
176
0
178
1
 93
-1056964608
 45
4.0
292
0
297
0
 46
4.0
 94
-1056964608
 47
1.0
 49
1.0
140
1.0
294
1
141
0.0
177
0
142
1.0
295
0
296
0
143
3.75
271
0
272
9
273
9
  0
DICTIONARY
  5
2D
330
A
100
AcDbDictionary
280
1
281
1
  3
CREATED_BY_EZDXF
350
2E
  3
WRITTEN_BY_EZDXF
350
1A4
  0
DICTIONARYVAR
  5
2E
330
2D
100
DictionaryVariables
280
0
  1
1.4.4 @ 2026-10-10T19:09:34.766042+00:00
  0
DICTIONARYVAR
  5
1A4
330
2D
100
DictionaryVariables
280
0
  1
1.4.4 @ 2026-10-10T19:09:34.785907+00:00
  0
ENDSEC
  0
EOF
