  0
SECTION
  2
HEADER
  9
$ACADVER
  1
AC1024
  9
$ACADMAINTVER
 70
6
  9
$DWGCODEPAGE
  3
ANSI_1252
  9
$LASTSAVEDBY
  1
ezdxf
  9
$INSBASE
 10
0.0
 20
0.0
 30
0.0
  9
$EXTMIN
 10
1e+20
 20
1e+20
 30
1e+20
  9
$EXTMAX
 10
-1e+20
 20
-1e+20
 30
-1e+20
  9
$LIMMIN
 10
0.0
 20
0.0
  9
$LIMMAX
 10
420.0
 20
297.0
  9
$ORTHOMODE
 70
0
  9
$REGENMODE
 70
1
  9
$FILLMODE
 70
1
  9
$QTEXTMODE
 70
0
  9
$MIRRTEXT
 70
1
  9
$LTSCALE
 40
1.0
  9
$ATTMODE
 70
1
  9
$TEXTSIZE
 40
2.5
  9
$TRACEWID
 40
1.0
  9
$TEXTSTYLE
  7
Standard
  9
$CLAYER
  8
0
  9
$CELTYPE
  6
ByLayer
  9
$CECOLOR
 62
256
  9
$CELTSCALE
 40
1.0
  9
$DISPSILH
 70
0
  9
$DIMSCALE
 40
1.0
  9
$DIMASZ
 40
2.5
  9
$DIMEXO
 40
0.625
  9
$DIMDLI
 40
3.75
  9
$DIMRND
 40
0.0
  9
$DIMDLE
 40
0.0
  9
$DIMEXE
 40
1.25
  9
$DIMTP
 40
0.0
  9
$DIMTM
 40
0.0
  9
$DIMTXT
 40
2.5
  9
$DIMCEN
 40
2.5
  9
$DIMTSZ
 40
0.0
  9
$DIMTOL
 70
0
  9
$DIMLIM
 70
0
  9
$DIMTIH
 70
0
  9
$DIMTOH
 70
0
  9
$DIMSE1
 70
0
  9
$DIMSE2
 70
0
  9
$DIMTAD
 70
1
  9
$DIMZIN
 70
8
  9
$DIMBLK
  1

  9
$DIMASO
 70
1
  9
$DIMSHO
 70
1
  9
$DIMPOST
  1

  9
$DIMAPOST
  1

  9
$DIMALT
 70
0
  9
$DIMALTD
 70
3
  9
$DIMALTF
 40
0.03937007874
  9
$DIMLFAC
 40
1.0
  9
$DIMTOFL
 70
1
  9
$DIMTVP
 40
0.0
  9
$DIMTIX
 70
0
  9
$DIMSOXD
 70
0
  9
$DIMSAH
 70
0
  9
$DIMBLK1
  1

  9
$DIMBLK2
  1

  9
$DIMSTYLE
  2
ISO-25
  9
$DIMCLRD
 70
0
  9
$DIMCLRE
 70
0
  9
$DIMCLRT
 70
0
  9
$DIMTFAC
 40
1.0
  9
$DIMGAP
 40
0.625
  9
$DIMJUST
 70
0
  9
$DIMSD1
 70
0
  9
$DIMSD2
 70
0
  9
$DIMTOLJ
 70
0
  9
$DIMTZIN
 70
8
  9
$DIMALTZ
 70
0
  9
$DIMALTTZ
 70
0
  9
$DIMUPT
 70
0
  9
$DIMDEC
 70
2
  9
$DIMTDEC
 70
2
  9
$DIMALTU
 70
2
  9
$DIMALTTD
 70
3
  9
$DIMTXSTY
  7
Standard
  9
$DIMAUNIT
 70
0
  9
$DIMADEC
 70
0
  9
$DIMALTRND
 40
0.0
  9
$DIMAZIN
 70
0
  9
$DIMDSEP
 70
44
  9
$DIMATFIT
 70
3
  9
$DIMFRAC
 70
0
  9
$DIMLDRBLK
  1

  9
$DIMLUNIT
 70
2
  9
$DIMLWD
 70
-2
  9
$DIMLWE
 70
-2
  9
$DIMTMOVE
 70
0
  9
$DIMFXL
 40
1.0
  9
$DIMFXLON
 70
0
  9
$DIMJOGANG
 40
0.785398163397
  9
$DIMTFILL
 70
0
  9
$DIMTFILLCLR
 70
0
  9
$DIMARCSYM
 70
0
  9
$DIMLTYPE
  6

  9
$DIMLTEX1
  6

  9
$DIMLTEX2
  6

  9
$DIMTXTDIRECTION
 70
0
  9
$LUNITS
 70
2
  9
$LUPREC
 70
4
  9
$SKETCHINC
 40
1.0
  9
$FILLETRAD
 40
10.0
  9
$AUNITS
 70
0
  9
$AUPREC
 70
2
  9
$MENU
  1
.
  9
$ELEVATION
 40
0.0
  9
$PELEVATION
 40
0.0
  9
$THICKNESS
 40
0.0
  9
$LIMCHECK
 70
0
  9
$CHAMFERA
 40
0.0
  9
$CHAMFERB
 40
0.0
  9
$CHAMFERC
 40
0.0
  9
$CHAMFERD
 40
0.0
  9
$SKPOLY
 70
0
  9
$TDCREATE
 40
2461324.0048842593
  9
$TDUCREATE
 40
2458532.153996898
  9
$TDUPDATE
 40
2461324.0048842593
  9
$TDUUPDATE
 40
2458532.1544311
  9
$TDINDWG
 40
0.0
  9
$TDUSRTIMER
 40
0.0
  9
$USRTIMER
 70
1
  9
$ANGBASE
 50
0.0
  9
$ANGDIR
 70
0
  9
$PDMODE
 70
0
  9
$PDSIZE
 40
0.0
  9
$PLINEWID
 40
0.0
  9
$SPLFRAME
 70
0
  9
$SPLINETYPE
 70
6
  9
$SPLINESEGS
 70
8
  9
$HANDSEED
  5
1A5
  9
$SURFTAB1
 70
6
  9
$SURFTAB2
 70
6
  9
$SURFTYPE
 70
6
  9
$SURFU
 70
6
  9
$SURFV
 70
6
  9
$UCSBASE
  2

  9
$UCSNAME
  2

  9
$UCSORG
 10
0.0
 20
0.0
 30
0.0
  9
$UCSXDIR
 10
1.0
 20
0.0
 30
0.0
  9
$UCSYDIR
 10
0.0
 20
1.0
 30
0.0
  9
$UCSORTHOREF
  2

  9
$UCSORTHOVIEW
 70
0
  9
$UCSORGTOP
 10
0.0
 20
0.0
 30
0.0
  9
$UCSORGBOTTOM
 10
0.0
 20
0.0
 30
0.0
  9
$UCSORGLEFT
 10
0.0
 20
0.0
 30
0.0
  9
$UCSORGRIGHT
 10
0.0
 20
0.0
 30
0.0
  9
$UCSORGFRONT
 10
0.0
 20
0.0
 30
0.0
  9
$UCSORGBACK
 10
0.0
 20
0.0
 30
0.0
  9
$PUCSBASE
  2

  9
$PUCSNAME
  2

  9
$PUCSORG
 10
0.0
 20
0.0
 30
0.0
  9
$PUCSXDIR
 10
1.0
 20
0.0
 30
0.0
  9
$PUCSYDIR
 10
0.0
 20
1.0
 30
0.0
  9
$PUCSORTHOREF
  2

  9
$PUCSORTHOVIEW
 70
0
  9
$PUCSORGTOP
 10
0.0
 20
0.0
 30
0.0
  9
$PUCSORGBOTTOM
 10
0.0
 20
0.0
 30
0.0
  9
$PUCSORGLEFT
 10
0.0
 20
0.0
 30
0.0
  9
$PUCSORGRIGHT
 10
0.0
 20
0.0
 30
0.0
  9
$PUCSORGFRONT
 10
0.0
 20
0.0
 30
0.0
  9
$PUCSORGBACK
 10
0.0
 20
0.0
 30
0.0
  9
$USERI1
 70
0
  9
$USERI2
 70
0
  9
$USERI3
 70
0
  9
$USERI4
 70
0
  9
$USERI5
 70
0
  9
$USERR1
 40
0.0
  9
$USERR2
 40
0.0
  9
$USERR3
 40
0.0
  9
$USERR4
 40
0.0
  9
$USERR5
 40
0.0
  9
$WORLDVIEW
 70
1
  9
$SHADEDGE
 70
3
  9
$SHADEDIF
 70
70
  9
$TILEMODE
 70
1
  9
$MAXACTVP
 70
64
  9
$PINSBASE
 10
0.0
 20
0.0
 30
0.0
  9
$PLIMCHECK
 70
0
  9
$PEXTMIN
 10
1e+20
 20
1e+20
 30
1e+20
  9
$PEXTMAX
 10
-1e+20
 20
-1e+20
 30
-1e+20
  9
$PLIMMIN
 10
0.0
 20
0.0
  9
$PLIMMAX
 10
420.0
 20
297.0
  9
$UNITMODE
 70
0
  9
$VISRETAIN
 70
1
  9
$PLINEGEN
 70
0
  9
$PSLTSCALE
 70
1
  9
$TREEDEPTH
 70
3020
  9
$CMLSTYLE
  2
Standard
  9
$CMLJUST
 70
0
  9
$CMLSCALE
 40
20.0
  9
$PROXYGRAPHICS
 70
1
  9
$MEASUREMENT
 70
1
  9
$CELWEIGHT
370
-1
  9
$ENDCAPS
280
0
  9
$JOINSTYLE
280
0
  9
$LWDISPLAY
290
0
  9
$INSUNITS
 70
4
  9
$HYPERLINKBASE
  1

  9
$STYLESHEET
  1

  9
$XEDIT
290
1
  9
$CEPSNTYPE
380
0
  9
$PSTYLEMODE
290
1
  9
$FINGERPRINTGUID
  2
{1E50EFBA-2FB0-44B2-A5E9-45F455F007AC}
  9
$VERSIONGUID
  2
{D261BB37-2231-4C7B-A784-2CE70EE9F1AB}
  9
$EXTNAMES
290
1
  9
$PSVPSCALE
 40
0.0
  9
$OLESTARTUP
290
0
  9
$SORTENTS
280
127
  9
$INDEXCTL
280
0
  9
$HIDETEXT
280
1
  9
$XCLIPFRAME
280
1
  9
$HALOGAP
280
0
  9
$OBSCOLOR
 70
257
  9
$OBSLTYPE
280
0
  9
$INTERSECTIONDISPLAY
280
0
  9
$INTERSECTIONCOLOR
 70
257
  9
$DIMASSOC
280
2
  9
$PROJECTNAME
  1

  9
$CAMERADISPLAY
290
0
  9
$LENSLENGTH
 40
50.0
  9
$CAMERAHEIGHT
 40
0.0
  9
$STEPSPERSEC
 40
24.0
  9
$STEPSIZE
 40
100.0
  9
$3DDWFPREC
 40
2.0
  9
$PSOLWIDTH
 40
0.005
  9
$PSOLHEIGHT
 40
0.08
  9
$LOFTANG1
 40
1.570796326795
  9
$LOFTANG2
 40
1.570796326795
  9
$LOFTMAG1
 40
0.0
  9
$LOFTMAG2
 40
0.0
  9
$LOFTPARAM
 70
7
  9
$LOFTNORMALS
280
1
  9
$LATITUDE
 40
37.795
  9
$LONGITUDE
 40
-122.394
  9
$NORTHDIRECTION
 40
0.0
  9
$TIMEZONE
 70
-8000
  9
$LIGHTGLYPHDISPLAY
280
1
  9
$TILEMODELIGHTSYNCH
280
1
  9
$CMATERIAL
347
20
  9
$SOLIDHIST
280
0
  9
$SHOWHIST
280
1
  9
$DWFFRAME
280
2
  9
$DGNFRAME
280
2
  9
$REALWORLDSCALE
290
1
  9
$INTERFERECOLOR
 62
256
  9
$CSHADOW
280
0
  9
$SHADOWPLANELOCATION
 40
0.0
  0
ENDSEC
  0
SECTION
  2
CLASSES
  0
CLASS
  1
ACDBDICTIONARYWDFLT
  2
AcDbDictionaryWithDefault
  3
ObjectDBX Classes
 90
0
 91
0
280
0
281
0
  0
CLASS
  1
SUN
  2
AcDbSun
  3
SCENEOE
 90
1153
 91
0
280
0
281
0
  0
CLASS
  1
VISUALSTYLE
  2
AcDbVisualStyle
  3
ObjectDBX Classes
 90
4095
 91
0
280
0
281
0
  0
CLASS
  1
MATERIAL
  2
AcDbMaterial
  3
ObjectDBX Classes
 90
1153
 91
0
280
0
281
0
  0
CLASS
  1
SCALE
  2
AcDbScale
  3
ObjectDBX Classes
 90
1153
 91
0
280
0
281
0
  0
CLASS
  1
TABLESTYLE
  2
AcDbTableStyle
  3
ObjectDBX Classes
 90
4095
 91
0
280
0
281
0
  0
CLASS
  1
MLEADERSTYLE
  2
AcDbMLeaderStyle
  3
ACDB_MLEADERSTYLE_CLASS
 90
4095
 91
0
280
0
281
0
  0
CLASS
  1
DICTIONARYVAR
  2
AcDbDictionaryVar
  3
ObjectDBX Classes
 90
0
 91
0
280
0
281
0
  0
CLASS
  1
CELLSTYLEMAP
  2
AcDbCellStyleMap
  3
ObjectDBX Classes
 90
1152
 91
0
280
0
281
0
  0
CLASS
  1
MENTALRAYRENDERSETTINGS
  2
AcDbMentalRayRenderSettings
  3
SCENEOE
 90
1024
 91
0
280
0
281
0
  0
CLASS
  1
ACDBDETAILVIEWSTYLE
  2
AcDbDetailViewStyle
  3
ObjectDBX Classes
 90
1025
 91
0
280
0
281
0
  0
CLASS
  1
ACDBSECTIONVIEWSTYLE
  2
AcDbSectionViewStyle
  3
ObjectDBX Classes
 90
1025
 91
0
280
0
281
0
  0
CLASS
  1
RASTERVARIABLES
  2
AcDbRasterVariables
  3
ISM
 90
0
 91
0
280
0
281
0
  0
CLASS
  1
ACDBPLACEHOLDER
  2
AcDbPlaceHolder
  3
ObjectDBX Classes
 90
0
 91
0
280
0
281
0
  0
CLASS
  1
LAYOUT
  2
AcDbLayout
  3
ObjectDBX Classes
 90
0
 91
0
280
0
281
0
  0
ENDSEC
  0
SECTION
  2
TABLES
  0
TABLE
  2
VPORT
  5
8
330
0
100
AcDbSymbolTable
 70
1
  0
VPORT
  5
23
330
8
100
AcDbSymbolTableRecord
100
AcDbViewportTableRecord
  2
*Active
 70
0
 10
0.0
 20
0.0
 11
1.0
 21
1.0
 12
0.0
 22
0.0
 13
0.0
 23
0.0
 14
0.5
 24
0.5
 15
0.5
 25
0.5
 16
0.0
 26
0.0
 36
1.0
 17
0.0
 27
0.0
 37
0.0
 40
1000.0
 41
1.34
 42
50.0
 43
0.0
 44
0.0
 50
0.0
 51
0.0
 71
0
 72
1000
 73
1
 74
3
 75
0
 76
0
 77
0
 78
0
281
0
 65
0
146
0.0
  0
ENDTAB
  0
TABLE
  2
LTYPE
  5
2
330
0
100
AcDbSymbolTable
 70
3
  0
LTYPE
  5
24
330
2
100
AcDbSymbolTableRecord
100
AcDbLinetypeTableRecord
  2
ByBlock
 70
0
  3

 72
65
 73
0
 40
0.0
  0
LTYPE
  5
25
330
2
100
AcDbSymbolTableRecord
100
AcDbLinetypeTableRecord
  2
ByLayer
 70
0
  3

 72
65
 73
0
 40
0.0
  0
LTYPE
  5
26
330
2
100
AcDbSymbolTableRecord
100
AcDbLinetypeTableRecord
  2
Continuous
 70
0
  3

 72
65
 73
0
 40
0.0
  0
ENDTAB
  0
TABLE
  2
LAYER
  5
1
330
0
100
AcDbSymbolTable
 70
10
  0
LAYER
  5
27
330
1
100
AcDbSymbolTableRecord
100
AcDbLayerTableRecord
  2
0
 70
0
 62
7
  6
Continuous
370
-3
390
13
347
21
  0
LAYER
  5
28
330
1
100
AcDbSymbolTableRecord
100
AcDbLayerTableRecord
  2
Defpoints
 70
0
 62
7
  6
Continuous
290
0
370
-3
390
13
347
21
  0
LAYER
  5
2F
330
1
100
AcDbSymbolTableRecord
100
AcDbLayerTableRecord
  2
OUTSIDE_THROUGH
 70
0
 62
7
  6
Continuous
370
-3
390
13
347
21
  0
LAYER
  5
31
330
1
100
AcDbSymbolTableRecord
100
AcDbLayerTableRecord
  2
INSIDE_THROUGH
 70
0
 62
7
  6
Continuous
370
-3
390
13
347
21
  0
LAYER
  5
32
330
1
100
AcDbSymbolTableRecord
100
AcDbLayerTableRecord
  2
EDGE_BANDING
 70
0
 62
7
  6
Continuous
370
-3
390
13
347
21
  0
LAYER
  5
33
330
1
100
AcDbSymbolTableRecord
100
AcDbLayerTableRecord
  2
GRAIN_DIRECTION
 70
0
 62
3
  6
Continuous
370
-3
390
13
347
21
  0
LAYER
  5
70
330
1
100
AcDbSymbolTableRecord
100
AcDbLayerTableRecord
  2
A_SIDE_GROOVE_5.5
 70
0
 62
7
  6
Continuous
370
-3
390
13
347
21
  0
LAYER
  5
123
330
1
100
AcDbSymbolTableRecord
100
AcDbLayerTableRecord
  2
B_SIDE_GROOVE_5.5
 70
0
 62
7
  6
Continuous
370
-3
390
13
347
21
  0
LAYER
  5
184
330
1
100
AcDbSymbolTableRecord
100
AcDbLayerTableRecord
  2
SHEET_BOUNDARY
 70
0
 62
8
  6
Continuous
290
0
370
-3
390
13
347
21
  0
LAYER
  5
185
330
1
100
AcDbSymbolTableRecord
100
AcDbLayerTableRecord
  2
PART_LABELS
 70
0
 62
3
  6
Continuous
290
0
370
-3
390
13
347
21
  0
ENDTAB
  0
TABLE
  2
STYLE
  5
5
330
0
100
AcDbSymbolTable
 70
1
  0
STYLE
  5
29
330
5
100
AcDbSymbolTableRecord
100
AcDbTextStyleTableRecord
  2
Standard
 70
0
 40
0.0
 41
1.0
 50
0.0
 71
0
 42
2.5
  3
txt
  4

  0
ENDTAB
  0
TABLE
  2
VIEW
  5
7
330
0
100
AcDbSymbolTable
 70
0
  0
ENDTAB
  0
TABLE
  2
UCS
  5
6
330
0
100
AcDbSymbolTable
 70
0
  0
ENDTAB
  0
TABLE
  2
APPID
  5
3
330
0
100
AcDbSymbolTable
 70
3
  0
APPID
  5
2A
330
3
100
AcDbSymbolTableRecord
100
AcDbRegAppTableRecord
  2
ACAD
 70
0
  0
APPID
  5
1A2
330
3
100
AcDbSymbolTableRecord
100
AcDbRegAppTableRecord
  2
HATCHBACKGROUNDCOLOR
 70
0
  0
APPID
  5
1A3
330
3
100
AcDbSymbolTableRecord
100
AcDbRegAppTableRecord
  2
EZDXF
 70
0
  0
ENDTAB
  0
TABLE
  2
DIMSTYLE
  5
4
330
0
100
AcDbSymbolTable
 70
1
100
AcDbDimStyleTable
  0
DIMSTYLE
105
2B
330
4
100
AcDbSymbolTableRecord
100
AcDbDimStyleTableRecord
  2
Standard
 70
0
 40
1.0
 41
2.5
 42
0.625
 43
3.75
 44
1.25
 45
0.0
 46
0.0
 47
0.0
 48
0.0
 49
2.5
140
2.5
141
2.5
142
0.0
143
0.03937007874
144
1.0
145
0.0
146
1.0
147
0.625
148
0.0
 69
0
 70
0
 71
0
 72
0
 73
0
 74
0
 75
0
 76
0
 77
1
 78
8
 79
3
170
0
171
3
172
1
173
0
174
0
175
0
176
0
177
0
178
0
179
2
271
2
272
2
273
2
274
3
275
0
276
0
277
2
278
44
279
0
280
0
281
0
282
0
283
0
284
8
285
0
286
0
288
0
289
3
290
0
371
-2
372
-2
  0
ENDTAB
  0
TABLE
  2
BLOCK_RECORD
  5
9
330
0
100
AcDbSymbolTable
 70
2
  0
BLOCK_RECORD
  5
17
330
9
100
AcDbSymbolTableRecord
100
AcDbBlockTableRecord
  2
*Model_Space
340
1A
 70
0
280
1
281
0
  0
BLOCK_RECORD
  5
1B
330
9
100
AcDbSymbolTableRecord
100
AcDbBlockTableRecord
  2
*Paper_Space
340
1E
 70
0
280
1
281
0
  0
ENDTAB
  0
ENDSEC
  0
SECTION
  2
BLOCKS
  0
BLOCK
  5
18
330
17
100
AcDbEntity
  8
0
100
AcDbBlockBegin
  2
*Model_Space
 70
0
 10
0.0
 20
0.0
 30
0.0
  3
*Model_Space
  1

  0
ENDBLK
  5
19
330
17
100
AcDbEntity
  8
0
100
AcDbBlockEnd
  0
BLOCK
  5
1C
330
1B
100
AcDbEntity
  8
0
100
AcDbBlockBegin
  2
*Paper_Space
 70
0
 10
0.0
 20
0.0
 30
0.0
  3
*Paper_Space
  1

  0
ENDBLK
  5
1D
330
1B
100
AcDbEntity
  8
0
100
AcDbBlockEnd
  0
ENDSEC
  0
SECTION
  2
ENTITIES
  0
LWPOLYLINE
  5
34
330
17
100
AcDbEntity
  8
OUTSIDE_THROUGH
100
AcDbPolyline
 90
4
 70
1
 10
0.0
 20
0.0
 10
1183.0
 20
0.0
 10
1183.0
 20
547.0
 10
0.0
 20
547.0
  0
CIRCLE
  5
35
330
17
100
AcDbEntity
  8
INSIDE_THROUGH
100
AcDbCircle
 10
5.0
 20
62.56000000000003
 30
0.0
 40
1.6
  0
CIRCLE
  5
36
330
17
100
AcDbEntity
  8
INSIDE_THROUGH
100
AcDbCircle
 10
5.0
 20
209.36
 30
0.0
 40
1.6
  0
CIRCLE
  5
37
330
17
100
AcDbEntity
  8
INSIDE_THROUGH
100
AcDbCircle
 10
5.0
 20
356.15999999999997
 30
0.0
 40
1.6
  0
CIRCLE
  5
38
330
17
100
AcDbEntity
  8
INSIDE_THROUGH
100
AcDbCircle
 10
5.0
 20
502.9599999999999
 30
0.0
 40
1.6
  0
CIRCLE
  5
39
330
17
100
AcDbEntity
  8
INSIDE_THROUGH
100
AcDbCircle
 10
1178.0
 20
62.56000000000003
 30
0.0
 40
1.6
  0
CIRCLE
  5
3A
330
17
100
AcDbEntity
  8
INSIDE_THROUGH
100
AcDbCircle
 10
1178.0
 20
209.36
 30
0.0
 40
1.6
  0
CIRCLE
  5
3B
330
17
100
AcDbEntity
  8
INSIDE_THROUGH
100
AcDbCircle
 10
1178.0
 20
356.15999999999997
 30
0.0
 40
1.6
  0
CIRCLE
  5
3C
330
17
100
AcDbEntity
  8
INSIDE_THROUGH
100
AcDbCircle
 10
1178.0
 20
502.9599999999999
 30
0.0
 40
1.6
  0
CIRCLE
  5
3D
330
17
100
AcDbEntity
  8
INSIDE_THROUGH
100
AcDbCircle
 10
59.150000000000006
 20
6.5
 30
0.0
 40
1.6
  0
CIRCLE
  5
3E
330
17
100
AcDbEntity
  8
INSIDE_THROUGH
100
AcDbCircle
 10
236.60000000000002
 20
6.5
 30
0.0
 40
1.6
  0
CIRCLE
  5
3F
330
17
100
AcDbEntity
  8
INSIDE_THROUGH
100
AcDbCircle
 10
414.04999999999995
 20
6.5
 30
0.0
 40
1.6
  0
CIRCLE
  5
40
330
17
100
AcDbEntity
  8
INSIDE_THROUGH
100
AcDbCircle
 10
591.5
 20
6.5
 30
0.0
 40
1.6
  0
CIRCLE
  5
41
330
17
100
AcDbEntity
  8
INSIDE_THROUGH
100
AcDbCircle
 10
768.95
 20
6.5
 30
0.0
 40
1.6
  0
CIRCLE
  5
42
330
17
100
AcDbEntity
  8
INSIDE_THROUGH
100
AcDbCircle
 10
946.4000000000001
 20
6.5
 30
0.0
 40
1.6
  0
CIRCLE
  5
43
330
17
100
AcDbEntity
  8
INSIDE_THROUGH
100
AcDbCircle
 10
1123.85
 20
6.5
 30
0.0
 40
1.6
  0
LINE
  5
44
330
17
100
AcDbEntity
  8
EDGE_BANDING
100
AcDbLine
 10
0.0
 20
0.0
 30
0.0
 11
1183.0
 21
0.0
 31
0.0
  0
LINE
  5
45
330
17
100
AcDbEntity
  8
EDGE_BANDING
100
AcDbLine
 10
0.0
 20
547.0
 30
0.0
 11
1183.0
 21
547.0
 31
0.0
  0
LINE
  5
46
330
17
100
AcDbEntity
  8
GRAIN_DIRECTION
100
AcDbLine
 10
354.9
 20
273.5
 30
0.0
 11
828.0999999999999
 21
273.5
 31
0.0
  0
LINE
  5
47
330
17
100
AcDbEntity
  8
GRAIN_DIRECTION
100
AcDbLine
 10
813.0999999999999
 20
266.0
 30
0.0
 11
828.0999999999999
 21
273.5
 31
0.0
  0
LINE
  5
48
330
17
100
AcDbEntity
  8
GRAIN_DIRECTION
100
AcDbLine
 10
813.0999999999999
 20
281.0
 30
0.0
 11
828.0999999999999
 21
273.5
 31
0.0
  0
LWPOLYLINE
  5
4E
330
17
100
AcDbEntity
  8
OUTSIDE_THROUGH
100
AcDbPolyline
 90
4
 70
1
 10
1185.0
 20
0.0
 10
2368.0
 20
0.0
 10
2368.0
 20
287.0
 10
1185.0
 20
287.0
  0
CIRCLE
  5
4F
330
17
100
AcDbEntity
  8
INSIDE_THROUGH
100
AcDbCircle
 10
1190.0
 20
52.8
 30
0.0
 40
1.6
  0
CIRCLE
  5
50
330
17
100
AcDbEntity
  8
INSIDE_THROUGH
100
AcDbCircle
 10
1190.0
 20
151.5
 30
0.0
 40
1.6
  0
CIRCLE
  5
51
330
17
100
AcDbEntity
  8
INSIDE_THROUGH
100
AcDbCircle
 10
1190.0
 20
250.2
 30
0.0
 40
1.6
  0
CIRCLE
  5
52
330
17
100
AcDbEntity
  8
INSIDE_THROUGH
100
AcDbCircle
 10
2363.0
 20
250.2
 30
0.0
 40
1.6
  0
CIRCLE
  5
53
330
17
100
AcDbEntity
  8
INSIDE_THROUGH
100
AcDbCircle
 10
2363.0
 20
151.5
 30
0.0
 40
1.6
  0
CIRCLE
  5
54
330
17
100
AcDbEntity
  8
INSIDE_THROUGH
100
AcDbCircle
 10
2363.0
 20
19.899999999999977
 30
0.0
 40
1.6
  0
LINE
  5
55
330
17
100
AcDbEntity
  8
EDGE_BANDING
100
AcDbLine
 10
1185.0
 20
287.0
 30
0.0
 11
2368.0
 21
287.0
 31
0.0
  0
LINE
  5
56
330
17
100
AcDbEntity
  8
GRAIN_DIRECTION
100
AcDbLine
 10
1539.9
 20
143.5
 30
0.0
 11
2013.1
 21
143.5
 31
0.0
  0
LINE
  5
57
330
17
100
AcDbEntity
  8
GRAIN_DIRECTION
100
AcDbLine
 10
1998.1
 20
136.0
 30
0.0
 11
2013.1
 21
143.5
 31
0.0
  0
LINE
  5
58
330
17
100
AcDbEntity
  8
GRAIN_DIRECTION
100
AcDbLine
 10
1998.1
 20
151.0
 30
0.0
 11
2013.1
 21
143.5
 31
0.0
  0
LWPOLYLINE
  5
5E
330
17
100
AcDbEntity
  8
OUTSIDE_THROUGH
100
AcDbPolyline
 90
4
 70
1
 10
1185.0
 20
289.0
 10
2368.0
 20
289.0
 10
2368.0
 20
461.0
 10
1185.0
 20
461.0
  0
CIRCLE
  5
5F
330
17
100
AcDbEntity
  8
INSIDE_THROUGH
100
AcDbCircle
 10
1190.0
 20
319.72
 30
0.0
 40
1.6
  0
CIRCLE
  5
60
330
17
100
AcDbEntity
  8
INSIDE_THROUGH
100
AcDbCircle
 10
1190.0
 20
407.8
 30
0.0
 40
1.6
  0
CIRCLE
  5
61
330
17
100
AcDbEntity
  8
INSIDE_THROUGH
100
AcDbCircle
 10
2363.0
 20
319.72
 30
0.0
 40
1.6
  0
CIRCLE
  5
62
330
17
100
AcDbEntity
  8
INSIDE_THROUGH
100
AcDbCircle
 10
2363.0
 20
407.8
 30
0.0
 40
1.6
  0
CIRCLE
  5
63
330
17
100
AcDbEntity
  8
INSIDE_THROUGH
100
AcDbCircle
 10
1244.15
 20
454.5
 30
0.0
 40
1.6
  0
CIRCLE
  5
64
330
17
100
AcDbEntity
  8
INSIDE_THROUGH
100
AcDbCircle
 10
1421.6
 20
454.5
 30
0.0
 40
1.6
  0
CIRCLE
  5
65
330
17
100
AcDbEntity
  8
INSIDE_THROUGH
100
AcDbCircle
 10
1599.05
 20
454.5
 30
0.0
 40
1.6
  0
CIRCLE
  5
66
330
17
100
AcDbEntity
  8
INSIDE_THROUGH
100
AcDbCircle
 10
1776.5
 20
454.5
 30
0.0
 40
1.6
  0
CIRCLE
  5
67
330
17
100
AcDbEntity
  8
INSIDE_THROUGH
100
AcDbCircle
 10
1953.95
 20
454.5
 30
0.0
 40
1.6
  0
CIRCLE
  5
68
330
17
100
AcDbEntity
  8
INSIDE_THROUGH
100
AcDbCircle
 10
2131.4
 20
454.5
 30
0.0
 40
1.6
  0
CIRCLE
  5
69
330
17
100
AcDbEntity
  8
INSIDE_THROUGH
100
AcDbCircle
 10
2308.85
 20
454.5
 30
0.0
 40
1.6
  0
LINE
  5
6A
330
17
100
AcDbEntity
  8
EDGE_BANDING
100
AcDbLine
 10
1185.0
 20
461.0
 30
0.0
 11
2368.0
 21
461.0
 31
0.0
  0
LINE
  5
6B
330
17
100
AcDbEntity
  8
GRAIN_DIRECTION
100
AcDbLine
 10
1539.9
 20
375.0
 30
0.0
 11
2013.1
 21
375.0
 31
0.0
  0
LINE
  5
6C
330
17
100
AcDbEntity
  8
GRAIN_DIRECTION
100
AcDbLine
 10
1998.1
 20
367.5
 30
0.0
 11
2013.1
 21
375.0
 31
0.0
  0
LINE
  5
6D
330
17
100
AcDbEntity
  8
GRAIN_DIRECTION
100
AcDbLine
 10
1998.1
 20
382.5
 30
0.0
 11
2013.1
 21
375.0
 31
0.0
  0
LWPOLYLINE
  5
73
330
17
100
AcDbEntity
  8
OUTSIDE_THROUGH
100
AcDbPolyline
 90
8
 70
1
 10
1262.01
 20
477.5
 10
1262.01
 20
463.0
 10
2233.01
 20
463.0
 10
2233.01
 20
477.5
 10
2308.01
 20
477.5
 10
2308.01
 20
636.0
 10
1187.01
 20
636.0
 10
1187.01
 20
477.5
  0
LWPOLYLINE
  5
74
330
17
100
AcDbEntity
  8
A_SIDE_GROOVE_5.5
100
AcDbPolyline
 90
8
 70
1
 10
1187.0
 20
477.5
 10
2308.02
 20
477.5
 42
0.4142135623730951
 10
2310.02
 20
479.5
 10
2310.02
 20
483.0
 42
0.4142135623730951
 10
2308.02
 20
485.0
 10
1187.0
 20
485.0
 42
0.4142135623730951
 10
1185.0
 20
483.0
 10
1185.0
 20
479.5
 42
0.4142135623730951
  0
LINE
  5
75
330
17
100
AcDbEntity
  8
EDGE_BANDING
100
AcDbLine
 10
1262.01
 20
463.0
 30
0.0
 11
2233.01
 21
463.0
 31
0.0
  0
LINE
  5
76
330
17
100
AcDbEntity
  8
EDGE_BANDING
100
AcDbLine
 10
1187.01
 20
636.0
 30
0.0
 11
2308.01
 21
636.0
 31
0.0
  0
LINE
  5
77
330
17
100
AcDbEntity
  8
GRAIN_DIRECTION
100
AcDbLine
 10
1523.31
 20
549.5
 30
0.0
 11
1971.71
 21
549.5
 31
0.0
  0
LINE
  5
78
330
17
100
AcDbEntity
  8
GRAIN_DIRECTION
100
AcDbLine
 10
1956.71
 20
542.0
 30
0.0
 11
1971.71
 21
549.5
 31
0.0
  0
LINE
  5
79
330
17
100
AcDbEntity
  8
GRAIN_DIRECTION
100
AcDbLine
 10
1956.71
 20
557.0
 30
0.0
 11
1971.71
 21
549.5
 31
0.0
  0
LWPOLYLINE
  5
7F
330
17
100
AcDbEntity
  8
OUTSIDE_THROUGH
100
AcDbPolyline
 90
8
 70
1
 10
77.01
 20
563.5
 10
77.01
 20
549.0
 10
1048.01
 20
549.0
 10
1048.01
 20
563.5
 10
1123.01
 20
563.5
 10
1123.01
 20
722.0
 10
2.01
 20
722.0
 10
2.01
 20
563.5
  0
LWPOLYLINE
  5
80
330
17
100
AcDbEntity
  8
A_SIDE_GROOVE_5.5
100
AcDbPolyline
 90
8
 70
1
 10
2.0
 20
563.5
 10
1123.02
 20
563.5
 42
0.4142135623730951
 10
1125.02
 20
565.5
 10
1125.02
 20
569.0
 42
0.4142135623730951
 10
1123.02
 20
571.0
 10
2.0
 20
571.0
 42
0.4142135623730951
 10
0.0
 20
569.0
 10
0.0
 20
565.5
 42
0.4142135623730951
  0
LINE
  5
81
330
17
100
AcDbEntity
  8
EDGE_BANDING
100
AcDbLine
 10
77.01
 20
549.0
 30
0.0
 11
1048.01
 21
549.0
 31
0.0
  0
LINE
  5
82
330
17
100
AcDbEntity
  8
EDGE_BANDING
100
AcDbLine
 10
2.01
 20
722.0
 30
0.0
 11
1123.01
 21
722.0
 31
0.0
  0
LINE
  5
83
330
17
100
AcDbEntity
  8
GRAIN_DIRECTION
100
AcDbLine
 10
338.31
 20
635.5
 30
0.0
 11
786.7099999999999
 21
635.5
 31
0.0
  0
LINE
  5
84
330
17
100
AcDbEntity
  8
GRAIN_DIRECTION
100
AcDbLine
 10
771.7099999999999
 20
628.0
 30
0.0
 11
786.7099999999999
 21
635.5
 31
0.0
  0
LINE
  5
85
330
17
100
AcDbEntity
  8
GRAIN_DIRECTION
100
AcDbLine
 10
771.7099999999999
 20
643.0
 30
0.0
 11
786.7099999999999
 21
635.5
 31
0.0
  0
LWPOLYLINE
  5
8B
330
17
100
AcDbEntity
  8
OUTSIDE_THROUGH
100
AcDbPolyline
 90
4
 70
1
 10
0.0
 20
724.0
 10
590.0
 20
724.0
 10
590.0
 20
901.0
 10
0.0
 20
901.0
  0
LWPOLYLINE
  5
8C
330
17
100
AcDbEntity
  8
A_SIDE_GROOVE_5.5
100
AcDbPolyline
 90
8
 70
1
 10
8.0
 20
738.5
 10
582.0
 20
738.5
 42
0.4142135623730951
 10
584.0
 20
740.5
 10
584.0
 20
744.0
 42
0.4142135623730951
 10
582.0
 20
746.0
 10
8.0
 20
746.0
 42
0.4142135623730951
 10
6.0
 20
744.0
 10
6.0
 20
740.5
 42
0.4142135623730951
  0
LINE
  5
8D
330
17
100
AcDbEntity
  8
EDGE_BANDING
100
AcDbLine
 10
0.0
 20
724.0
 30
0.0
 11
590.0
 21
724.0
 31
0.0
  0
LINE
  5
8E
330
17
100
AcDbEntity
  8
EDGE_BANDING
100
AcDbLine
 10
0.0
 20
901.0
 30
0.0
 11
590.0
 21
901.0
 31
0.0
  0
LINE
  5
8F
330
17
100
AcDbEntity
  8
EDGE_BANDING
100
AcDbLine
 10
0.0
 20
724.0
 30
0.0
 11
0.0
 21
901.0
 31
0.0
  0
LINE
  5
90
330
17
100
AcDbEntity
  8
GRAIN_DIRECTION
100
AcDbLine
 10
177.0
 20
812.5
 30
0.0
 11
413.0
 21
812.5
 31
0.0
  0
LINE
  5
91
330
17
100
AcDbEntity
  8
GRAIN_DIRECTION
100
AcDbLine
 10
398.0
 20
805.0
 30
0.0
 11
413.0
 21
812.5
 31
0.0
  0
LINE
  5
92
330
17
100
AcDbEntity
  8
GRAIN_DIRECTION
100
AcDbLine
 10
398.0
 20
820.0
 30
0.0
 11
413.0
 21
812.5
 31
0.0
  0
LWPOLYLINE
  5
98
330
17
100
AcDbEntity
  8
OUTSIDE_THROUGH
100
AcDbPolyline
 90
4
 70
1
 10
0.0
 20
903.0
 10
590.0
 20
903.0
 10
590.0
 20
1080.0
 10
0.0
 20
1080.0
  0
LWPOLYLINE
  5
99
330
17
100
AcDbEntity
  8
A_SIDE_GROOVE_5.5
100
AcDbPolyline
 90
8
 70
1
 10
8.0
 20
917.5
 10
582.0
 20
917.5
 42
0.4142135623730951
 10
584.0
 20
919.5
 10
584.0
 20
923.0
 42
0.4142135623730951
 10
582.0
 20
925.0
 10
8.0
 20
925.0
 42
0.4142135623730951
 10
6.0
 20
923.0
 10
6.0
 20
919.5
 42
0.4142135623730951
  0
LINE
  5
9A
330
17
100
AcDbEntity
  8
EDGE_BANDING
100
AcDbLine
 10
0.0
 20
903.0
 30
0.0
 11
590.0
 21
903.0
 31
0.0
  0
LINE
  5
9B
330
17
100
AcDbEntity
  8
EDGE_BANDING
100
AcDbLine
 10
0.0
 20
1080.0
 30
0.0
 11
590.0
 21
1080.0
 31
0.0
  0
LINE
  5
9C
330
17
100
AcDbEntity
  8
EDGE_BANDING
100
AcDbLine
 10
590.0
 20
903.0
 30
0.0
 11
590.0
 21
1080.0
 31
0.0
  0
LINE
  5
9D
330
17
100
AcDbEntity
  8
GRAIN_DIRECTION
100
AcDbLine
 10
177.0
 20
991.5
 30
0.0
 11
413.0
 21
991.5
 31
0.0
  0
LINE
  5
9E
330
17
100
AcDbEntity
  8
GRAIN_DIRECTION
100
AcDbLine
 10
398.0
 20
984.0
 30
0.0
 11
413.0
 21
991.5
 31
0.0
  0
LINE
  5
9F
330
17
100
AcDbEntity
  8
GRAIN_DIRECTION
100
AcDbLine
 10
398.0
 20
999.0
 30
0.0
 11
413.0
 21
991.5
 31
0.0
  0
LWPOLYLINE
  5
A5
330
17
100
AcDbEntity
  8
OUTSIDE_THROUGH
100
AcDbPolyline
 90
4
 70
1
 10
592.0
 20
724.0
 10
1182.0
 20
724.0
 10
1182.0
 20
901.0
 10
592.0
 20
901.0
  0
LWPOLYLINE
  5
A6
330
17
100
AcDbEntity
  8
A_SIDE_GROOVE_5.5
100
AcDbPolyline
 90
8
 70
1
 10
600.0
 20
738.5
 10
1174.0
 20
738.5
 42
0.4142135623730951
 10
1176.0
 20
740.5
 10
1176.0
 20
744.0
 42
0.4142135623730951
 10
1174.0
 20
746.0
 10
600.0
 20
746.0
 42
0.4142135623730951
 10
598.0
 20
744.0
 10
598.0
 20
740.5
 42
0.4142135623730951
  0
LINE
  5
A7
330
17
100
AcDbEntity
  8
EDGE_BANDING
100
AcDbLine
 10
592.0
 20
724.0
 30
0.0
 11
1182.0
 21
724.0
 31
0.0
  0
LINE
  5
A8
330
17
100
AcDbEntity
  8
EDGE_BANDING
100
AcDbLine
 10
592.0
 20
901.0
 30
0.0
 11
1182.0
 21
901.0
 31
0.0
  0
LINE
  5
A9
330
17
100
AcDbEntity
  8
EDGE_BANDING
100
AcDbLine
 10
592.0
 20
724.0
 30
0.0
 11
592.0
 21
901.0
 31
0.0
  0
LINE
  5
AA
330
17
100
AcDbEntity
  8
GRAIN_DIRECTION
100
AcDbLine
 10
769.0
 20
812.5
 30
0.0
 11
1005.0
 21
812.5
 31
0.0
  0
LINE
  5
AB
330
17
100
AcDbEntity
  8
GRAIN_DIRECTION
100
AcDbLine
 10
990.0
 20
805.0
 30
0.0
 11
1005.0
 21
812.5
 31
0.0
  0
LINE
  5
AC
330
17
100
AcDbEntity
  8
GRAIN_DIRECTION
100
AcDbLine
 10
990.0
 20
820.0
 30
0.0
 11
1005.0
 21
812.5
 31
0.0
  0
LWPOLYLINE
  5
B2
330
17
100
AcDbEntity
  8
OUTSIDE_THROUGH
100
AcDbPolyline
 90
4
 70
1
 10
592.0
 20
903.0
 10
1182.0
 20
903.0
 10
1182.0
 20
1080.0
 10
592.0
 20
1080.0
  0
LWPOLYLINE
  5
B3
330
17
100
AcDbEntity
  8
A_SIDE_GROOVE_5.5
100
AcDbPolyline
 90
8
 70
1
 10
600.0
 20
917.5
 10
1174.0
 20
917.5
 42
0.4142135623730951
 10
1176.0
 20
919.5
 10
1176.0
 20
923.0
 42
0.4142135623730951
 10
1174.0
 20
925.0
 10
600.0
 20
925.0
 42
0.4142135623730951
 10
598.0
 20
923.0
 10
598.0
 20
919.5
 42
0.4142135623730951
  0
LINE
  5
B4
330
17
100
AcDbEntity
  8
EDGE_BANDING
100
AcDbLine
 10
592.0
 20
903.0
 30
0.0
 11
1182.0
 21
903.0
 31
0.0
  0
LINE
  5
B5
330
17
100
AcDbEntity
  8
EDGE_BANDING
100
AcDbLine
 10
592.0
 20
1080.0
 30
0.0
 11
1182.0
 21
1080.0
 31
0.0
  0
LINE
  5
B6
330
17
100
AcDbEntity
  8
EDGE_BANDING
100
AcDbLine
 10
1182.0
 20
903.0
 30
0.0
 11
1182.0
 21
1080.0
 31
0.0
  0
LINE
  5
B7
330
17
100
AcDbEntity
  8
GRAIN_DIRECTION
100
AcDbLine
 10
769.0
 20
991.5
 30
0.0
 11
1005.0
 21
991.5
 31
0.0
  0
LINE
  5
B8
330
17
100
AcDbEntity
  8
GRAIN_DIRECTION
100
AcDbLine
 10
990.0
 20
984.0
 30
0.0
 11
1005.0
 21
991.5
 31
0.0
  0
LINE
  5
B9
330
17
100
AcDbEntity
  8
GRAIN_DIRECTION
100
AcDbLine
 10
990.0
 20
999.0
 30
0.0
 11
1005.0
 21
991.5
 31
0.0
  0
LWPOLYLINE
  5
BF
330
17
100
AcDbEntity
  8
OUTSIDE_THROUGH
100
AcDbPolyline
 90
4
 70
1
 10
1184.0
 20
638.0
 10
1774.0
 20
638.0
 10
1774.0
 20
811.0
 10
1184.0
 20
811.0
  0
LWPOLYLINE
  5
C0
330
17
100
AcDbEntity
  8
A_SIDE_GROOVE_5.5
100
AcDbPolyline
 90
8
 70
1
 10
1192.0
 20
652.5
 10
1766.0
 20
652.5
 42
0.4142135623730951
 10
1768.0
 20
654.5
 10
1768.0
 20
658.0
 42
0.4142135623730951
 10
1766.0
 20
660.0
 10
1192.0
 20
660.0
 42
0.4142135623730951
 10
1190.0
 20
658.0
 10
1190.0
 20
654.5
 42
0.4142135623730951
  0
LINE
  5
C1
330
17
100
AcDbEntity
  8
EDGE_BANDING
100
AcDbLine
 10
1184.0
 20
638.0
 30
0.0
 11
1774.0
 21
638.0
 31
0.0
  0
LINE
  5
C2
330
17
100
AcDbEntity
  8
EDGE_BANDING
100
AcDbLine
 10
1184.0
 20
811.0
 30
0.0
 11
1774.0
 21
811.0
 31
0.0
  0
LINE
  5
C3
330
17
100
AcDbEntity
  8
EDGE_BANDING
100
AcDbLine
 10
1184.0
 20
638.0
 30
0.0
 11
1184.0
 21
811.0
 31
0.0
  0
LINE
  5
C4
330
17
100
AcDbEntity
  8
GRAIN_DIRECTION
100
AcDbLine
 10
1361.0
 20
724.5
 30
0.0
 11
1597.0
 21
724.5
 31
0.0
  0
LINE
  5
C5
330
17
100
AcDbEntity
  8
GRAIN_DIRECTION
100
AcDbLine
 10
1582.0
 20
717.0
 30
0.0
 11
1597.0
 21
724.5
 31
0.0
  0
LINE
  5
C6
330
17
100
AcDbEntity
  8
GRAIN_DIRECTION
100
AcDbLine
 10
1582.0
 20
732.0
 30
0.0
 11
1597.0
 21
724.5
 31
0.0
  0
LWPOLYLINE
  5
CC
330
17
100
AcDbEntity
  8
OUTSIDE_THROUGH
100
AcDbPolyline
 90
4
 70
1
 10
1776.0
 20
638.0
 10
2366.0
 20
638.0
 10
2366.0
 20
811.0
 10
1776.0
 20
811.0
  0
LWPOLYLINE
  5
CD
330
17
100
AcDbEntity
  8
A_SIDE_GROOVE_5.5
100
AcDbPolyline
 90
8
 70
1
 10
1784.0
 20
652.5
 10
2358.0
 20
652.5
 42
0.4142135623730951
 10
2360.0
 20
654.5
 10
2360.0
 20
658.0
 42
0.4142135623730951
 10
2358.0
 20
660.0
 10
1784.0
 20
660.0
 42
0.4142135623730951
 10
1782.0
 20
658.0
 10
1782.0
 20
654.5
 42
0.4142135623730951
  0
LINE
  5
CE
330
17
100
AcDbEntity
  8
EDGE_BANDING
100
AcDbLine
 10
1776.0
 20
638.0
 30
0.0
 11
2366.0
 21
638.0
 31
0.0
  0
LINE
  5
CF
330
17
100
AcDbEntity
  8
EDGE_BANDING
100
AcDbLine
 10
1776.0
 20
811.0
 30
0.0
 11
2366.0
 21
811.0
 31
0.0
  0
LINE
  5
D0
330
17
100
AcDbEntity
  8
EDGE_BANDING
100
AcDbLine
 10
2366.0
 20
638.0
 30
0.0
 11
2366.0
 21
811.0
 31
0.0
  0
LINE
  5
D1
330
17
100
AcDbEntity
  8
GRAIN_DIRECTION
100
AcDbLine
 10
1953.0
 20
724.5
 30
0.0
 11
2189.0
 21
724.5
 31
0.0
  0
LINE
  5
D2
330
17
100
AcDbEntity
  8
GRAIN_DIRECTION
100
AcDbLine
 10
2174.0
 20
717.0
 30
0.0
 11
2189.0
 21
724.5
 31
0.0
  0
LINE
  5
D3
330
17
100
AcDbEntity
  8
GRAIN_DIRECTION
100
AcDbLine
 10
2174.0
 20
732.0
 30
0.0
 11
2189.0
 21
724.5
 31
0.0
  0
LWPOLYLINE
  5
D9
330
17
100
AcDbEntity
  8
OUTSIDE_THROUGH
100
AcDbPolyline
 90
8
 70
1
 10
1261.01
 20
827.5
 10
1261.01
 20
813.0
 10
1641.01
 20
813.0
 10
1641.01
 20
827.5
 10
1716.01
 20
827.5
 10
1716.01
 20
990.0
 10
1186.01
 20
990.0
 10
1186.01
 20
827.5
  0
LWPOLYLINE
  5
DA
330
17
100
AcDbEntity
  8
A_SIDE_GROOVE_5.5
100
AcDbPolyline
 90
8
 70
1
 10
1186.0
 20
827.5
 10
1716.02
 20
827.5
 42
0.4142135623730951
 10
1718.02
 20
829.5
 10
1718.02
 20
833.0
 42
0.4142135623730951
 10
1716.02
 20
835.0
 10
1186.0
 20
835.0
 42
0.4142135623730951
 10
1184.0
 20
833.0
 10
1184.0
 20
829.5
 42
0.4142135623730951
  0
LINE
  5
DB
330
17
100
AcDbEntity
  8
EDGE_BANDING
100
AcDbLine
 10
1261.01
 20
813.0
 30
0.0
 11
1641.01
 21
813.0
 31
0.0
  0
LINE
  5
DC
330
17
100
AcDbEntity
  8
EDGE_BANDING
100
AcDbLine
 10
1186.01
 20
990.0
 30
0.0
 11
1716.01
 21
990.0
 31
0.0
  0
LINE
  5
DD
330
17
100
AcDbEntity
  8
GRAIN_DIRECTION
100
AcDbLine
 10
1345.01
 20
901.5
 30
0.0
 11
1557.01
 21
901.5
 31
0.0
  0
LINE
  5
DE
330
17
100
AcDbEntity
  8
GRAIN_DIRECTION
100
AcDbLine
 10
1542.01
 20
894.0
 30
0.0
 11
1557.01
 21
901.5
 31
0.0
  0
LINE
  5
DF
330
17
100
AcDbEntity
  8
GRAIN_DIRECTION
100
AcDbLine
 10
1542.01
 20
909.0
 30
0.0
 11
1557.01
 21
901.5
 31
0.0
  0
LWPOLYLINE
  5
E5
330
17
100
AcDbEntity
  8
OUTSIDE_THROUGH
100
AcDbPolyline
 90
8
 70
1
 10
1261.01
 20
1006.5
 10
1261.01
 20
992.0
 10
1641.01
 20
992.0
 10
1641.01
 20
1006.5
 10
1716.01
 20
1006.5
 10
1716.01
 20
1169.0
 10
1186.01
 20
1169.0
 10
1186.01
 20
1006.5
  0
LWPOLYLINE
  5
E6
330
17
100
AcDbEntity
  8
A_SIDE_GROOVE_5.5
100
AcDbPolyline
 90
8
 70
1
 10
1186.0
 20
1006.5
 10
1716.02
 20
1006.5
 42
0.4142135623730951
 10
1718.02
 20
1008.5
 10
1718.02
 20
1012.0
 42
0.4142135623730951
 10
1716.02
 20
1014.0
 10
1186.0
 20
1014.0
 42
0.4142135623730951
 10
1184.0
 20
1012.0
 10
1184.0
 20
1008.5
 42
0.4142135623730951
  0
LINE
  5
E7
330
17
100
AcDbEntity
  8
EDGE_BANDING
100
AcDbLine
 10
1261.01
 20
992.0
 30
0.0
 11
1641.01
 21
992.0
 31
0.0
  0
LINE
  5
E8
330
17
100
AcDbEntity
  8
EDGE_BANDING
100
AcDbLine
 10
1186.01
 20
1169.0
 30
0.0
 11
1716.01
 21
1169.0
 31
0.0
  0
LINE
  5
E9
330
17
100
AcDbEntity
  8
GRAIN_DIRECTION
100
AcDbLine
 10
1345.01
 20
1080.5
 30
0.0
 11
1557.01
 21
1080.5
 31
0.0
  0
LINE
  5
EA
330
17
100
AcDbEntity
  8
GRAIN_DIRECTION
100
AcDbLine
 10
1542.01
 20
1073.0
 30
0.0
 11
1557.01
 21
1080.5
 31
0.0
  0
LINE
  5
EB
330
17
100
AcDbEntity
  8
GRAIN_DIRECTION
100
AcDbLine
 10
1542.01
 20
1088.0
 30
0.0
 11
1557.01
 21
1080.5
 31
0.0
  0
LWPOLYLINE
  5
F1
330
17
100
AcDbEntity
  8
OUTSIDE_THROUGH
100
AcDbPolyline
 90
8
 70
1
 10
1797.03
 20
827.5
 10
1797.03
 20
813.0
 10
2177.0299999999997
 20
813.0
 10
2177.0299999999997
 20
827.5
 10
2252.0299999999997
 20
827.5
 10
2252.0299999999997
 20
990.0
 10
1722.03
 20
990.0
 10
1722.03
 20
827.5
  0
LWPOLYLINE
  5
F2
330
17
100
AcDbEntity
  8
A_SIDE_GROOVE_5.5
100
AcDbPolyline
 90
8
 70
1
 10
1722.02
 20
827.5
 10
2252.04
 20
827.5
 42
0.4142135623730951
 10
2254.04
 20
829.5
 10
2254.04
 20
833.0
 42
0.4142135623730951
 10
2252.04
 20
835.0
 10
1722.02
 20
835.0
 42
0.4142135623730951
 10
1720.02
 20
833.0
 10
1720.02
 20
829.5
 42
0.4142135623730951
  0
LINE
  5
F3
330
17
100
AcDbEntity
  8
EDGE_BANDING
100
AcDbLine
 10
1797.03
 20
813.0
 30
0.0
 11
2177.0299999999997
 21
813.0
 31
0.0
  0
LINE
  5
F4
330
17
100
AcDbEntity
  8
EDGE_BANDING
100
AcDbLine
 10
1722.03
 20
990.0
 30
0.0
 11
2252.0299999999997
 21
990.0
 31
0.0
  0
LINE
  5
F5
330
17
100
AcDbEntity
  8
GRAIN_DIRECTION
100
AcDbLine
 10
1881.03
 20
901.5
 30
0.0
 11
2093.0299999999997
 21
901.5
 31
0.0
  0
LINE
  5
F6
330
17
100
AcDbEntity
  8
GRAIN_DIRECTION
100
AcDbLine
 10
2078.0299999999997
 20
894.0
 30
0.0
 11
2093.0299999999997
 21
901.5
 31
0.0
  0
LINE
  5
F7
330
17
100
AcDbEntity
  8
GRAIN_DIRECTION
100
AcDbLine
 10
2078.0299999999997
 20
909.0
 30
0.0
 11
2093.0299999999997
 21
901.5
 31
0.0
  0
LWPOLYLINE
  5
FD
330
17
100
AcDbEntity
  8
OUTSIDE_THROUGH
100
AcDbPolyline
 90
8
 70
1
 10
1797.03
 20
1006.5
 10
1797.03
 20
992.0
 10
2177.0299999999997
 20
992.0
 10
2177.0299999999997
 20
1006.5
 10
2252.0299999999997
 20
1006.5
 10
2252.0299999999997
 20
1169.0
 10
1722.03
 20
1169.0
 10
1722.03
 20
1006.5
  0
LWPOLYLINE
  5
FE
330
17
100
AcDbEntity
  8
A_SIDE_GROOVE_5.5
100
AcDbPolyline
 90
8
 70
1
 10
1722.02
 20
1006.5
 10
2252.04
 20
1006.5
 42
0.4142135623730951
 10
2254.04
 20
1008.5
 10
2254.04
 20
1012.0
 42
0.4142135623730951
 10
2252.04
 20
1014.0
 10
1722.02
 20
1014.0
 42
0.4142135623730951
 10
1720.02
 20
1012.0
 10
1720.02
 20
1008.5
 42
0.4142135623730951
  0
LINE
  5
FF
330
17
100
AcDbEntity
  8
EDGE_BANDING
100
AcDbLine
 10
1797.03
 20
992.0
 30
0.0
 11
2177.0299999999997
 21
992.0
 31
0.0
  0
LINE
  5
100
330
17
100
AcDbEntity
  8
EDGE_BANDING
100
AcDbLine
 10
1722.03
 20
1169.0
 30
0.0
 11
2252.0299999999997
 21
1169.0
 31
0.0
  0
LINE
  5
101
330
17
100
AcDbEntity
  8
GRAIN_DIRECTION
100
AcDbLine
 10
1881.03
 20
1080.5
 30
0.0
 11
2093.0299999999997
 21
1080.5
 31
0.0
  0
LINE
  5
102
330
17
100
AcDbEntity
  8
GRAIN_DIRECTION
100
AcDbLine
 10
2078.0299999999997
 20
1073.0
 30
0.0
 11
2093.0299999999997
 21
1080.5
 31
0.0
  0
LINE
  5
103
330
17
100
AcDbEntity
  8
GRAIN_DIRECTION
100
AcDbLine
 10
2078.0299999999997
 20
1088.0
 30
0.0
 11
2093.0299999999997
 21
1080.5
 31
0.0
  0
LWPOLYLINE
  5
109
330
17
100
AcDbEntity
  8
OUTSIDE_THROUGH
100
AcDbPolyline
 90
8
 70
1
 10
77.01
 20
1103.5
 10
77.01
 20
1082.0
 10
678.01
 20
1082.0
 10
678.01
 20
1103.5
 10
753.01
 20
1103.5
 10
753.01
 20
1132.0
 10
2.01
 20
1132.0
 10
2.01
 20
1103.5
  0
LWPOLYLINE
  5
10A
330
17
100
AcDbEntity
  8
A_SIDE_GROOVE_5.5
100
AcDbPolyline
 90
8
 70
1
 10
2.0
 20
1103.5
 10
148.51
 20
1103.5
 42
0.4142135623730951
 10
150.51
 20
1105.5
 10
150.51
 20
1109.0
 42
0.4142135623730951
 10
148.51
 20
1111.0
 10
2.0
 20
1111.0
 42
0.4142135623730951
 10
0.0
 20
1109.0
 10
0.0
 20
1105.5
 42
0.4142135623730951
  0
LWPOLYLINE
  5
10B
330
17
100
AcDbEntity
  8
A_SIDE_GROOVE_5.5
100
AcDbPolyline
 90
8
 70
1
 10
606.51
 20
1103.5
 10
753.02
 20
1103.5
 42
0.4142135623730951
 10
755.02
 20
1105.5
 10
755.02
 20
1109.0
 42
0.4142135623730951
 10
753.02
 20
1111.0
 10
606.51
 20
1111.0
 42
0.4142135623730951
 10
604.51
 20
1109.0
 10
604.51
 20
1105.5
 42
0.4142135623730951
  0
LWPOLYLINE
  5
10C
330
17
100
AcDbEntity
  8
A_SIDE_GROOVE_5.5
100
AcDbPolyline
 90
8
 70
1
 10
150.51
 20
1088.0
 10
604.51
 20
1088.0
 42
0.4142135623730951
 10
606.51
 20
1090.0
 10
606.51
 20
1093.5
 42
0.4142135623730951
 10
604.51
 20
1095.5
 10
150.51
 20
1095.5
 42
0.4142135623730951
 10
148.51
 20
1093.5
 10
148.51
 20
1090.0
 42
0.4142135623730951
  0
LINE
  5
10D
330
17
100
AcDbEntity
  8
EDGE_BANDING
100
AcDbLine
 10
77.01
 20
1082.0
 30
0.0
 11
678.01
 21
1082.0
 31
0.0
  0
LINE
  5
10E
330
17
100
AcDbEntity
  8
EDGE_BANDING
100
AcDbLine
 10
2.01
 20
1132.0
 30
0.0
 11
753.01
 21
1132.0
 31
0.0
  0
LINE
  5
10F
330
17
100
AcDbEntity
  8
GRAIN_DIRECTION
100
AcDbLine
 10
227.30999999999997
 20
1107.0
 30
0.0
 11
527.7099999999999
 21
1107.0
 31
0.0
  0
LINE
  5
110
330
17
100
AcDbEntity
  8
GRAIN_DIRECTION
100
AcDbLine
 10
520.2099999999999
 20
1103.25
 30
0.0
 11
527.7099999999999
 21
1107.0
 31
0.0
  0
LINE
  5
111
330
17
100
AcDbEntity
  8
GRAIN_DIRECTION
100
AcDbLine
 10
520.2099999999999
 20
1110.75
 30
0.0
 11
527.7099999999999
 21
1107.0
 31
0.0
  0
LWPOLYLINE
  5
117
330
17
100
AcDbEntity
  8
OUTSIDE_THROUGH
100
AcDbPolyline
 90
8
 70
1
 10
77.01
 20
1155.5
 10
77.01
 20
1134.0
 10
678.01
 20
1134.0
 10
678.01
 20
1155.5
 10
753.01
 20
1155.5
 10
753.01
 20
1184.0
 10
2.01
 20
1184.0
 10
2.01
 20
1155.5
  0
LWPOLYLINE
  5
118
330
17
100
AcDbEntity
  8
A_SIDE_GROOVE_5.5
100
AcDbPolyline
 90
8
 70
1
 10
2.0
 20
1155.5
 10
148.51
 20
1155.5
 42
0.4142135623730951
 10
150.51
 20
1157.5
 10
150.51
 20
1161.0
 42
0.4142135623730951
 10
148.51
 20
1163.0
 10
2.0
 20
1163.0
 42
0.4142135623730951
 10
0.0
 20
1161.0
 10
0.0
 20
1157.5
 42
0.4142135623730951
  0
LWPOLYLINE
  5
119
330
17
100
AcDbEntity
  8
A_SIDE_GROOVE_5.5
100
AcDbPolyline
 90
8
 70
1
 10
606.51
 20
1155.5
 10
753.02
 20
1155.5
 42
0.4142135623730951
 10
755.02
 20
1157.5
 10
755.02
 20
1161.0
 42
0.4142135623730951
 10
753.02
 20
1163.0
 10
606.51
 20
1163.0
 42
0.4142135623730951
 10
604.51
 20
1161.0
 10
604.51
 20
1157.5
 42
0.4142135623730951
  0
LWPOLYLINE
  5
11A
330
17
100
AcDbEntity
  8
A_SIDE_GROOVE_5.5
100
AcDbPolyline
 90
8
 70
1
 10
150.51
 20
1140.0
 10
604.51
 20
1140.0
 42
0.4142135623730951
 10
606.51
 20
1142.0
 10
606.51
 20
1145.5
 42
0.4142135623730951
 10
604.51
 20
1147.5
 10
150.51
 20
1147.5
 42
0.4142135623730951
 10
148.51
 20
1145.5
 10
148.51
 20
1142.0
 42
0.4142135623730951
  0
LINE
  5
11B
330
17
100
AcDbEntity
  8
EDGE_BANDING
100
AcDbLine
 10
77.01
 20
1134.0
 30
0.0
 11
678.01
 21
1134.0
 31
0.0
  0
LINE
  5
11C
330
17
100
AcDbEntity
  8
EDGE_BANDING
100
AcDbLine
 10
2.01
 20
1184.0
 30
0.0
 11
753.01
 21
1184.0
 31
0.0
  0
LINE
  5
11D
330
17
100
AcDbEntity
  8
GRAIN_DIRECTION
100
AcDbLine
 10
227.30999999999997
 20
1159.0
 30
0.0
 11
527.7099999999999
 21
1159.0
 31
0.0
  0
LINE
  5
11E
330
17
100
AcDbEntity
  8
GRAIN_DIRECTION
100
AcDbLine
 10
520.2099999999999
 20
1155.25
 30
0.0
 11
527.7099999999999
 21
1159.0
 31
0.0
  0
LINE
  5
11F
330
17
100
AcDbEntity
  8
GRAIN_DIRECTION
100
AcDbLine
 10
520.2099999999999
 20
1162.75
 30
0.0
 11
527.7099999999999
 21
1159.0
 31
0.0
  0
LWPOLYLINE
  5
126
330
17
100
AcDbEntity
  8
OUTSIDE_THROUGH
100
AcDbPolyline
 90
4
 70
1
 10
759.03
 20
1082.0
 10
973.03
 20
1082.0
 10
973.03
 20
1139.0
 10
759.03
 20
1139.0
  0
LWPOLYLINE
  5
127
330
17
100
AcDbEntity
  8
A_SIDE_GROOVE_5.5
100
AcDbPolyline
 90
8
 70
1
 10
759.02
 20
1103.5
 10
973.04
 20
1103.5
 42
0.4142135623730951
 10
975.04
 20
1105.5
 10
975.04
 20
1109.0
 42
0.4142135623730951
 10
973.04
 20
1111.0
 10
759.02
 20
1111.0
 42
0.4142135623730951
 10
757.02
 20
1109.0
 10
757.02
 20
1105.5
 42
0.4142135623730951
  0
LWPOLYLINE
  5
128
330
17
100
AcDbEntity
  8
B_SIDE_GROOVE_5.5
100
AcDbPolyline
 90
8
 70
1
 10
759.02
 20
1088.0
 10
973.04
 20
1088.0
 42
0.4142135623730951
 10
975.04
 20
1090.0
 10
975.04
 20
1093.5
 42
0.4142135623730951
 10
973.04
 20
1095.5
 10
759.02
 20
1095.5
 42
0.4142135623730951
 10
757.02
 20
1093.5
 10
757.02
 20
1090.0
 42
0.4142135623730951
  0
LINE
  5
129
330
17
100
AcDbEntity
  8
EDGE_BANDING
100
AcDbLine
 10
759.03
 20
1082.0
 30
0.0
 11
973.03
 21
1082.0
 31
0.0
  0
LINE
  5
12A
330
17
100
AcDbEntity
  8
EDGE_BANDING
100
AcDbLine
 10
759.03
 20
1139.0
 30
0.0
 11
973.03
 21
1139.0
 31
0.0
  0
LINE
  5
12B
330
17
100
AcDbEntity
  8
GRAIN_DIRECTION
100
AcDbLine
 10
823.23
 20
1110.5
 30
0.0
 11
908.8299999999999
 21
1110.5
 31
0.0
  0
LINE
  5
12C
330
17
100
AcDbEntity
  8
GRAIN_DIRECTION
100
AcDbLine
 10
900.28
 20
1106.225
 30
0.0
 11
908.8299999999999
 21
1110.5
 31
0.0
  0
LINE
  5
12D
330
17
100
AcDbEntity
  8
GRAIN_DIRECTION
100
AcDbLine
 10
900.28
 20
1114.775
 30
0.0
 11
908.8299999999999
 21
1110.5
 31
0.0
  0
LWPOLYLINE
  5
134
330
17
100
AcDbEntity
  8
OUTSIDE_THROUGH
100
AcDbPolyline
 90
4
 70
1
 10
759.03
 20
1141.0
 10
973.03
 20
1141.0
 10
973.03
 20
1198.0
 10
759.03
 20
1198.0
  0
LWPOLYLINE
  5
135
330
17
100
AcDbEntity
  8
A_SIDE_GROOVE_5.5
100
AcDbPolyline
 90
8
 70
1
 10
759.02
 20
1162.5
 10
973.04
 20
1162.5
 42
0.4142135623730951
 10
975.04
 20
1164.5
 10
975.04
 20
1168.0
 42
0.4142135623730951
 10
973.04
 20
1170.0
 10
759.02
 20
1170.0
 42
0.4142135623730951
 10
757.02
 20
1168.0
 10
757.02
 20
1164.5
 42
0.4142135623730951
  0
LWPOLYLINE
  5
136
330
17
100
AcDbEntity
  8
B_SIDE_GROOVE_5.5
100
AcDbPolyline
 90
8
 70
1
 10
759.02
 20
1147.0
 10
973.04
 20
1147.0
 42
0.4142135623730951
 10
975.04
 20
1149.0
 10
975.04
 20
1152.5
 42
0.4142135623730951
 10
973.04
 20
1154.5
 10
759.02
 20
1154.5
 42
0.4142135623730951
 10
757.02
 20
1152.5
 10
757.02
 20
1149.0
 42
0.4142135623730951
  0
LINE
  5
137
330
17
100
AcDbEntity
  8
EDGE_BANDING
100
AcDbLine
 10
759.03
 20
1141.0
 30
0.0
 11
973.03
 21
1141.0
 31
0.0
  0
LINE
  5
138
330
17
100
AcDbEntity
  8
EDGE_BANDING
100
AcDbLine
 10
759.03
 20
1198.0
 30
0.0
 11
973.03
 21
1198.0
 31
0.0
  0
LINE
  5
139
330
17
100
AcDbEntity
  8
GRAIN_DIRECTION
100
AcDbLine
 10
823.23
 20
1169.5
 30
0.0
 11
908.8299999999999
 21
1169.5
 31
0.0
  0
LINE
  5
13A
330
17
100
AcDbEntity
  8
GRAIN_DIRECTION
100
AcDbLine
 10
900.28
 20
1165.225
 30
0.0
 11
908.8299999999999
 21
1169.5
 31
0.0
  0
LINE
  5
13B
330
17
100
AcDbEntity
  8
GRAIN_DIRECTION
100
AcDbLine
 10
900.28
 20
1173.775
 30
0.0
 11
908.8299999999999
 21
1169.5
 31
0.0
  0
LWPOLYLINE
  5
140
330
17
100
AcDbEntity
  8
OUTSIDE_THROUGH
100
AcDbPolyline
 90
4
 70
1
 10
2312.02
 20
463.0
 10
2436.02
 20
463.0
 10
2436.02
 20
498.0
 10
2312.02
 20
498.0
  0
LINE
  5
141
330
17
100
AcDbEntity
  8
EDGE_BANDING
100
AcDbLine
 10
2312.02
 20
463.0
 30
0.0
 11
2436.02
 21
463.0
 31
0.0
  0
LINE
  5
142
330
17
100
AcDbEntity
  8
GRAIN_DIRECTION
100
AcDbLine
 10
2349.22
 20
480.5
 30
0.0
 11
2398.82
 21
480.5
 31
0.0
  0
LINE
  5
143
330
17
100
AcDbEntity
  8
GRAIN_DIRECTION
100
AcDbLine
 10
2393.57
 20
477.875
 30
0.0
 11
2398.82
 21
480.5
 31
0.0
  0
LINE
  5
144
330
17
100
AcDbEntity
  8
GRAIN_DIRECTION
100
AcDbLine
 10
2393.57
 20
483.125
 30
0.0
 11
2398.82
 21
480.5
 31
0.0
  0
LWPOLYLINE
  5
149
330
17
100
AcDbEntity
  8
OUTSIDE_THROUGH
100
AcDbPolyline
 90
4
 70
1
 10
2312.02
 20
515.0
 10
2436.02
 20
515.0
 10
2436.02
 20
550.0
 10
2312.02
 20
550.0
  0
LINE
  5
14A
330
17
100
AcDbEntity
  8
EDGE_BANDING
100
AcDbLine
 10
2312.02
 20
515.0
 30
0.0
 11
2436.02
 21
515.0
 31
0.0
  0
LINE
  5
14B
330
17
100
AcDbEntity
  8
GRAIN_DIRECTION
100
AcDbLine
 10
2349.22
 20
532.5
 30
0.0
 11
2398.82
 21
532.5
 31
0.0
  0
LINE
  5
14C
330
17
100
AcDbEntity
  8
GRAIN_DIRECTION
100
AcDbLine
 10
2393.57
 20
529.875
 30
0.0
 11
2398.82
 21
532.5
 31
0.0
  0
LINE
  5
14D
330
17
100
AcDbEntity
  8
GRAIN_DIRECTION
100
AcDbLine
 10
2393.57
 20
535.125
 30
0.0
 11
2398.82
 21
532.5
 31
0.0
  0
LWPOLYLINE
  5
152
330
17
100
AcDbEntity
  8
OUTSIDE_THROUGH
100
AcDbPolyline
 90
4
 70
1
 10
2312.02
 20
567.0
 10
2436.02
 20
567.0
 10
2436.02
 20
602.0
 10
2312.02
 20
602.0
  0
LINE
  5
153
330
17
100
AcDbEntity
  8
EDGE_BANDING
100
AcDbLine
 10
2312.02
 20
567.0
 30
0.0
 11
2436.02
 21
567.0
 31
0.0
  0
LINE
  5
154
330
17
100
AcDbEntity
  8
GRAIN_DIRECTION
100
AcDbLine
 10
2349.22
 20
584.5
 30
0.0
 11
2398.82
 21
584.5
 31
0.0
  0
LINE
  5
155
330
17
100
AcDbEntity
  8
GRAIN_DIRECTION
100
AcDbLine
 10
2393.57
 20
581.875
 30
0.0
 11
2398.82
 21
584.5
 31
0.0
  0
LINE
  5
156
330
17
100
AcDbEntity
  8
GRAIN_DIRECTION
100
AcDbLine
 10
2393.57
 20
587.125
 30
0.0
 11
2398.82
 21
584.5
 31
0.0
  0
LWPOLYLINE
  5
15B
330
17
100
AcDbEntity
  8
OUTSIDE_THROUGH
100
AcDbPolyline
 90
4
 70
1
 10
2256.04
 20
813.0
 10
2380.04
 20
813.0
 10
2380.04
 20
848.0
 10
2256.04
 20
848.0
  0
LINE
  5
15C
330
17
100
AcDbEntity
  8
EDGE_BANDING
100
AcDbLine
 10
2256.04
 20
813.0
 30
0.0
 11
2380.04
 21
813.0
 31
0.0
  0
LINE
  5
15D
330
17
100
AcDbEntity
  8
GRAIN_DIRECTION
100
AcDbLine
 10
2293.24
 20
830.5
 30
0.0
 11
2342.84
 21
830.5
 31
0.0
  0
LINE
  5
15E
330
17
100
AcDbEntity
  8
GRAIN_DIRECTION
100
AcDbLine
 10
2337.59
 20
827.875
 30
0.0
 11
2342.84
 21
830.5
 31
0.0
  0
LINE
  5
15F
330
17
100
AcDbEntity
  8
GRAIN_DIRECTION
100
AcDbLine
 10
2337.59
 20
833.125
 30
0.0
 11
2342.84
 21
830.5
 31
0.0
  0
LWPOLYLINE
  5
164
330
17
100
AcDbEntity
  8
OUTSIDE_THROUGH
100
AcDbPolyline
 90
4
 70
1
 10
2256.04
 20
865.0
 10
2380.04
 20
865.0
 10
2380.04
 20
900.0
 10
2256.04
 20
900.0
  0
LINE
  5
165
330
17
100
AcDbEntity
  8
EDGE_BANDING
100
AcDbLine
 10
2256.04
 20
865.0
 30
0.0
 11
2380.04
 21
865.0
 31
0.0
  0
LINE
  5
166
330
17
100
AcDbEntity
  8
GRAIN_DIRECTION
100
AcDbLine
 10
2293.24
 20
882.5
 30
0.0
 11
2342.84
 21
882.5
 31
0.0
  0
LINE
  5
167
330
17
100
AcDbEntity
  8
GRAIN_DIRECTION
100
AcDbLine
 10
2337.59
 20
879.875
 30
0.0
 11
2342.84
 21
882.5
 31
0.0
  0
LINE
  5
168
330
17
100
AcDbEntity
  8
GRAIN_DIRECTION
100
AcDbLine
 10
2337.59
 20
885.125
 30
0.0
 11
2342.84
 21
882.5
 31
0.0
  0
LWPOLYLINE
  5
16D
330
17
100
AcDbEntity
  8
OUTSIDE_THROUGH
100
AcDbPolyline
 90
4
 70
1
 10
2256.04
 20
917.0
 10
2380.04
 20
917.0
 10
2380.04
 20
952.0
 10
2256.04
 20
952.0
  0
LINE
  5
16E
330
17
100
AcDbEntity
  8
EDGE_BANDING
100
AcDbLine
 10
2256.04
 20
917.0
 30
0.0
 11
2380.04
 21
917.0
 31
0.0
  0
LINE
  5
16F
330
17
100
AcDbEntity
  8
GRAIN_DIRECTION
100
AcDbLine
 10
2293.24
 20
934.5
 30
0.0
 11
2342.84
 21
934.5
 31
0.0
  0
LINE
  5
170
330
17
100
AcDbEntity
  8
GRAIN_DIRECTION
100
AcDbLine
 10
2337.59
 20
931.875
 30
0.0
 11
2342.84
 21
934.5
 31
0.0
  0
LINE
  5
171
330
17
100
AcDbEntity
  8
GRAIN_DIRECTION
100
AcDbLine
 10
2337.59
 20
937.125
 30
0.0
 11
2342.84
 21
934.5
 31
0.0
  0
LWPOLYLINE
  5
176
330
17
100
AcDbEntity
  8
OUTSIDE_THROUGH
100
AcDbPolyline
 90
4
 70
1
 10
2256.04
 20
969.0
 10
2380.04
 20
969.0
 10
2380.04
 20
1004.0
 10
2256.04
 20
1004.0
  0
LINE
  5
177
330
17
100
AcDbEntity
  8
EDGE_BANDING
100
AcDbLine
 10
2256.04
 20
969.0
 30
0.0
 11
2380.04
 21
969.0
 31
0.0
  0
LINE
  5
178
330
17
100
AcDbEntity
  8
GRAIN_DIRECTION
100
AcDbLine
 10
2293.24
 20
986.5
 30
0.0
 11
2342.84
 21
986.5
 31
0.0
  0
LINE
  5
179
330
17
100
AcDbEntity
  8
GRAIN_DIRECTION
100
AcDbLine
 10
2337.59
 20
983.875
 30
0.0
 11
2342.84
 21
986.5
 31
0.0
  0
LINE
  5
17A
330
17
100
AcDbEntity
  8
GRAIN_DIRECTION
100
AcDbLine
 10
2337.59
 20
989.125
 30
0.0
 11
2342.84
 21
986.5
 31
0.0
  0
LWPOLYLINE
  5
17F
330
17
100
AcDbEntity
  8
OUTSIDE_THROUGH
100
AcDbPolyline
 90
4
 70
1
 10
2256.04
 20
1021.0
 10
2380.04
 20
1021.0
 10
2380.04
 20
1056.0
 10
2256.04
 20
1056.0
  0
LINE
  5
180
330
17
100
AcDbEntity
  8
EDGE_BANDING
100
AcDbLine
 10
2256.04
 20
1021.0
 30
0.0
 11
2380.04
 21
1021.0
 31
0.0
  0
LINE
  5
181
330
17
100
AcDbEntity
  8
GRAIN_DIRECTION
100
AcDbLine
 10
2293.24
 20
1038.5
 30
0.0
 11
2342.84
 21
1038.5
 31
0.0
  0
LINE
  5
182
330
17
100
AcDbEntity
  8
GRAIN_DIRECTION
100
AcDbLine
 10
2337.59
 20
1035.875
 30
0.0
 11
2342.84
 21
1038.5
 31
0.0
  0
LINE
  5
183
330
17
100
AcDbEntity
  8
GRAIN_DIRECTION
100
AcDbLine
 10
2337.59
 20
1041.125
 30
0.0
 11
2342.84
 21
1038.5
 31
0.0
  0
LWPOLYLINE
  5
186
330
17
100
AcDbEntity
  8
SHEET_BOUNDARY
100
AcDbPolyline
 90
4
 70
1
 10
0.0
 20
0.0
 10
2440.0
 20
0.0
 10
2440.0
 20
1220.0
 10
0.0
 20
1220.0
  0
TEXT
  5
187
330
17
100
AcDbEntity
  8
PART_LABELS
100
AcDbText
 10
4.0
 20
6.0
 30
0.0
 40
24.0
  1
1
100
AcDbText
  0
TEXT
  5
188
330
17
100
AcDbEntity
  8
PART_LABELS
100
AcDbText
 10
1189.0
 20
6.0
 30
0.0
 40
24.0
  1
2
100
AcDbText
  0
TEXT
  5
189
330
17
100
AcDbEntity
  8
PART_LABELS
100
AcDbText
 10
1189.0
 20
295.0
 30
0.0
 40
24.0
  1
3
100
AcDbText
  0
TEXT
  5
18A
330
17
100
AcDbEntity
  8
PART_LABELS
100
AcDbText
 10
1189.0
 20
469.0
 30
0.0
 40
24.0
  1
4
100
AcDbText
  0
TEXT
  5
18B
330
17
100
AcDbEntity
  8
PART_LABELS
100
AcDbText
 10
4.0
 20
555.0
 30
0.0
 40
24.0
  1
5
100
AcDbText
  0
TEXT
  5
18C
330
17
100
AcDbEntity
  8
PART_LABELS
100
AcDbText
 10
4.0
 20
730.0
 30
0.0
 40
24.0
  1
6
100
AcDbText
  0
TEXT
  5
18D
330
17
100
AcDbEntity
  8
PART_LABELS
100
AcDbText
 10
4.0
 20
909.0
 30
0.0
 40
24.0
  1
7
100
AcDbText
  0
TEXT
  5
18E
330
17
100
AcDbEntity
  8
PART_LABELS
100
AcDbText
 10
596.0
 20
730.0
 30
0.0
 40
24.0
  1
8
100
AcDbText
  0
TEXT
  5
18F
330
17
100
AcDbEntity
  8
PART_LABELS
100
AcDbText
 10
596.0
 20
909.0
 30
0.0
 40
24.0
  1
9
100
AcDbText
  0
TEXT
  5
190
330
17
100
AcDbEntity
  8
PART_LABELS
100
AcDbText
 10
1188.0
 20
644.0
 30
0.0
 40
24.0
  1
10
100
AcDbText
  0
TEXT
  5
191
330
17
100
AcDbEntity
  8
PART_LABELS
100
AcDbText
 10
1780.0
 20
644.0
 30
0.0
 40
24.0
  1
11
100
AcDbText
  0
TEXT
  5
192
330
17
100
AcDbEntity
  8
PART_LABELS
100
AcDbText
 10
1188.0
 20
819.0
 30
0.0
 40
24.0
  1
12
100
AcDbText
  0
TEXT
  5
193
330
17
100
AcDbEntity
  8
PART_LABELS
100
AcDbText
 10
1188.0
 20
998.0
 30
0.0
 40
24.0
  1
13
100
AcDbText
  0
TEXT
  5
194
330
17
100
AcDbEntity
  8
PART_LABELS
100
AcDbText
 10
1724.02
 20
819.0
 30
0.0
 40
24.0
  1
14
100
AcDbText
  0
TEXT
  5
195
330
17
100
AcDbEntity
  8
PART_LABELS
100
AcDbText
 10
1724.02
 20
998.0
 30
0.0
 40
24.0
  1
15
100
AcDbText
  0
TEXT
  5
196
330
17
100
AcDbEntity
  8
PART_LABELS
100
AcDbText
 10
4.0
 20
1088.0
 30
0.0
 40
24.0
  1
16
100
AcDbText
  0
TEXT
  5
197
330
17
100
AcDbEntity
  8
PART_LABELS
100
AcDbText
 10
4.0
 20
1140.0
 30
0.0
 40
24.0
  1
17
100
AcDbText
  0
TEXT
  5
198
330
17
100
AcDbEntity
  8
PART_LABELS
100
AcDbText
 10
761.02
 20
1088.0
 30
0.0
 40
24.0
  1
18
100
AcDbText
  0
TEXT
  5
199
330
17
100
AcDbEntity
  8
PART_LABELS
100
AcDbText
 10
761.02
 20
1147.0
 30
0.0
 40
24.0
  1
19
100
AcDbText
  0
TEXT
  5
19A
330
17
100
AcDbEntity
  8
PART_LABELS
100
AcDbText
 10
2316.02
 20
469.0
 30
0.0
 40
24.0
  1
20
100
AcDbText
  0
TEXT
  5
19B
330
17
100
AcDbEntity
  8
PART_LABELS
100
AcDbText
 10
2316.02
 20
521.0
 30
0.0
 40
24.0
  1
21
100
AcDbText
  0
TEXT
  5
19C
330
17
100
AcDbEntity
  8
PART_LABELS
100
AcDbText
 10
2316.02
 20
573.0
 30
0.0
 40
24.0
  1
22
100
AcDbText
  0
TEXT
  5
19D
330
17
100
AcDbEntity
  8
PART_LABELS
100
AcDbText
 10
2260.04
 20
819.0
 30
0.0
 40
24.0
  1
23
100
AcDbText
  0
TEXT
  5
19E
330
17
100
AcDbEntity
  8
PART_LABELS
100
AcDbText
 10
2260.04
 20
871.0
 30
0.0
 40
24.0
  1
24
100
AcDbText
  0
TEXT
  5
19F
330
17
100
AcDbEntity
  8
PART_LABELS
100
AcDbText
 10
2260.04
 20
923.0
 30
0.0
 40
24.0
  1
25
100
AcDbText
  0
TEXT
  5
1A0
330
17
100
AcDbEntity
  8
PART_LABELS
100
AcDbText
 10
2260.04
 20
975.0
 30
0.0
 40
24.0
  1
26
100
AcDbText
  0
TEXT
  5
1A1
330
17
100
AcDbEntity
  8
PART_LABELS
100
AcDbText
 10
2260.04
 20
1027.0
 30
0.0
 40
24.0
  1
27
100
AcDbText
  0
ENDSEC
  0
SECTION
  2
OBJECTS
  0
DICTIONARY
  5
A
330
0
100
AcDbDictionary
281
1
  3
ACAD_COLOR
350
B
  3
ACAD_GROUP
350
C
  3
ACAD_LAYOUT
350
D
  3
ACAD_MATERIAL
350
E
  3
ACAD_MLEADERSTYLE
350
F
  3
ACAD_MLINESTYLE
350
10
  3
ACAD_PLOTSETTINGS
350
11
  3
ACAD_PLOTSTYLENAME
350
12
  3
ACAD_SCALELIST
350
14
  3
ACAD_TABLESTYLE
350
15
  3
ACAD_VISUALSTYLE
350
16
  3
EZDXF_META
350
2D
  0
DICTIONARY
  5
B
330
A
100
AcDbDictionary
281
1
  0
DICTIONARY
  5
C
330
A
100
AcDbDictionary
281
1
  0
DICTIONARY
  5
D
330
A
100
AcDbDictionary
281
1
  3
Model
350
1A
  3
Layout1
350
1E
  0
DICTIONARY
  5
E
330
A
100
AcDbDictionary
281
1
  3
ByBlock
350
1F
  3
ByLayer
350
20
  3
Global
350
21
  0
DICTIONARY
  5
F
330
A
100
AcDbDictionary
281
1
  3
Standard
350
2C
  0
DICTIONARY
  5
10
330
A
100
AcDbDictionary
281
1
  3
Standard
350
22
  0
DICTIONARY
  5
11
330
A
100
AcDbDictionary
281
1
  0
ACDBDICTIONARYWDFLT
  5
12
330
A
100
AcDbDictionary
281
1
  3
Normal
350
13
100
AcDbDictionaryWithDefault
340
13
  0
ACDBPLACEHOLDER
  5
13
330
12
  0
DICTIONARY
  5
14
330
A
100
AcDbDictionary
281
1
  0
DICTIONARY
  5
15
330
A
100
AcDbDictionary
281
1
  0
DICTIONARY
  5
16
330
A
100
AcDbDictionary
281
1
  0
LAYOUT
  5
1A
330
D
100
AcDbPlotSettings
  1

  4
A3
  6

 40
7.5
 41
20.0
 42
7.5
 43
20.0
 44
420.0
 45
297.0
 46
0.0
 47
0.0
 48
0.0
 49
0.0
140
0.0
141
0.0
142
1.0
143
1.0
 70
1024
 72
1
 73
0
 74
5
  7

 75
16
 76
0
 77
2
 78
300
147
1.0
148
0.0
149
0.0
100
AcDbLayout
  1
Model
 70
1
 71
0
 10
0.0
 20
0.0
 11
420.0
 21
297.0
 12
0.0
 22
0.0
 32
0.0
 14
1e+20
 24
1e+20
 34
1e+20
 15
-1e+20
 25
-1e+20
 35
-1e+20
146
0.0
 13
0.0
 23
0.0
 33
0.0
 16
1.0
 26
0.0
 36
0.0
 17
0.0
 27
1.0
 37
0.0
 76
1
330
17
  0
LAYOUT
  5
1E
330
D
100
AcDbPlotSettings
  1

  4
A3
  6

 40
7.5
 41
20.0
 42
7.5
 43
20.0
 44
420.0
 45
297.0
 46
0.0
 47
0.0
 48
0.0
 49
0.0
140
0.0
141
0.0
142
1.0
143
1.0
 70
0
 72
1
 73
0
 74
5
  7

 75
16
 76
0
 77
2
 78
300
147
1.0
148
0.0
149
0.0
100
AcDbLayout
  1
Layout1
 70
1
 71
1
 10
0.0
 20
0.0
 11
420.0
 21
297.0
 12
0.0
 22
0.0
 32
0.0
 14
1e+20
 24
1e+20
 34
1e+20
 15
-1e+20
 25
-1e+20
 35
-1e+20
146
0.0
 13
0.0
 23
0.0
 33
0.0
 16
1.0
 26
0.0
 36
0.0
 17
0.0
 27
1.0
 37
0.0
 76
1
330
1B
  0
MATERIAL
  5
1F
102
{ACAD_REACTORS
330
E
102
}
330
E
100
AcDbMaterial
  1
ByBlock
  2

 70
0
 40
1.0
 71
1
 41
1.0
 91
-1023410177
 42
1.0
 72
1
  3

 73
1
 74
1
 75
1
 44
0.5
 73
0
 45
1.0
 46
1.0
 77
1
  4

 78
1
 79
1
170
1
 48
1.0
171
1
  6

172
1
173
1
174
1
140
1.0
141
1.0
175
1
  7

176
1
177
1
178
1
143
1.0
179
1
  8

270
1
271
1
272
1
145
1.0
146
1.0
273
1
  9

274
1
275
1
276
1
 42
1.0
 72
1
  3

 73
1
 74
1
 75
1
 94
63
  0
MATERIAL
  5
20
102
{ACAD_REACTORS
330
E
102
}
330
E
100
AcDbMaterial
  1
ByLayer
  2

 70
0
 40
1.0
 71
1
 41
1.0
 91
-1023410177
 42
1.0
 72
1
  3

 73
1
 74
1
 75
1
 44
0.5
 73
0
 45
1.0
 46
1.0
 77
1
  4

 78
1
 79
1
170
1
 48
1.0
171
1
  6

172
1
173
1
174
1
140
1.0
141
1.0
175
1
  7

176
1
177
1
178
1
143
1.0
179
1
  8

270
1
271
1
272
1
145
1.0
146
1.0
273
1
  9

274
1
275
1
276
1
 42
1.0
 72
1
  3

 73
1
 74
1
 75
1
 94
63
  0
MATERIAL
  5
21
102
{ACAD_REACTORS
330
E
102
}
330
E
100
AcDbMaterial
  1
Global
  2

 70
0
 40
1.0
 71
1
 41
1.0
 91
-1023410177
 42
1.0
 72
1
  3

 73
1
 74
1
 75
1
 44
0.5
 73
0
 45
1.0
 46
1.0
 77
1
  4

 78
1
 79
1
170
1
 48
1.0
171
1
  6

172
1
173
1
174
1
140
1.0
141
1.0
175
1
  7

176
1
177
1
178
1
143
1.0
179
1
  8

270
1
271
1
272
1
145
1.0
146
1.0
273
1
  9

274
1
275
1
276
1
 42
1.0
 72
1
  3

 73
1
 74
1
 75
1
 94
63
  0
MLINESTYLE
  5
22
102
{ACAD_REACTORS
330
10
102
}
330
10
100
AcDbMlineStyle
  2
Standard
 70
0
  3

 62
256
 51
90.0
 52
90.0
 71
2
 49
0.5
 62
256
  6
BYLAYER
 49
-0.5
 62
256
  6
BYLAYER
  0
MLEADERSTYLE
  5
2C
102
{ACAD_REACTORS
330
F
102
}
330
F
100
AcDbMLeaderStyle
179
2
170
2
171
1
172
0
 90
2
 40
0.0
 41
0.0
173
1
 91
-1056964608
 92
-2
290
1
 42
2.0
291
1
 43
8.0
  3
Standard
 44
4.0
300

342
29
174
1
175
1
176
0
178
1
 93
-1056964608
 45
4.0
292
0
297
0
 46
4.0
 94
-1056964608
 47
1.0
 49
1.0
140
1.0
294
1
141
0.0
177
0
142
1.0
295
0
296
0
143
3.75
271
0
272
9
273
9
  0
DICTIONARY
  5
2D
330
A
100
AcDbDictionary
280
1
281
1
  3
CREATED_BY_EZDXF
350
2E
  3
WRITTEN_BY_EZDXF
350
1A4
  0
DICTIONARYVAR
  5
2E
330
2D
100
DictionaryVariables
280
0
  1
1.4.4 @ 2026-10-09T23:07:02.078378+00:00
  0
DICTIONARYVAR
  5
1A4
330
2D
100
DictionaryVariables
280
0
  1
1.4.4 @ 2026-10-09T23:07:02.097922+00:00
  0
ENDSEC
  0
EOF
