  0
SECTION
  2
HEADER
  9
$ACADVER
  1
AC1024
  9
$ACADMAINTVER
 70
6
  9
$DWGCODEPAGE
  3
ANSI_1252
  9
$LASTSAVEDBY
  1
ezdxf
  9
$INSBASE
 10
0.0
 20
0.0
 30
0.0
  9
$EXTMIN
 10
1e+20
 20
1e+20
 30
1e+20
  9
$EXTMAX
 10
-1e+20
 20
-1e+20
 30
-1e+20
  9
$LIMMIN
 10
0.0
 20
0.0
  9
$LIMMAX
 10
420.0
 20
297.0
  9
$ORTHOMODE
 70
0
  9
$REGENMODE
 70
1
  9
$FILLMODE
 70
1
  9
$QTEXTMODE
 70
0
  9
$MIRRTEXT
 70
1
  9
$LTSCALE
 40
1.0
  9
$ATTMODE
 70
1
  9
$TEXTSIZE
 40
2.5
  9
$TRACEWID
 40
1.0
  9
$TEXTSTYLE
  7
Standard
  9
$CLAYER
  8
0
  9
$CELTYPE
  6
ByLayer
  9
$CECOLOR
 62
256
  9
$CELTSCALE
 40
1.0
  9
$DISPSILH
 70
0
  9
$DIMSCALE
 40
1.0
  9
$DIMASZ
 40
2.5
  9
$DIMEXO
 40
0.625
  9
$DIMDLI
 40
3.75
  9
$DIMRND
 40
0.0
  9
$DIMDLE
 40
0.0
  9
$DIMEXE
 40
1.25
  9
$DIMTP
 40
0.0
  9
$DIMTM
 40
0.0
  9
$DIMTXT
 40
2.5
  9
$DIMCEN
 40
2.5
  9
$DIMTSZ
 40
0.0
  9
$DIMTOL
 70
0
  9
$DIMLIM
 70
0
  9
$DIMTIH
 70
0
  9
$DIMTOH
 70
0
  9
$DIMSE1
 70
0
  9
$DIMSE2
 70
0
  9
$DIMTAD
 70
1
  9
$DIMZIN
 70
8
  9
$DIMBLK
  1

  9
$DIMASO
 70
1
  9
$DIMSHO
 70
1
  9
$DIMPOST
  1

  9
$DIMAPOST
  1

  9
$DIMALT
 70
0
  9
$DIMALTD
 70
3
  9
$DIMALTF
 40
0.03937007874
  9
$DIMLFAC
 40
1.0
  9
$DIMTOFL
 70
1
  9
$DIMTVP
 40
0.0
  9
$DIMTIX
 70
0
  9
$DIMSOXD
 70
0
  9
$DIMSAH
 70
0
  9
$DIMBLK1
  1

  9
$DIMBLK2
  1

  9
$DIMSTYLE
  2
ISO-25
  9
$DIMCLRD
 70
0
  9
$DIMCLRE
 70
0
  9
$DIMCLRT
 70
0
  9
$DIMTFAC
 40
1.0
  9
$DIMGAP
 40
0.625
  9
$DIMJUST
 70
0
  9
$DIMSD1
 70
0
  9
$DIMSD2
 70
0
  9
$DIMTOLJ
 70
0
  9
$DIMTZIN
 70
8
  9
$DIMALTZ
 70
0
  9
$DIMALTTZ
 70
0
  9
$DIMUPT
 70
0
  9
$DIMDEC
 70
2
  9
$DIMTDEC
 70
2
  9
$DIMALTU
 70
2
  9
$DIMALTTD
 70
3
  9
$DIMTXSTY
  7
Standard
  9
$DIMAUNIT
 70
0
  9
$DIMADEC
 70
0
  9
$DIMALTRND
 40
0.0
  9
$DIMAZIN
 70
0
  9
$DIMDSEP
 70
44
  9
$DIMATFIT
 70
3
  9
$DIMFRAC
 70
0
  9
$DIMLDRBLK
  1

  9
$DIMLUNIT
 70
2
  9
$DIMLWD
 70
-2
  9
$DIMLWE
 70
-2
  9
$DIMTMOVE
 70
0
  9
$DIMFXL
 40
1.0
  9
$DIMFXLON
 70
0
  9
$DIMJOGANG
 40
0.785398163397
  9
$DIMTFILL
 70
0
  9
$DIMTFILLCLR
 70
0
  9
$DIMARCSYM
 70
0
  9
$DIMLTYPE
  6

  9
$DIMLTEX1
  6

  9
$DIMLTEX2
  6

  9
$DIMTXTDIRECTION
 70
0
  9
$LUNITS
 70
2
  9
$LUPREC
 70
4
  9
$SKETCHINC
 40
1.0
  9
$FILLETRAD
 40
10.0
  9
$AUNITS
 70
0
  9
$AUPREC
 70
2
  9
$MENU
  1
.
  9
$ELEVATION
 40
0.0
  9
$PELEVATION
 40
0.0
  9
$THICKNESS
 40
0.0
  9
$LIMCHECK
 70
0
  9
$CHAMFERA
 40
0.0
  9
$CHAMFERB
 40
0.0
  9
$CHAMFERC
 40
0.0
  9
$CHAMFERD
 40
0.0
  9
$SKPOLY
 70
0
  9
$TDCREATE
 40
2461324.0452777776
  9
$TDUCREATE
 40
2458532.153996898
  9
$TDUPDATE
 40
2461324.0452777776
  9
$TDUUPDATE
 40
2458532.1544311
  9
$TDINDWG
 40
0.0
  9
$TDUSRTIMER
 40
0.0
  9
$USRTIMER
 70
1
  9
$ANGBASE
 50
0.0
  9
$ANGDIR
 70
0
  9
$PDMODE
 70
0
  9
$PDSIZE
 40
0.0
  9
$PLINEWID
 40
0.0
  9
$SPLFRAME
 70
0
  9
$SPLINETYPE
 70
6
  9
$SPLINESEGS
 70
8
  9
$HANDSEED
  5
199
  9
$SURFTAB1
 70
6
  9
$SURFTAB2
 70
6
  9
$SURFTYPE
 70
6
  9
$SURFU
 70
6
  9
$SURFV
 70
6
  9
$UCSBASE
  2

  9
$UCSNAME
  2

  9
$UCSORG
 10
0.0
 20
0.0
 30
0.0
  9
$UCSXDIR
 10
1.0
 20
0.0
 30
0.0
  9
$UCSYDIR
 10
0.0
 20
1.0
 30
0.0
  9
$UCSORTHOREF
  2

  9
$UCSORTHOVIEW
 70
0
  9
$UCSORGTOP
 10
0.0
 20
0.0
 30
0.0
  9
$UCSORGBOTTOM
 10
0.0
 20
0.0
 30
0.0
  9
$UCSORGLEFT
 10
0.0
 20
0.0
 30
0.0
  9
$UCSORGRIGHT
 10
0.0
 20
0.0
 30
0.0
  9
$UCSORGFRONT
 10
0.0
 20
0.0
 30
0.0
  9
$UCSORGBACK
 10
0.0
 20
0.0
 30
0.0
  9
$PUCSBASE
  2

  9
$PUCSNAME
  2

  9
$PUCSORG
 10
0.0
 20
0.0
 30
0.0
  9
$PUCSXDIR
 10
1.0
 20
0.0
 30
0.0
  9
$PUCSYDIR
 10
0.0
 20
1.0
 30
0.0
  9
$PUCSORTHOREF
  2

  9
$PUCSORTHOVIEW
 70
0
  9
$PUCSORGTOP
 10
0.0
 20
0.0
 30
0.0
  9
$PUCSORGBOTTOM
 10
0.0
 20
0.0
 30
0.0
  9
$PUCSORGLEFT
 10
0.0
 20
0.0
 30
0.0
  9
$PUCSORGRIGHT
 10
0.0
 20
0.0
 30
0.0
  9
$PUCSORGFRONT
 10
0.0
 20
0.0
 30
0.0
  9
$PUCSORGBACK
 10
0.0
 20
0.0
 30
0.0
  9
$USERI1
 70
0
  9
$USERI2
 70
0
  9
$USERI3
 70
0
  9
$USERI4
 70
0
  9
$USERI5
 70
0
  9
$USERR1
 40
0.0
  9
$USERR2
 40
0.0
  9
$USERR3
 40
0.0
  9
$USERR4
 40
0.0
  9
$USERR5
 40
0.0
  9
$WORLDVIEW
 70
1
  9
$SHADEDGE
 70
3
  9
$SHADEDIF
 70
70
  9
$TILEMODE
 70
1
  9
$MAXACTVP
 70
64
  9
$PINSBASE
 10
0.0
 20
0.0
 30
0.0
  9
$PLIMCHECK
 70
0
  9
$PEXTMIN
 10
1e+20
 20
1e+20
 30
1e+20
  9
$PEXTMAX
 10
-1e+20
 20
-1e+20
 30
-1e+20
  9
$PLIMMIN
 10
0.0
 20
0.0
  9
$PLIMMAX
 10
420.0
 20
297.0
  9
$UNITMODE
 70
0
  9
$VISRETAIN
 70
1
  9
$PLINEGEN
 70
0
  9
$PSLTSCALE
 70
1
  9
$TREEDEPTH
 70
3020
  9
$CMLSTYLE
  2
Standard
  9
$CMLJUST
 70
0
  9
$CMLSCALE
 40
20.0
  9
$PROXYGRAPHICS
 70
1
  9
$MEASUREMENT
 70
1
  9
$CELWEIGHT
370
-1
  9
$ENDCAPS
280
0
  9
$JOINSTYLE
280
0
  9
$LWDISPLAY
290
0
  9
$INSUNITS
 70
4
  9
$HYPERLINKBASE
  1

  9
$STYLESHEET
  1

  9
$XEDIT
290
1
  9
$CEPSNTYPE
380
0
  9
$PSTYLEMODE
290
1
  9
$FINGERPRINTGUID
  2
{E0BC5026-D28F-410B-99AB-7DB8EC7E36B6}
  9
$VERSIONGUID
  2
{D8EE6E50-6423-47BE-A366-E8E2DA692785}
  9
$EXTNAMES
290
1
  9
$PSVPSCALE
 40
0.0
  9
$OLESTARTUP
290
0
  9
$SORTENTS
280
127
  9
$INDEXCTL
280
0
  9
$HIDETEXT
280
1
  9
$XCLIPFRAME
280
1
  9
$HALOGAP
280
0
  9
$OBSCOLOR
 70
257
  9
$OBSLTYPE
280
0
  9
$INTERSECTIONDISPLAY
280
0
  9
$INTERSECTIONCOLOR
 70
257
  9
$DIMASSOC
280
2
  9
$PROJECTNAME
  1

  9
$CAMERADISPLAY
290
0
  9
$LENSLENGTH
 40
50.0
  9
$CAMERAHEIGHT
 40
0.0
  9
$STEPSPERSEC
 40
24.0
  9
$STEPSIZE
 40
100.0
  9
$3DDWFPREC
 40
2.0
  9
$PSOLWIDTH
 40
0.005
  9
$PSOLHEIGHT
 40
0.08
  9
$LOFTANG1
 40
1.570796326795
  9
$LOFTANG2
 40
1.570796326795
  9
$LOFTMAG1
 40
0.0
  9
$LOFTMAG2
 40
0.0
  9
$LOFTPARAM
 70
7
  9
$LOFTNORMALS
280
1
  9
$LATITUDE
 40
37.795
  9
$LONGITUDE
 40
-122.394
  9
$NORTHDIRECTION
 40
0.0
  9
$TIMEZONE
 70
-8000
  9
$LIGHTGLYPHDISPLAY
280
1
  9
$TILEMODELIGHTSYNCH
280
1
  9
$CMATERIAL
347
20
  9
$SOLIDHIST
280
0
  9
$SHOWHIST
280
1
  9
$DWFFRAME
280
2
  9
$DGNFRAME
280
2
  9
$REALWORLDSCALE
290
1
  9
$INTERFERECOLOR
 62
256
  9
$CSHADOW
280
0
  9
$SHADOWPLANELOCATION
 40
0.0
  0
ENDSEC
  0
SECTION
  2
CLASSES
  0
CLASS
  1
ACDBDICTIONARYWDFLT
  2
AcDbDictionaryWithDefault
  3
ObjectDBX Classes
 90
0
 91
0
280
0
281
0
  0
CLASS
  1
SUN
  2
AcDbSun
  3
SCENEOE
 90
1153
 91
0
280
0
281
0
  0
CLASS
  1
VISUALSTYLE
  2
AcDbVisualStyle
  3
ObjectDBX Classes
 90
4095
 91
0
280
0
281
0
  0
CLASS
  1
MATERIAL
  2
AcDbMaterial
  3
ObjectDBX Classes
 90
1153
 91
0
280
0
281
0
  0
CLASS
  1
SCALE
  2
AcDbScale
  3
ObjectDBX Classes
 90
1153
 91
0
280
0
281
0
  0
CLASS
  1
TABLESTYLE
  2
AcDbTableStyle
  3
ObjectDBX Classes
 90
4095
 91
0
280
0
281
0
  0
CLASS
  1
MLEADERSTYLE
  2
AcDbMLeaderStyle
  3
ACDB_MLEADERSTYLE_CLASS
 90
4095
 91
0
280
0
281
0
  0
CLASS
  1
DICTIONARYVAR
  2
AcDbDictionaryVar
  3
ObjectDBX Classes
 90
0
 91
0
280
0
281
0
  0
CLASS
  1
CELLSTYLEMAP
  2
AcDbCellStyleMap
  3
ObjectDBX Classes
 90
1152
 91
0
280
0
281
0
  0
CLASS
  1
MENTALRAYRENDERSETTINGS
  2
AcDbMentalRayRenderSettings
  3
SCENEOE
 90
1024
 91
0
280
0
281
0
  0
CLASS
  1
ACDBDETAILVIEWSTYLE
  2
AcDbDetailViewStyle
  3
ObjectDBX Classes
 90
1025
 91
0
280
0
281
0
  0
CLASS
  1
ACDBSECTIONVIEWSTYLE
  2
AcDbSectionViewStyle
  3
ObjectDBX Classes
 90
1025
 91
0
280
0
281
0
  0
CLASS
  1
RASTERVARIABLES
  2
AcDbRasterVariables
  3
ISM
 90
0
 91
0
280
0
281
0
  0
CLASS
  1
LAYOUT
  2
AcDbLayout
  3
ObjectDBX Classes
 90
0
 91
0
280
0
281
0
  0
CLASS
  1
ACDBPLACEHOLDER
  2
AcDbPlaceHolder
  3
ObjectDBX Classes
 90
0
 91
0
280
0
281
0
  0
ENDSEC
  0
SECTION
  2
TABLES
  0
TABLE
  2
VPORT
  5
8
330
0
100
AcDbSymbolTable
 70
1
  0
VPORT
  5
23
330
8
100
AcDbSymbolTableRecord
100
AcDbViewportTableRecord
  2
*Active
 70
0
 10
0.0
 20
0.0
 11
1.0
 21
1.0
 12
0.0
 22
0.0
 13
0.0
 23
0.0
 14
0.5
 24
0.5
 15
0.5
 25
0.5
 16
0.0
 26
0.0
 36
1.0
 17
0.0
 27
0.0
 37
0.0
 40
1000.0
 41
1.34
 42
50.0
 43
0.0
 44
0.0
 50
0.0
 51
0.0
 71
0
 72
1000
 73
1
 74
3
 75
0
 76
0
 77
0
 78
0
281
0
 65
0
146
0.0
  0
ENDTAB
  0
TABLE
  2
LTYPE
  5
2
330
0
100
AcDbSymbolTable
 70
3
  0
LTYPE
  5
24
330
2
100
AcDbSymbolTableRecord
100
AcDbLinetypeTableRecord
  2
ByBlock
 70
0
  3

 72
65
 73
0
 40
0.0
  0
LTYPE
  5
25
330
2
100
AcDbSymbolTableRecord
100
AcDbLinetypeTableRecord
  2
ByLayer
 70
0
  3

 72
65
 73
0
 40
0.0
  0
LTYPE
  5
26
330
2
100
AcDbSymbolTableRecord
100
AcDbLinetypeTableRecord
  2
Continuous
 70
0
  3

 72
65
 73
0
 40
0.0
  0
ENDTAB
  0
TABLE
  2
LAYER
  5
1
330
0
100
AcDbSymbolTable
 70
9
  0
LAYER
  5
27
330
1
100
AcDbSymbolTableRecord
100
AcDbLayerTableRecord
  2
0
 70
0
 62
7
  6
Continuous
370
-3
390
13
347
21
  0
LAYER
  5
28
330
1
100
AcDbSymbolTableRecord
100
AcDbLayerTableRecord
  2
Defpoints
 70
0
 62
7
  6
Continuous
290
0
370
-3
390
13
347
21
  0
LAYER
  5
2F
330
1
100
AcDbSymbolTableRecord
100
AcDbLayerTableRecord
  2
OUTSIDE_THROUGH
 70
0
 62
7
  6
Continuous
370
-3
390
13
347
21
  0
LAYER
  5
31
330
1
100
AcDbSymbolTableRecord
100
AcDbLayerTableRecord
  2
A_SIDE_GROOVE_5.5
 70
0
 62
7
  6
Continuous
370
-3
390
13
347
21
  0
LAYER
  5
32
330
1
100
AcDbSymbolTableRecord
100
AcDbLayerTableRecord
  2
EDGE_BANDING
 70
0
 62
7
  6
Continuous
370
-3
390
13
347
21
  0
LAYER
  5
33
330
1
100
AcDbSymbolTableRecord
100
AcDbLayerTableRecord
  2
GRAIN_DIRECTION
 70
0
 62
3
  6
Continuous
370
-3
390
13
347
21
  0
LAYER
  5
E8
330
1
100
AcDbSymbolTableRecord
100
AcDbLayerTableRecord
  2
B_SIDE_GROOVE_5.5
 70
0
 62
7
  6
Continuous
370
-3
390
13
347
21
  0
LAYER
  5
179
330
1
100
AcDbSymbolTableRecord
100
AcDbLayerTableRecord
  2
SHEET_BOUNDARY
 70
0
 62
8
  6
Continuous
290
0
370
-3
390
13
347
21
  0
LAYER
  5
17A
330
1
100
AcDbSymbolTableRecord
100
AcDbLayerTableRecord
  2
PART_LABELS
 70
0
 62
3
  6
Continuous
290
0
370
-3
390
13
347
21
  0
ENDTAB
  0
TABLE
  2
STYLE
  5
5
330
0
100
AcDbSymbolTable
 70
1
  0
STYLE
  5
29
330
5
100
AcDbSymbolTableRecord
100
AcDbTextStyleTableRecord
  2
Standard
 70
0
 40
0.0
 41
1.0
 50
0.0
 71
0
 42
2.5
  3
txt
  4

  0
ENDTAB
  0
TABLE
  2
VIEW
  5
7
330
0
100
AcDbSymbolTable
 70
0
  0
ENDTAB
  0
TABLE
  2
UCS
  5
6
330
0
100
AcDbSymbolTable
 70
0
  0
ENDTAB
  0
TABLE
  2
APPID
  5
3
330
0
100
AcDbSymbolTable
 70
3
  0
APPID
  5
2A
330
3
100
AcDbSymbolTableRecord
100
AcDbRegAppTableRecord
  2
ACAD
 70
0
  0
APPID
  5
196
330
3
100
AcDbSymbolTableRecord
100
AcDbRegAppTableRecord
  2
HATCHBACKGROUNDCOLOR
 70
0
  0
APPID
  5
197
330
3
100
AcDbSymbolTableRecord
100
AcDbRegAppTableRecord
  2
EZDXF
 70
0
  0
ENDTAB
  0
TABLE
  2
DIMSTYLE
  5
4
330
0
100
AcDbSymbolTable
 70
1
100
AcDbDimStyleTable
  0
DIMSTYLE
105
2B
330
4
100
AcDbSymbolTableRecord
100
AcDbDimStyleTableRecord
  2
Standard
 70
0
 40
1.0
 41
2.5
 42
0.625
 43
3.75
 44
1.25
 45
0.0
 46
0.0
 47
0.0
 48
0.0
 49
2.5
140
2.5
141
2.5
142
0.0
143
0.03937007874
144
1.0
145
0.0
146
1.0
147
0.625
148
0.0
 69
0
 70
0
 71
0
 72
0
 73
0
 74
0
 75
0
 76
0
 77
1
 78
8
 79
3
170
0
171
3
172
1
173
0
174
0
175
0
176
0
177
0
178
0
179
2
271
2
272
2
273
2
274
3
275
0
276
0
277
2
278
44
279
0
280
0
281
0
282
0
283
0
284
8
285
0
286
0
288
0
289
3
290
0
371
-2
372
-2
  0
ENDTAB
  0
TABLE
  2
BLOCK_RECORD
  5
9
330
0
100
AcDbSymbolTable
 70
2
  0
BLOCK_RECORD
  5
17
330
9
100
AcDbSymbolTableRecord
100
AcDbBlockTableRecord
  2
*Model_Space
340
1A
 70
0
280
1
281
0
  0
BLOCK_RECORD
  5
1B
330
9
100
AcDbSymbolTableRecord
100
AcDbBlockTableRecord
  2
*Paper_Space
340
1E
 70
0
280
1
281
0
  0
ENDTAB
  0
ENDSEC
  0
SECTION
  2
BLOCKS
  0
BLOCK
  5
18
330
17
100
AcDbEntity
  8
0
100
AcDbBlockBegin
  2
*Model_Space
 70
0
 10
0.0
 20
0.0
 30
0.0
  3
*Model_Space
  1

  0
ENDBLK
  5
19
330
17
100
AcDbEntity
  8
0
100
AcDbBlockEnd
  0
BLOCK
  5
1C
330
1B
100
AcDbEntity
  8
0
100
AcDbBlockBegin
  2
*Paper_Space
 70
0
 10
0.0
 20
0.0
 30
0.0
  3
*Paper_Space
  1

  0
ENDBLK
  5
1D
330
1B
100
AcDbEntity
  8
0
100
AcDbBlockEnd
  0
ENDSEC
  0
SECTION
  2
ENTITIES
  0
LWPOLYLINE
  5
34
330
17
100
AcDbEntity
  8
OUTSIDE_THROUGH
100
AcDbPolyline
 90
8
 70
1
 10
77.01
 20
14.5
 10
77.01
 20
0.0
 10
457.01
 20
0.0
 10
457.01
 20
14.5
 10
532.01
 20
14.5
 10
532.01
 20
173.0
 10
2.01
 20
173.0
 10
2.01
 20
14.5
  0
LWPOLYLINE
  5
35
330
17
100
AcDbEntity
  8
A_SIDE_GROOVE_5.5
100
AcDbPolyline
 90
8
 70
1
 10
2.0
 20
14.5
 10
532.02
 20
14.5
 42
0.4142135623730951
 10
534.02
 20
16.5
 10
534.02
 20
20.0
 42
0.4142135623730951
 10
532.02
 20
22.0
 10
2.0
 20
22.0
 42
0.4142135623730951
 10
0.0
 20
20.0
 10
0.0
 20
16.5
 42
0.4142135623730951
  0
LINE
  5
36
330
17
100
AcDbEntity
  8
EDGE_BANDING
100
AcDbLine
 10
77.01
 20
0.0
 30
0.0
 11
457.01
 21
0.0
 31
0.0
  0
LINE
  5
37
330
17
100
AcDbEntity
  8
EDGE_BANDING
100
AcDbLine
 10
2.01
 20
173.0
 30
0.0
 11
532.01
 21
173.0
 31
0.0
  0
LINE
  5
38
330
17
100
AcDbEntity
  8
GRAIN_DIRECTION
100
AcDbLine
 10
161.01
 20
86.5
 30
0.0
 11
373.01
 21
86.5
 31
0.0
  0
LINE
  5
39
330
17
100
AcDbEntity
  8
GRAIN_DIRECTION
100
AcDbLine
 10
358.01
 20
79.0
 30
0.0
 11
373.01
 21
86.5
 31
0.0
  0
LINE
  5
3A
330
17
100
AcDbEntity
  8
GRAIN_DIRECTION
100
AcDbLine
 10
358.01
 20
94.0
 30
0.0
 11
373.01
 21
86.5
 31
0.0
  0
LWPOLYLINE
  5
40
330
17
100
AcDbEntity
  8
OUTSIDE_THROUGH
100
AcDbPolyline
 90
8
 70
1
 10
77.01
 20
189.5
 10
77.01
 20
175.0
 10
457.01
 20
175.0
 10
457.01
 20
189.5
 10
532.01
 20
189.5
 10
532.01
 20
348.0
 10
2.01
 20
348.0
 10
2.01
 20
189.5
  0
LWPOLYLINE
  5
41
330
17
100
AcDbEntity
  8
A_SIDE_GROOVE_5.5
100
AcDbPolyline
 90
8
 70
1
 10
2.0
 20
189.5
 10
532.02
 20
189.5
 42
0.4142135623730951
 10
534.02
 20
191.5
 10
534.02
 20
195.0
 42
0.4142135623730951
 10
532.02
 20
197.0
 10
2.0
 20
197.0
 42
0.4142135623730951
 10
0.0
 20
195.0
 10
0.0
 20
191.5
 42
0.4142135623730951
  0
LINE
  5
42
330
17
100
AcDbEntity
  8
EDGE_BANDING
100
AcDbLine
 10
77.01
 20
175.0
 30
0.0
 11
457.01
 21
175.0
 31
0.0
  0
LINE
  5
43
330
17
100
AcDbEntity
  8
EDGE_BANDING
100
AcDbLine
 10
2.01
 20
348.0
 30
0.0
 11
532.01
 21
348.0
 31
0.0
  0
LINE
  5
44
330
17
100
AcDbEntity
  8
GRAIN_DIRECTION
100
AcDbLine
 10
161.01
 20
261.5
 30
0.0
 11
373.01
 21
261.5
 31
0.0
  0
LINE
  5
45
330
17
100
AcDbEntity
  8
GRAIN_DIRECTION
100
AcDbLine
 10
358.01
 20
254.0
 30
0.0
 11
373.01
 21
261.5
 31
0.0
  0
LINE
  5
46
330
17
100
AcDbEntity
  8
GRAIN_DIRECTION
100
AcDbLine
 10
358.01
 20
269.0
 30
0.0
 11
373.01
 21
261.5
 31
0.0
  0
LWPOLYLINE
  5
4C
330
17
100
AcDbEntity
  8
OUTSIDE_THROUGH
100
AcDbPolyline
 90
8
 70
1
 10
77.01
 20
364.5
 10
77.01
 20
350.0
 10
457.01
 20
350.0
 10
457.01
 20
364.5
 10
532.01
 20
364.5
 10
532.01
 20
523.0
 10
2.01
 20
523.0
 10
2.01
 20
364.5
  0
LWPOLYLINE
  5
4D
330
17
100
AcDbEntity
  8
A_SIDE_GROOVE_5.5
100
AcDbPolyline
 90
8
 70
1
 10
2.0
 20
364.5
 10
532.02
 20
364.5
 42
0.4142135623730951
 10
534.02
 20
366.5
 10
534.02
 20
370.0
 42
0.4142135623730951
 10
532.02
 20
372.0
 10
2.0
 20
372.0
 42
0.4142135623730951
 10
0.0
 20
370.0
 10
0.0
 20
366.5
 42
0.4142135623730951
  0
LINE
  5
4E
330
17
100
AcDbEntity
  8
EDGE_BANDING
100
AcDbLine
 10
77.01
 20
350.0
 30
0.0
 11
457.01
 21
350.0
 31
0.0
  0
LINE
  5
4F
330
17
100
AcDbEntity
  8
EDGE_BANDING
100
AcDbLine
 10
2.01
 20
523.0
 30
0.0
 11
532.01
 21
523.0
 31
0.0
  0
LINE
  5
50
330
17
100
AcDbEntity
  8
GRAIN_DIRECTION
100
AcDbLine
 10
161.01
 20
436.5
 30
0.0
 11
373.01
 21
436.5
 31
0.0
  0
LINE
  5
51
330
17
100
AcDbEntity
  8
GRAIN_DIRECTION
100
AcDbLine
 10
358.01
 20
429.0
 30
0.0
 11
373.01
 21
436.5
 31
0.0
  0
LINE
  5
52
330
17
100
AcDbEntity
  8
GRAIN_DIRECTION
100
AcDbLine
 10
358.01
 20
444.0
 30
0.0
 11
373.01
 21
436.5
 31
0.0
  0
LWPOLYLINE
  5
58
330
17
100
AcDbEntity
  8
OUTSIDE_THROUGH
100
AcDbPolyline
 90
8
 70
1
 10
77.01
 20
539.5
 10
77.01
 20
525.0
 10
457.01
 20
525.0
 10
457.01
 20
539.5
 10
532.01
 20
539.5
 10
532.01
 20
698.0
 10
2.01
 20
698.0
 10
2.01
 20
539.5
  0
LWPOLYLINE
  5
59
330
17
100
AcDbEntity
  8
A_SIDE_GROOVE_5.5
100
AcDbPolyline
 90
8
 70
1
 10
2.0
 20
539.5
 10
532.02
 20
539.5
 42
0.4142135623730951
 10
534.02
 20
541.5
 10
534.02
 20
545.0
 42
0.4142135623730951
 10
532.02
 20
547.0
 10
2.0
 20
547.0
 42
0.4142135623730951
 10
0.0
 20
545.0
 10
0.0
 20
541.5
 42
0.4142135623730951
  0
LINE
  5
5A
330
17
100
AcDbEntity
  8
EDGE_BANDING
100
AcDbLine
 10
77.01
 20
525.0
 30
0.0
 11
457.01
 21
525.0
 31
0.0
  0
LINE
  5
5B
330
17
100
AcDbEntity
  8
EDGE_BANDING
100
AcDbLine
 10
2.01
 20
698.0
 30
0.0
 11
532.01
 21
698.0
 31
0.0
  0
LINE
  5
5C
330
17
100
AcDbEntity
  8
GRAIN_DIRECTION
100
AcDbLine
 10
161.01
 20
611.5
 30
0.0
 11
373.01
 21
611.5
 31
0.0
  0
LINE
  5
5D
330
17
100
AcDbEntity
  8
GRAIN_DIRECTION
100
AcDbLine
 10
358.01
 20
604.0
 30
0.0
 11
373.01
 21
611.5
 31
0.0
  0
LINE
  5
5E
330
17
100
AcDbEntity
  8
GRAIN_DIRECTION
100
AcDbLine
 10
358.01
 20
619.0
 30
0.0
 11
373.01
 21
611.5
 31
0.0
  0
LWPOLYLINE
  5
64
330
17
100
AcDbEntity
  8
OUTSIDE_THROUGH
100
AcDbPolyline
 90
4
 70
1
 10
0.0
 20
700.0
 10
290.0
 20
700.0
 10
290.0
 20
873.0
 10
0.0
 20
873.0
  0
LWPOLYLINE
  5
65
330
17
100
AcDbEntity
  8
A_SIDE_GROOVE_5.5
100
AcDbPolyline
 90
8
 70
1
 10
8.0
 20
714.5
 10
282.0
 20
714.5
 42
0.4142135623730951
 10
284.0
 20
716.5
 10
284.0
 20
720.0
 42
0.4142135623730951
 10
282.0
 20
722.0
 10
8.0
 20
722.0
 42
0.4142135623730951
 10
6.0
 20
720.0
 10
6.0
 20
716.5
 42
0.4142135623730951
  0
LINE
  5
66
330
17
100
AcDbEntity
  8
EDGE_BANDING
100
AcDbLine
 10
0.0
 20
700.0
 30
0.0
 11
290.0
 21
700.0
 31
0.0
  0
LINE
  5
67
330
17
100
AcDbEntity
  8
EDGE_BANDING
100
AcDbLine
 10
0.0
 20
873.0
 30
0.0
 11
290.0
 21
873.0
 31
0.0
  0
LINE
  5
68
330
17
100
AcDbEntity
  8
EDGE_BANDING
100
AcDbLine
 10
0.0
 20
700.0
 30
0.0
 11
0.0
 21
873.0
 31
0.0
  0
LINE
  5
69
330
17
100
AcDbEntity
  8
GRAIN_DIRECTION
100
AcDbLine
 10
87.0
 20
786.5
 30
0.0
 11
203.0
 21
786.5
 31
0.0
  0
LINE
  5
6A
330
17
100
AcDbEntity
  8
GRAIN_DIRECTION
100
AcDbLine
 10
188.0
 20
779.0
 30
0.0
 11
203.0
 21
786.5
 31
0.0
  0
LINE
  5
6B
330
17
100
AcDbEntity
  8
GRAIN_DIRECTION
100
AcDbLine
 10
188.0
 20
794.0
 30
0.0
 11
203.0
 21
786.5
 31
0.0
  0
LWPOLYLINE
  5
71
330
17
100
AcDbEntity
  8
OUTSIDE_THROUGH
100
AcDbPolyline
 90
4
 70
1
 10
0.0
 20
875.0
 10
290.0
 20
875.0
 10
290.0
 20
1048.0
 10
0.0
 20
1048.0
  0
LWPOLYLINE
  5
72
330
17
100
AcDbEntity
  8
A_SIDE_GROOVE_5.5
100
AcDbPolyline
 90
8
 70
1
 10
8.0
 20
889.5
 10
282.0
 20
889.5
 42
0.4142135623730951
 10
284.0
 20
891.5
 10
284.0
 20
895.0
 42
0.4142135623730951
 10
282.0
 20
897.0
 10
8.0
 20
897.0
 42
0.4142135623730951
 10
6.0
 20
895.0
 10
6.0
 20
891.5
 42
0.4142135623730951
  0
LINE
  5
73
330
17
100
AcDbEntity
  8
EDGE_BANDING
100
AcDbLine
 10
0.0
 20
875.0
 30
0.0
 11
290.0
 21
875.0
 31
0.0
  0
LINE
  5
74
330
17
100
AcDbEntity
  8
EDGE_BANDING
100
AcDbLine
 10
0.0
 20
1048.0
 30
0.0
 11
290.0
 21
1048.0
 31
0.0
  0
LINE
  5
75
330
17
100
AcDbEntity
  8
EDGE_BANDING
100
AcDbLine
 10
290.0
 20
875.0
 30
0.0
 11
290.0
 21
1048.0
 31
0.0
  0
LINE
  5
76
330
17
100
AcDbEntity
  8
GRAIN_DIRECTION
100
AcDbLine
 10
87.0
 20
961.5
 30
0.0
 11
203.0
 21
961.5
 31
0.0
  0
LINE
  5
77
330
17
100
AcDbEntity
  8
GRAIN_DIRECTION
100
AcDbLine
 10
188.0
 20
954.0
 30
0.0
 11
203.0
 21
961.5
 31
0.0
  0
LINE
  5
78
330
17
100
AcDbEntity
  8
GRAIN_DIRECTION
100
AcDbLine
 10
188.0
 20
969.0
 30
0.0
 11
203.0
 21
961.5
 31
0.0
  0
LWPOLYLINE
  5
7E
330
17
100
AcDbEntity
  8
OUTSIDE_THROUGH
100
AcDbPolyline
 90
4
 70
1
 10
292.0
 20
700.0
 10
582.0
 20
700.0
 10
582.0
 20
873.0
 10
292.0
 20
873.0
  0
LWPOLYLINE
  5
7F
330
17
100
AcDbEntity
  8
A_SIDE_GROOVE_5.5
100
AcDbPolyline
 90
8
 70
1
 10
300.0
 20
714.5
 10
574.0
 20
714.5
 42
0.4142135623730951
 10
576.0
 20
716.5
 10
576.0
 20
720.0
 42
0.4142135623730951
 10
574.0
 20
722.0
 10
300.0
 20
722.0
 42
0.4142135623730951
 10
298.0
 20
720.0
 10
298.0
 20
716.5
 42
0.4142135623730951
  0
LINE
  5
80
330
17
100
AcDbEntity
  8
EDGE_BANDING
100
AcDbLine
 10
292.0
 20
700.0
 30
0.0
 11
582.0
 21
700.0
 31
0.0
  0
LINE
  5
81
330
17
100
AcDbEntity
  8
EDGE_BANDING
100
AcDbLine
 10
292.0
 20
873.0
 30
0.0
 11
582.0
 21
873.0
 31
0.0
  0
LINE
  5
82
330
17
100
AcDbEntity
  8
EDGE_BANDING
100
AcDbLine
 10
292.0
 20
700.0
 30
0.0
 11
292.0
 21
873.0
 31
0.0
  0
LINE
  5
83
330
17
100
AcDbEntity
  8
GRAIN_DIRECTION
100
AcDbLine
 10
379.0
 20
786.5
 30
0.0
 11
495.0
 21
786.5
 31
0.0
  0
LINE
  5
84
330
17
100
AcDbEntity
  8
GRAIN_DIRECTION
100
AcDbLine
 10
480.0
 20
779.0
 30
0.0
 11
495.0
 21
786.5
 31
0.0
  0
LINE
  5
85
330
17
100
AcDbEntity
  8
GRAIN_DIRECTION
100
AcDbLine
 10
480.0
 20
794.0
 30
0.0
 11
495.0
 21
786.5
 31
0.0
  0
LWPOLYLINE
  5
8B
330
17
100
AcDbEntity
  8
OUTSIDE_THROUGH
100
AcDbPolyline
 90
4
 70
1
 10
292.0
 20
875.0
 10
582.0
 20
875.0
 10
582.0
 20
1048.0
 10
292.0
 20
1048.0
  0
LWPOLYLINE
  5
8C
330
17
100
AcDbEntity
  8
A_SIDE_GROOVE_5.5
100
AcDbPolyline
 90
8
 70
1
 10
300.0
 20
889.5
 10
574.0
 20
889.5
 42
0.4142135623730951
 10
576.0
 20
891.5
 10
576.0
 20
895.0
 42
0.4142135623730951
 10
574.0
 20
897.0
 10
300.0
 20
897.0
 42
0.4142135623730951
 10
298.0
 20
895.0
 10
298.0
 20
891.5
 42
0.4142135623730951
  0
LINE
  5
8D
330
17
100
AcDbEntity
  8
EDGE_BANDING
100
AcDbLine
 10
292.0
 20
875.0
 30
0.0
 11
582.0
 21
875.0
 31
0.0
  0
LINE
  5
8E
330
17
100
AcDbEntity
  8
EDGE_BANDING
100
AcDbLine
 10
292.0
 20
1048.0
 30
0.0
 11
582.0
 21
1048.0
 31
0.0
  0
LINE
  5
8F
330
17
100
AcDbEntity
  8
EDGE_BANDING
100
AcDbLine
 10
582.0
 20
875.0
 30
0.0
 11
582.0
 21
1048.0
 31
0.0
  0
LINE
  5
90
330
17
100
AcDbEntity
  8
GRAIN_DIRECTION
100
AcDbLine
 10
379.0
 20
961.5
 30
0.0
 11
495.0
 21
961.5
 31
0.0
  0
LINE
  5
91
330
17
100
AcDbEntity
  8
GRAIN_DIRECTION
100
AcDbLine
 10
480.0
 20
954.0
 30
0.0
 11
495.0
 21
961.5
 31
0.0
  0
LINE
  5
92
330
17
100
AcDbEntity
  8
GRAIN_DIRECTION
100
AcDbLine
 10
480.0
 20
969.0
 30
0.0
 11
495.0
 21
961.5
 31
0.0
  0
LWPOLYLINE
  5
98
330
17
100
AcDbEntity
  8
OUTSIDE_THROUGH
100
AcDbPolyline
 90
8
 70
1
 10
77.01
 20
1071.5
 10
77.01
 20
1050.0
 10
497.01
 20
1050.0
 10
497.01
 20
1071.5
 10
572.01
 20
1071.5
 10
572.01
 20
1107.0
 10
2.01
 20
1107.0
 10
2.01
 20
1071.5
  0
LWPOLYLINE
  5
99
330
17
100
AcDbEntity
  8
A_SIDE_GROOVE_5.5
100
AcDbPolyline
 90
8
 70
1
 10
2.0
 20
1071.5
 10
148.51
 20
1071.5
 42
0.4142135623730951
 10
150.51
 20
1073.5
 10
150.51
 20
1077.0
 42
0.4142135623730951
 10
148.51
 20
1079.0
 10
2.0
 20
1079.0
 42
0.4142135623730951
 10
0.0
 20
1077.0
 10
0.0
 20
1073.5
 42
0.4142135623730951
  0
LWPOLYLINE
  5
9A
330
17
100
AcDbEntity
  8
A_SIDE_GROOVE_5.5
100
AcDbPolyline
 90
8
 70
1
 10
425.51
 20
1071.5
 10
572.02
 20
1071.5
 42
0.4142135623730951
 10
574.02
 20
1073.5
 10
574.02
 20
1077.0
 42
0.4142135623730951
 10
572.02
 20
1079.0
 10
425.51
 20
1079.0
 42
0.4142135623730951
 10
423.51
 20
1077.0
 10
423.51
 20
1073.5
 42
0.4142135623730951
  0
LWPOLYLINE
  5
9B
330
17
100
AcDbEntity
  8
A_SIDE_GROOVE_5.5
100
AcDbPolyline
 90
8
 70
1
 10
150.51
 20
1056.0
 10
423.51
 20
1056.0
 42
0.4142135623730951
 10
425.51
 20
1058.0
 10
425.51
 20
1061.5
 42
0.4142135623730951
 10
423.51
 20
1063.5
 10
150.51
 20
1063.5
 42
0.4142135623730951
 10
148.51
 20
1061.5
 10
148.51
 20
1058.0
 42
0.4142135623730951
  0
LINE
  5
9C
330
17
100
AcDbEntity
  8
EDGE_BANDING
100
AcDbLine
 10
77.01
 20
1050.0
 30
0.0
 11
497.01
 21
1050.0
 31
0.0
  0
LINE
  5
9D
330
17
100
AcDbEntity
  8
EDGE_BANDING
100
AcDbLine
 10
2.01
 20
1107.0
 30
0.0
 11
572.01
 21
1107.0
 31
0.0
  0
LINE
  5
9E
330
17
100
AcDbEntity
  8
GRAIN_DIRECTION
100
AcDbLine
 10
173.01
 20
1078.5
 30
0.0
 11
401.01
 21
1078.5
 31
0.0
  0
LINE
  5
9F
330
17
100
AcDbEntity
  8
GRAIN_DIRECTION
100
AcDbLine
 10
392.46
 20
1074.225
 30
0.0
 11
401.01
 21
1078.5
 31
0.0
  0
LINE
  5
A0
330
17
100
AcDbEntity
  8
GRAIN_DIRECTION
100
AcDbLine
 10
392.46
 20
1082.775
 30
0.0
 11
401.01
 21
1078.5
 31
0.0
  0
LWPOLYLINE
  5
A6
330
17
100
AcDbEntity
  8
OUTSIDE_THROUGH
100
AcDbPolyline
 90
8
 70
1
 10
77.01
 20
1130.5
 10
77.01
 20
1109.0
 10
497.01
 20
1109.0
 10
497.01
 20
1130.5
 10
572.01
 20
1130.5
 10
572.01
 20
1166.0
 10
2.01
 20
1166.0
 10
2.01
 20
1130.5
  0
LWPOLYLINE
  5
A7
330
17
100
AcDbEntity
  8
A_SIDE_GROOVE_5.5
100
AcDbPolyline
 90
8
 70
1
 10
2.0
 20
1130.5
 10
148.51
 20
1130.5
 42
0.4142135623730951
 10
150.51
 20
1132.5
 10
150.51
 20
1136.0
 42
0.4142135623730951
 10
148.51
 20
1138.0
 10
2.0
 20
1138.0
 42
0.4142135623730951
 10
0.0
 20
1136.0
 10
0.0
 20
1132.5
 42
0.4142135623730951
  0
LWPOLYLINE
  5
A8
330
17
100
AcDbEntity
  8
A_SIDE_GROOVE_5.5
100
AcDbPolyline
 90
8
 70
1
 10
425.51
 20
1130.5
 10
572.02
 20
1130.5
 42
0.4142135623730951
 10
574.02
 20
1132.5
 10
574.02
 20
1136.0
 42
0.4142135623730951
 10
572.02
 20
1138.0
 10
425.51
 20
1138.0
 42
0.4142135623730951
 10
423.51
 20
1136.0
 10
423.51
 20
1132.5
 42
0.4142135623730951
  0
LWPOLYLINE
  5
A9
330
17
100
AcDbEntity
  8
A_SIDE_GROOVE_5.5
100
AcDbPolyline
 90
8
 70
1
 10
150.51
 20
1115.0
 10
423.51
 20
1115.0
 42
0.4142135623730951
 10
425.51
 20
1117.0
 10
425.51
 20
1120.5
 42
0.4142135623730951
 10
423.51
 20
1122.5
 10
150.51
 20
1122.5
 42
0.4142135623730951
 10
148.51
 20
1120.5
 10
148.51
 20
1117.0
 42
0.4142135623730951
  0
LINE
  5
AA
330
17
100
AcDbEntity
  8
EDGE_BANDING
100
AcDbLine
 10
77.01
 20
1109.0
 30
0.0
 11
497.01
 21
1109.0
 31
0.0
  0
LINE
  5
AB
330
17
100
AcDbEntity
  8
EDGE_BANDING
100
AcDbLine
 10
2.01
 20
1166.0
 30
0.0
 11
572.01
 21
1166.0
 31
0.0
  0
LINE
  5
AC
330
17
100
AcDbEntity
  8
GRAIN_DIRECTION
100
AcDbLine
 10
173.01
 20
1137.5
 30
0.0
 11
401.01
 21
1137.5
 31
0.0
  0
LINE
  5
AD
330
17
100
AcDbEntity
  8
GRAIN_DIRECTION
100
AcDbLine
 10
392.46
 20
1133.225
 30
0.0
 11
401.01
 21
1137.5
 31
0.0
  0
LINE
  5
AE
330
17
100
AcDbEntity
  8
GRAIN_DIRECTION
100
AcDbLine
 10
392.46
 20
1141.775
 30
0.0
 11
401.01
 21
1137.5
 31
0.0
  0
LWPOLYLINE
  5
B4
330
17
100
AcDbEntity
  8
OUTSIDE_THROUGH
100
AcDbPolyline
 90
8
 70
1
 10
653.03
 20
1071.5
 10
653.03
 20
1050.0
 10
1073.03
 20
1050.0
 10
1073.03
 20
1071.5
 10
1148.03
 20
1071.5
 10
1148.03
 20
1107.0
 10
578.03
 20
1107.0
 10
578.03
 20
1071.5
  0
LWPOLYLINE
  5
B5
330
17
100
AcDbEntity
  8
A_SIDE_GROOVE_5.5
100
AcDbPolyline
 90
8
 70
1
 10
578.02
 20
1071.5
 10
724.53
 20
1071.5
 42
0.4142135623730951
 10
726.53
 20
1073.5
 10
726.53
 20
1077.0
 42
0.4142135623730951
 10
724.53
 20
1079.0
 10
578.02
 20
1079.0
 42
0.4142135623730951
 10
576.02
 20
1077.0
 10
576.02
 20
1073.5
 42
0.4142135623730951
  0
LWPOLYLINE
  5
B6
330
17
100
AcDbEntity
  8
A_SIDE_GROOVE_5.5
100
AcDbPolyline
 90
8
 70
1
 10
1001.53
 20
1071.5
 10
1148.04
 20
1071.5
 42
0.4142135623730951
 10
1150.04
 20
1073.5
 10
1150.04
 20
1077.0
 42
0.4142135623730951
 10
1148.04
 20
1079.0
 10
1001.53
 20
1079.0
 42
0.4142135623730951
 10
999.53
 20
1077.0
 10
999.53
 20
1073.5
 42
0.4142135623730951
  0
LWPOLYLINE
  5
B7
330
17
100
AcDbEntity
  8
A_SIDE_GROOVE_5.5
100
AcDbPolyline
 90
8
 70
1
 10
726.53
 20
1056.0
 10
999.53
 20
1056.0
 42
0.4142135623730951
 10
1001.53
 20
1058.0
 10
1001.53
 20
1061.5
 42
0.4142135623730951
 10
999.53
 20
1063.5
 10
726.53
 20
1063.5
 42
0.4142135623730951
 10
724.53
 20
1061.5
 10
724.53
 20
1058.0
 42
0.4142135623730951
  0
LINE
  5
B8
330
17
100
AcDbEntity
  8
EDGE_BANDING
100
AcDbLine
 10
653.03
 20
1050.0
 30
0.0
 11
1073.03
 21
1050.0
 31
0.0
  0
LINE
  5
B9
330
17
100
AcDbEntity
  8
EDGE_BANDING
100
AcDbLine
 10
578.03
 20
1107.0
 30
0.0
 11
1148.03
 21
1107.0
 31
0.0
  0
LINE
  5
BA
330
17
100
AcDbEntity
  8
GRAIN_DIRECTION
100
AcDbLine
 10
749.03
 20
1078.5
 30
0.0
 11
977.03
 21
1078.5
 31
0.0
  0
LINE
  5
BB
330
17
100
AcDbEntity
  8
GRAIN_DIRECTION
100
AcDbLine
 10
968.48
 20
1074.225
 30
0.0
 11
977.03
 21
1078.5
 31
0.0
  0
LINE
  5
BC
330
17
100
AcDbEntity
  8
GRAIN_DIRECTION
100
AcDbLine
 10
968.48
 20
1082.775
 30
0.0
 11
977.03
 21
1078.5
 31
0.0
  0
LWPOLYLINE
  5
C2
330
17
100
AcDbEntity
  8
OUTSIDE_THROUGH
100
AcDbPolyline
 90
8
 70
1
 10
653.03
 20
1130.5
 10
653.03
 20
1109.0
 10
1073.03
 20
1109.0
 10
1073.03
 20
1130.5
 10
1148.03
 20
1130.5
 10
1148.03
 20
1166.0
 10
578.03
 20
1166.0
 10
578.03
 20
1130.5
  0
LWPOLYLINE
  5
C3
330
17
100
AcDbEntity
  8
A_SIDE_GROOVE_5.5
100
AcDbPolyline
 90
8
 70
1
 10
578.02
 20
1130.5
 10
724.53
 20
1130.5
 42
0.4142135623730951
 10
726.53
 20
1132.5
 10
726.53
 20
1136.0
 42
0.4142135623730951
 10
724.53
 20
1138.0
 10
578.02
 20
1138.0
 42
0.4142135623730951
 10
576.02
 20
1136.0
 10
576.02
 20
1132.5
 42
0.4142135623730951
  0
LWPOLYLINE
  5
C4
330
17
100
AcDbEntity
  8
A_SIDE_GROOVE_5.5
100
AcDbPolyline
 90
8
 70
1
 10
1001.53
 20
1130.5
 10
1148.04
 20
1130.5
 42
0.4142135623730951
 10
1150.04
 20
1132.5
 10
1150.04
 20
1136.0
 42
0.4142135623730951
 10
1148.04
 20
1138.0
 10
1001.53
 20
1138.0
 42
0.4142135623730951
 10
999.53
 20
1136.0
 10
999.53
 20
1132.5
 42
0.4142135623730951
  0
LWPOLYLINE
  5
C5
330
17
100
AcDbEntity
  8
A_SIDE_GROOVE_5.5
100
AcDbPolyline
 90
8
 70
1
 10
726.53
 20
1115.0
 10
999.53
 20
1115.0
 42
0.4142135623730951
 10
1001.53
 20
1117.0
 10
1001.53
 20
1120.5
 42
0.4142135623730951
 10
999.53
 20
1122.5
 10
726.53
 20
1122.5
 42
0.4142135623730951
 10
724.53
 20
1120.5
 10
724.53
 20
1117.0
 42
0.4142135623730951
  0
LINE
  5
C6
330
17
100
AcDbEntity
  8
EDGE_BANDING
100
AcDbLine
 10
653.03
 20
1109.0
 30
0.0
 11
1073.03
 21
1109.0
 31
0.0
  0
LINE
  5
C7
330
17
100
AcDbEntity
  8
EDGE_BANDING
100
AcDbLine
 10
578.03
 20
1166.0
 30
0.0
 11
1148.03
 21
1166.0
 31
0.0
  0
LINE
  5
C8
330
17
100
AcDbEntity
  8
GRAIN_DIRECTION
100
AcDbLine
 10
749.03
 20
1137.5
 30
0.0
 11
977.03
 21
1137.5
 31
0.0
  0
LINE
  5
C9
330
17
100
AcDbEntity
  8
GRAIN_DIRECTION
100
AcDbLine
 10
968.48
 20
1133.225
 30
0.0
 11
977.03
 21
1137.5
 31
0.0
  0
LINE
  5
CA
330
17
100
AcDbEntity
  8
GRAIN_DIRECTION
100
AcDbLine
 10
968.48
 20
1141.775
 30
0.0
 11
977.03
 21
1137.5
 31
0.0
  0
LWPOLYLINE
  5
D0
330
17
100
AcDbEntity
  8
OUTSIDE_THROUGH
100
AcDbPolyline
 90
4
 70
1
 10
0.0
 20
1168.0
 10
640.0
 20
1168.0
 10
640.0
 20
1211.0
 10
0.0
 20
1211.0
  0
LWPOLYLINE
  5
D1
330
17
100
AcDbEntity
  8
A_SIDE_GROOVE_5.5
100
AcDbPolyline
 90
8
 70
1
 10
7.5
 20
1182.5
 10
632.5
 20
1182.5
 42
0.4142135623730951
 10
634.5
 20
1184.5
 10
634.5
 20
1188.0
 42
0.4142135623730951
 10
632.5
 20
1190.0
 10
7.5
 20
1190.0
 42
0.4142135623730951
 10
5.5
 20
1188.0
 10
5.5
 20
1184.5
 42
0.4142135623730951
  0
LINE
  5
D2
330
17
100
AcDbEntity
  8
EDGE_BANDING
100
AcDbLine
 10
0.0
 20
1168.0
 30
0.0
 11
640.0
 21
1168.0
 31
0.0
  0
LINE
  5
D3
330
17
100
AcDbEntity
  8
EDGE_BANDING
100
AcDbLine
 10
0.0
 20
1211.0
 30
0.0
 11
640.0
 21
1211.0
 31
0.0
  0
LINE
  5
D4
330
17
100
AcDbEntity
  8
EDGE_BANDING
100
AcDbLine
 10
0.0
 20
1168.0
 30
0.0
 11
0.0
 21
1211.0
 31
0.0
  0
LINE
  5
D5
330
17
100
AcDbEntity
  8
GRAIN_DIRECTION
100
AcDbLine
 10
192.0
 20
1189.5
 30
0.0
 11
448.0
 21
1189.5
 31
0.0
  0
LINE
  5
D6
330
17
100
AcDbEntity
  8
GRAIN_DIRECTION
100
AcDbLine
 10
441.55
 20
1186.275
 30
0.0
 11
448.0
 21
1189.5
 31
0.0
  0
LINE
  5
D7
330
17
100
AcDbEntity
  8
GRAIN_DIRECTION
100
AcDbLine
 10
441.55
 20
1192.725
 30
0.0
 11
448.0
 21
1189.5
 31
0.0
  0
LWPOLYLINE
  5
DD
330
17
100
AcDbEntity
  8
OUTSIDE_THROUGH
100
AcDbPolyline
 90
4
 70
1
 10
642.0
 20
1168.0
 10
1282.0
 20
1168.0
 10
1282.0
 20
1211.0
 10
642.0
 20
1211.0
  0
LWPOLYLINE
  5
DE
330
17
100
AcDbEntity
  8
A_SIDE_GROOVE_5.5
100
AcDbPolyline
 90
8
 70
1
 10
649.5
 20
1182.5
 10
1274.5
 20
1182.5
 42
0.4142135623730951
 10
1276.5
 20
1184.5
 10
1276.5
 20
1188.0
 42
0.4142135623730951
 10
1274.5
 20
1190.0
 10
649.5
 20
1190.0
 42
0.4142135623730951
 10
647.5
 20
1188.0
 10
647.5
 20
1184.5
 42
0.4142135623730951
  0
LINE
  5
DF
330
17
100
AcDbEntity
  8
EDGE_BANDING
100
AcDbLine
 10
642.0
 20
1168.0
 30
0.0
 11
1282.0
 21
1168.0
 31
0.0
  0
LINE
  5
E0
330
17
100
AcDbEntity
  8
EDGE_BANDING
100
AcDbLine
 10
642.0
 20
1211.0
 30
0.0
 11
1282.0
 21
1211.0
 31
0.0
  0
LINE
  5
E1
330
17
100
AcDbEntity
  8
EDGE_BANDING
100
AcDbLine
 10
1282.0
 20
1168.0
 30
0.0
 11
1282.0
 21
1211.0
 31
0.0
  0
LINE
  5
E2
330
17
100
AcDbEntity
  8
GRAIN_DIRECTION
100
AcDbLine
 10
834.0
 20
1189.5
 30
0.0
 11
1090.0
 21
1189.5
 31
0.0
  0
LINE
  5
E3
330
17
100
AcDbEntity
  8
GRAIN_DIRECTION
100
AcDbLine
 10
1083.55
 20
1186.275
 30
0.0
 11
1090.0
 21
1189.5
 31
0.0
  0
LINE
  5
E4
330
17
100
AcDbEntity
  8
GRAIN_DIRECTION
100
AcDbLine
 10
1083.55
 20
1192.725
 30
0.0
 11
1090.0
 21
1189.5
 31
0.0
  0
LWPOLYLINE
  5
EB
330
17
100
AcDbEntity
  8
OUTSIDE_THROUGH
100
AcDbPolyline
 90
4
 70
1
 10
1286.01
 20
0.0
 10
1900.01
 20
0.0
 10
1900.01
 20
50.0
 10
1286.01
 20
50.0
  0
LWPOLYLINE
  5
EC
330
17
100
AcDbEntity
  8
A_SIDE_GROOVE_5.5
100
AcDbPolyline
 90
8
 70
1
 10
1286.0
 20
21.5
 10
1900.02
 20
21.5
 42
0.4142135623730951
 10
1902.02
 20
23.5
 10
1902.02
 20
27.0
 42
0.4142135623730951
 10
1900.02
 20
29.0
 10
1286.0
 20
29.0
 42
0.4142135623730951
 10
1284.0
 20
27.0
 10
1284.0
 20
23.5
 42
0.4142135623730951
  0
LWPOLYLINE
  5
ED
330
17
100
AcDbEntity
  8
B_SIDE_GROOVE_5.5
100
AcDbPolyline
 90
8
 70
1
 10
1286.0
 20
6.0
 10
1900.02
 20
6.0
 42
0.4142135623730951
 10
1902.02
 20
8.0
 10
1902.02
 20
11.5
 42
0.4142135623730951
 10
1900.02
 20
13.5
 10
1286.0
 20
13.5
 42
0.4142135623730951
 10
1284.0
 20
11.5
 10
1284.0
 20
8.0
 42
0.4142135623730951
  0
LINE
  5
EE
330
17
100
AcDbEntity
  8
EDGE_BANDING
100
AcDbLine
 10
1286.01
 20
0.0
 30
0.0
 11
1900.01
 21
0.0
 31
0.0
  0
LINE
  5
EF
330
17
100
AcDbEntity
  8
EDGE_BANDING
100
AcDbLine
 10
1286.01
 20
50.0
 30
0.0
 11
1900.01
 21
50.0
 31
0.0
  0
LINE
  5
F0
330
17
100
AcDbEntity
  8
GRAIN_DIRECTION
100
AcDbLine
 10
1470.21
 20
25.0
 30
0.0
 11
1715.81
 21
25.0
 31
0.0
  0
LINE
  5
F1
330
17
100
AcDbEntity
  8
GRAIN_DIRECTION
100
AcDbLine
 10
1708.31
 20
21.25
 30
0.0
 11
1715.81
 21
25.0
 31
0.0
  0
LINE
  5
F2
330
17
100
AcDbEntity
  8
GRAIN_DIRECTION
100
AcDbLine
 10
1708.31
 20
28.75
 30
0.0
 11
1715.81
 21
25.0
 31
0.0
  0
LWPOLYLINE
  5
F9
330
17
100
AcDbEntity
  8
OUTSIDE_THROUGH
100
AcDbPolyline
 90
4
 70
1
 10
586.01
 20
0.0
 10
1200.01
 20
0.0
 10
1200.01
 20
50.0
 10
586.01
 20
50.0
  0
LWPOLYLINE
  5
FA
330
17
100
AcDbEntity
  8
A_SIDE_GROOVE_5.5
100
AcDbPolyline
 90
8
 70
1
 10
586.0
 20
21.5
 10
1200.02
 20
21.5
 42
0.4142135623730951
 10
1202.02
 20
23.5
 10
1202.02
 20
27.0
 42
0.4142135623730951
 10
1200.02
 20
29.0
 10
586.0
 20
29.0
 42
0.4142135623730951
 10
584.0
 20
27.0
 10
584.0
 20
23.5
 42
0.4142135623730951
  0
LWPOLYLINE
  5
FB
330
17
100
AcDbEntity
  8
B_SIDE_GROOVE_5.5
100
AcDbPolyline
 90
8
 70
1
 10
586.0
 20
6.0
 10
1200.02
 20
6.0
 42
0.4142135623730951
 10
1202.02
 20
8.0
 10
1202.02
 20
11.5
 42
0.4142135623730951
 10
1200.02
 20
13.5
 10
586.0
 20
13.5
 42
0.4142135623730951
 10
584.0
 20
11.5
 10
584.0
 20
8.0
 42
0.4142135623730951
  0
LINE
  5
FC
330
17
100
AcDbEntity
  8
EDGE_BANDING
100
AcDbLine
 10
586.01
 20
0.0
 30
0.0
 11
1200.01
 21
0.0
 31
0.0
  0
LINE
  5
FD
330
17
100
AcDbEntity
  8
EDGE_BANDING
100
AcDbLine
 10
586.01
 20
50.0
 30
0.0
 11
1200.01
 21
50.0
 31
0.0
  0
LINE
  5
FE
330
17
100
AcDbEntity
  8
GRAIN_DIRECTION
100
AcDbLine
 10
770.21
 20
25.0
 30
0.0
 11
1015.81
 21
25.0
 31
0.0
  0
LINE
  5
FF
330
17
100
AcDbEntity
  8
GRAIN_DIRECTION
100
AcDbLine
 10
1008.31
 20
21.25
 30
0.0
 11
1015.81
 21
25.0
 31
0.0
  0
LINE
  5
100
330
17
100
AcDbEntity
  8
GRAIN_DIRECTION
100
AcDbLine
 10
1008.31
 20
28.75
 30
0.0
 11
1015.81
 21
25.0
 31
0.0
  0
LWPOLYLINE
  5
105
330
17
100
AcDbEntity
  8
OUTSIDE_THROUGH
100
AcDbPolyline
 90
4
 70
1
 10
1284.0
 20
52.0
 10
1896.0
 20
52.0
 10
1896.0
 20
102.0
 10
1284.0
 20
102.0
  0
LINE
  5
106
330
17
100
AcDbEntity
  8
EDGE_BANDING
100
AcDbLine
 10
1284.0
 20
52.0
 30
0.0
 11
1896.0
 21
52.0
 31
0.0
  0
LINE
  5
107
330
17
100
AcDbEntity
  8
EDGE_BANDING
100
AcDbLine
 10
1284.0
 20
52.0
 30
0.0
 11
1284.0
 21
102.0
 31
0.0
  0
LINE
  5
108
330
17
100
AcDbEntity
  8
GRAIN_DIRECTION
100
AcDbLine
 10
1467.6
 20
77.0
 30
0.0
 11
1712.4
 21
77.0
 31
0.0
  0
LINE
  5
109
330
17
100
AcDbEntity
  8
GRAIN_DIRECTION
100
AcDbLine
 10
1704.9
 20
73.25
 30
0.0
 11
1712.4
 21
77.0
 31
0.0
  0
LINE
  5
10A
330
17
100
AcDbEntity
  8
GRAIN_DIRECTION
100
AcDbLine
 10
1704.9
 20
80.75
 30
0.0
 11
1712.4
 21
77.0
 31
0.0
  0
LWPOLYLINE
  5
10F
330
17
100
AcDbEntity
  8
OUTSIDE_THROUGH
100
AcDbPolyline
 90
4
 70
1
 10
584.0
 20
52.0
 10
1196.0
 20
52.0
 10
1196.0
 20
102.0
 10
584.0
 20
102.0
  0
LINE
  5
110
330
17
100
AcDbEntity
  8
EDGE_BANDING
100
AcDbLine
 10
584.0
 20
52.0
 30
0.0
 11
1196.0
 21
52.0
 31
0.0
  0
LINE
  5
111
330
17
100
AcDbEntity
  8
EDGE_BANDING
100
AcDbLine
 10
584.0
 20
52.0
 30
0.0
 11
584.0
 21
102.0
 31
0.0
  0
LINE
  5
112
330
17
100
AcDbEntity
  8
GRAIN_DIRECTION
100
AcDbLine
 10
767.6
 20
77.0
 30
0.0
 11
1012.4
 21
77.0
 31
0.0
  0
LINE
  5
113
330
17
100
AcDbEntity
  8
GRAIN_DIRECTION
100
AcDbLine
 10
1004.9
 20
73.25
 30
0.0
 11
1012.4
 21
77.0
 31
0.0
  0
LINE
  5
114
330
17
100
AcDbEntity
  8
GRAIN_DIRECTION
100
AcDbLine
 10
1004.9
 20
80.75
 30
0.0
 11
1012.4
 21
77.0
 31
0.0
  0
LWPOLYLINE
  5
119
330
17
100
AcDbEntity
  8
OUTSIDE_THROUGH
100
AcDbPolyline
 90
4
 70
1
 10
1284.0
 20
104.0
 10
1896.0
 20
104.0
 10
1896.0
 20
154.0
 10
1284.0
 20
154.0
  0
LINE
  5
11A
330
17
100
AcDbEntity
  8
EDGE_BANDING
100
AcDbLine
 10
1284.0
 20
104.0
 30
0.0
 11
1896.0
 21
104.0
 31
0.0
  0
LINE
  5
11B
330
17
100
AcDbEntity
  8
EDGE_BANDING
100
AcDbLine
 10
1284.0
 20
104.0
 30
0.0
 11
1284.0
 21
154.0
 31
0.0
  0
LINE
  5
11C
330
17
100
AcDbEntity
  8
GRAIN_DIRECTION
100
AcDbLine
 10
1467.6
 20
129.0
 30
0.0
 11
1712.4
 21
129.0
 31
0.0
  0
LINE
  5
11D
330
17
100
AcDbEntity
  8
GRAIN_DIRECTION
100
AcDbLine
 10
1704.9
 20
125.25
 30
0.0
 11
1712.4
 21
129.0
 31
0.0
  0
LINE
  5
11E
330
17
100
AcDbEntity
  8
GRAIN_DIRECTION
100
AcDbLine
 10
1704.9
 20
132.75
 30
0.0
 11
1712.4
 21
129.0
 31
0.0
  0
LWPOLYLINE
  5
123
330
17
100
AcDbEntity
  8
OUTSIDE_THROUGH
100
AcDbPolyline
 90
4
 70
1
 10
584.0
 20
104.0
 10
1196.0
 20
104.0
 10
1196.0
 20
154.0
 10
584.0
 20
154.0
  0
LINE
  5
124
330
17
100
AcDbEntity
  8
EDGE_BANDING
100
AcDbLine
 10
584.0
 20
104.0
 30
0.0
 11
1196.0
 21
104.0
 31
0.0
  0
LINE
  5
125
330
17
100
AcDbEntity
  8
EDGE_BANDING
100
AcDbLine
 10
584.0
 20
104.0
 30
0.0
 11
584.0
 21
154.0
 31
0.0
  0
LINE
  5
126
330
17
100
AcDbEntity
  8
GRAIN_DIRECTION
100
AcDbLine
 10
767.6
 20
129.0
 30
0.0
 11
1012.4
 21
129.0
 31
0.0
  0
LINE
  5
127
330
17
100
AcDbEntity
  8
GRAIN_DIRECTION
100
AcDbLine
 10
1004.9
 20
125.25
 30
0.0
 11
1012.4
 21
129.0
 31
0.0
  0
LINE
  5
128
330
17
100
AcDbEntity
  8
GRAIN_DIRECTION
100
AcDbLine
 10
1004.9
 20
132.75
 30
0.0
 11
1012.4
 21
129.0
 31
0.0
  0
LWPOLYLINE
  5
12F
330
17
100
AcDbEntity
  8
OUTSIDE_THROUGH
100
AcDbPolyline
 90
4
 70
1
 10
1906.03
 20
0.0
 10
2120.0299999999997
 20
0.0
 10
2120.0299999999997
 20
57.0
 10
1906.03
 20
57.0
  0
LWPOLYLINE
  5
130
330
17
100
AcDbEntity
  8
A_SIDE_GROOVE_5.5
100
AcDbPolyline
 90
8
 70
1
 10
1906.02
 20
21.5
 10
2120.04
 20
21.5
 42
0.4142135623730951
 10
2122.04
 20
23.5
 10
2122.04
 20
27.0
 42
0.4142135623730951
 10
2120.04
 20
29.0
 10
1906.02
 20
29.0
 42
0.4142135623730951
 10
1904.02
 20
27.0
 10
1904.02
 20
23.5
 42
0.4142135623730951
  0
LWPOLYLINE
  5
131
330
17
100
AcDbEntity
  8
B_SIDE_GROOVE_5.5
100
AcDbPolyline
 90
8
 70
1
 10
1906.02
 20
6.0
 10
2120.04
 20
6.0
 42
0.4142135623730951
 10
2122.04
 20
8.0
 10
2122.04
 20
11.5
 42
0.4142135623730951
 10
2120.04
 20
13.5
 10
1906.02
 20
13.5
 42
0.4142135623730951
 10
1904.02
 20
11.5
 10
1904.02
 20
8.0
 42
0.4142135623730951
  0
LINE
  5
132
330
17
100
AcDbEntity
  8
EDGE_BANDING
100
AcDbLine
 10
1906.03
 20
0.0
 30
0.0
 11
2120.0299999999997
 21
0.0
 31
0.0
  0
LINE
  5
133
330
17
100
AcDbEntity
  8
EDGE_BANDING
100
AcDbLine
 10
1906.03
 20
57.0
 30
0.0
 11
2120.0299999999997
 21
57.0
 31
0.0
  0
LINE
  5
134
330
17
100
AcDbEntity
  8
GRAIN_DIRECTION
100
AcDbLine
 10
1970.23
 20
28.5
 30
0.0
 11
2055.83
 21
28.5
 31
0.0
  0
LINE
  5
135
330
17
100
AcDbEntity
  8
GRAIN_DIRECTION
100
AcDbLine
 10
2047.28
 20
24.225
 30
0.0
 11
2055.83
 21
28.5
 31
0.0
  0
LINE
  5
136
330
17
100
AcDbEntity
  8
GRAIN_DIRECTION
100
AcDbLine
 10
2047.28
 20
32.775
 30
0.0
 11
2055.83
 21
28.5
 31
0.0
  0
LWPOLYLINE
  5
13D
330
17
100
AcDbEntity
  8
OUTSIDE_THROUGH
100
AcDbPolyline
 90
4
 70
1
 10
2126.05
 20
0.0
 10
2340.05
 20
0.0
 10
2340.05
 20
57.0
 10
2126.05
 20
57.0
  0
LWPOLYLINE
  5
13E
330
17
100
AcDbEntity
  8
A_SIDE_GROOVE_5.5
100
AcDbPolyline
 90
8
 70
1
 10
2126.04
 20
21.5
 10
2340.0600000000004
 20
21.5
 42
0.4142135623730951
 10
2342.0600000000004
 20
23.5
 10
2342.0600000000004
 20
27.0
 42
0.4142135623730951
 10
2340.0600000000004
 20
29.0
 10
2126.04
 20
29.0
 42
0.4142135623730951
 10
2124.04
 20
27.0
 10
2124.04
 20
23.5
 42
0.4142135623730951
  0
LWPOLYLINE
  5
13F
330
17
100
AcDbEntity
  8
B_SIDE_GROOVE_5.5
100
AcDbPolyline
 90
8
 70
1
 10
2126.04
 20
6.0
 10
2340.0600000000004
 20
6.0
 42
0.4142135623730951
 10
2342.0600000000004
 20
8.0
 10
2342.0600000000004
 20
11.5
 42
0.4142135623730951
 10
2340.0600000000004
 20
13.5
 10
2126.04
 20
13.5
 42
0.4142135623730951
 10
2124.04
 20
11.5
 10
2124.04
 20
8.0
 42
0.4142135623730951
  0
LINE
  5
140
330
17
100
AcDbEntity
  8
EDGE_BANDING
100
AcDbLine
 10
2126.05
 20
0.0
 30
0.0
 11
2340.05
 21
0.0
 31
0.0
  0
LINE
  5
141
330
17
100
AcDbEntity
  8
EDGE_BANDING
100
AcDbLine
 10
2126.05
 20
57.0
 30
0.0
 11
2340.05
 21
57.0
 31
0.0
  0
LINE
  5
142
330
17
100
AcDbEntity
  8
GRAIN_DIRECTION
100
AcDbLine
 10
2190.25
 20
28.5
 30
0.0
 11
2275.8500000000004
 21
28.5
 31
0.0
  0
LINE
  5
143
330
17
100
AcDbEntity
  8
GRAIN_DIRECTION
100
AcDbLine
 10
2267.3
 20
24.225
 30
0.0
 11
2275.8500000000004
 21
28.5
 31
0.0
  0
LINE
  5
144
330
17
100
AcDbEntity
  8
GRAIN_DIRECTION
100
AcDbLine
 10
2267.3
 20
32.775
 30
0.0
 11
2275.8500000000004
 21
28.5
 31
0.0
  0
LWPOLYLINE
  5
14A
330
17
100
AcDbEntity
  8
OUTSIDE_THROUGH
100
AcDbPolyline
 90
4
 70
1
 10
1898.0
 20
59.0
 10
2138.0
 20
59.0
 10
2138.0
 20
109.0
 10
1898.0
 20
109.0
  0
LWPOLYLINE
  5
14B
330
17
100
AcDbEntity
  8
A_SIDE_GROOVE_5.5
100
AcDbPolyline
 90
8
 70
1
 10
1905.5
 20
73.5
 10
2130.5
 20
73.5
 42
0.4142135623730951
 10
2132.5
 20
75.5
 10
2132.5
 20
79.0
 42
0.4142135623730951
 10
2130.5
 20
81.0
 10
1905.5
 20
81.0
 42
0.4142135623730951
 10
1903.5
 20
79.0
 10
1903.5
 20
75.5
 42
0.4142135623730951
  0
LINE
  5
14C
330
17
100
AcDbEntity
  8
EDGE_BANDING
100
AcDbLine
 10
1898.0
 20
59.0
 30
0.0
 11
2138.0
 21
59.0
 31
0.0
  0
LINE
  5
14D
330
17
100
AcDbEntity
  8
EDGE_BANDING
100
AcDbLine
 10
1898.0
 20
109.0
 30
0.0
 11
2138.0
 21
109.0
 31
0.0
  0
LINE
  5
14E
330
17
100
AcDbEntity
  8
EDGE_BANDING
100
AcDbLine
 10
1898.0
 20
59.0
 30
0.0
 11
1898.0
 21
109.0
 31
0.0
  0
LINE
  5
14F
330
17
100
AcDbEntity
  8
GRAIN_DIRECTION
100
AcDbLine
 10
1970.0
 20
84.0
 30
0.0
 11
2066.0
 21
84.0
 31
0.0
  0
LINE
  5
150
330
17
100
AcDbEntity
  8
GRAIN_DIRECTION
100
AcDbLine
 10
2058.5
 20
80.25
 30
0.0
 11
2066.0
 21
84.0
 31
0.0
  0
LINE
  5
151
330
17
100
AcDbEntity
  8
GRAIN_DIRECTION
100
AcDbLine
 10
2058.5
 20
87.75
 30
0.0
 11
2066.0
 21
84.0
 31
0.0
  0
LWPOLYLINE
  5
157
330
17
100
AcDbEntity
  8
OUTSIDE_THROUGH
100
AcDbPolyline
 90
4
 70
1
 10
2140.0
 20
59.0
 10
2380.0
 20
59.0
 10
2380.0
 20
109.0
 10
2140.0
 20
109.0
  0
LWPOLYLINE
  5
158
330
17
100
AcDbEntity
  8
A_SIDE_GROOVE_5.5
100
AcDbPolyline
 90
8
 70
1
 10
2147.5
 20
73.5
 10
2372.5
 20
73.5
 42
0.4142135623730951
 10
2374.5
 20
75.5
 10
2374.5
 20
79.0
 42
0.4142135623730951
 10
2372.5
 20
81.0
 10
2147.5
 20
81.0
 42
0.4142135623730951
 10
2145.5
 20
79.0
 10
2145.5
 20
75.5
 42
0.4142135623730951
  0
LINE
  5
159
330
17
100
AcDbEntity
  8
EDGE_BANDING
100
AcDbLine
 10
2140.0
 20
59.0
 30
0.0
 11
2380.0
 21
59.0
 31
0.0
  0
LINE
  5
15A
330
17
100
AcDbEntity
  8
EDGE_BANDING
100
AcDbLine
 10
2140.0
 20
109.0
 30
0.0
 11
2380.0
 21
109.0
 31
0.0
  0
LINE
  5
15B
330
17
100
AcDbEntity
  8
EDGE_BANDING
100
AcDbLine
 10
2380.0
 20
59.0
 30
0.0
 11
2380.0
 21
109.0
 31
0.0
  0
LINE
  5
15C
330
17
100
AcDbEntity
  8
GRAIN_DIRECTION
100
AcDbLine
 10
2212.0
 20
84.0
 30
0.0
 11
2308.0
 21
84.0
 31
0.0
  0
LINE
  5
15D
330
17
100
AcDbEntity
  8
GRAIN_DIRECTION
100
AcDbLine
 10
2300.5
 20
80.25
 30
0.0
 11
2308.0
 21
84.0
 31
0.0
  0
LINE
  5
15E
330
17
100
AcDbEntity
  8
GRAIN_DIRECTION
100
AcDbLine
 10
2300.5
 20
87.75
 30
0.0
 11
2308.0
 21
84.0
 31
0.0
  0
LWPOLYLINE
  5
164
330
17
100
AcDbEntity
  8
OUTSIDE_THROUGH
100
AcDbPolyline
 90
4
 70
1
 10
1898.0
 20
111.0
 10
2138.0
 20
111.0
 10
2138.0
 20
161.0
 10
1898.0
 20
161.0
  0
LWPOLYLINE
  5
165
330
17
100
AcDbEntity
  8
A_SIDE_GROOVE_5.5
100
AcDbPolyline
 90
8
 70
1
 10
1905.5
 20
125.5
 10
2130.5
 20
125.5
 42
0.4142135623730951
 10
2132.5
 20
127.5
 10
2132.5
 20
131.0
 42
0.4142135623730951
 10
2130.5
 20
133.0
 10
1905.5
 20
133.0
 42
0.4142135623730951
 10
1903.5
 20
131.0
 10
1903.5
 20
127.5
 42
0.4142135623730951
  0
LINE
  5
166
330
17
100
AcDbEntity
  8
EDGE_BANDING
100
AcDbLine
 10
1898.0
 20
111.0
 30
0.0
 11
2138.0
 21
111.0
 31
0.0
  0
LINE
  5
167
330
17
100
AcDbEntity
  8
EDGE_BANDING
100
AcDbLine
 10
1898.0
 20
161.0
 30
0.0
 11
2138.0
 21
161.0
 31
0.0
  0
LINE
  5
168
330
17
100
AcDbEntity
  8
EDGE_BANDING
100
AcDbLine
 10
1898.0
 20
111.0
 30
0.0
 11
1898.0
 21
161.0
 31
0.0
  0
LINE
  5
169
330
17
100
AcDbEntity
  8
GRAIN_DIRECTION
100
AcDbLine
 10
1970.0
 20
136.0
 30
0.0
 11
2066.0
 21
136.0
 31
0.0
  0
LINE
  5
16A
330
17
100
AcDbEntity
  8
GRAIN_DIRECTION
100
AcDbLine
 10
2058.5
 20
132.25
 30
0.0
 11
2066.0
 21
136.0
 31
0.0
  0
LINE
  5
16B
330
17
100
AcDbEntity
  8
GRAIN_DIRECTION
100
AcDbLine
 10
2058.5
 20
139.75
 30
0.0
 11
2066.0
 21
136.0
 31
0.0
  0
LWPOLYLINE
  5
171
330
17
100
AcDbEntity
  8
OUTSIDE_THROUGH
100
AcDbPolyline
 90
4
 70
1
 10
2140.0
 20
111.0
 10
2380.0
 20
111.0
 10
2380.0
 20
161.0
 10
2140.0
 20
161.0
  0
LWPOLYLINE
  5
172
330
17
100
AcDbEntity
  8
A_SIDE_GROOVE_5.5
100
AcDbPolyline
 90
8
 70
1
 10
2147.5
 20
125.5
 10
2372.5
 20
125.5
 42
0.4142135623730951
 10
2374.5
 20
127.5
 10
2374.5
 20
131.0
 42
0.4142135623730951
 10
2372.5
 20
133.0
 10
2147.5
 20
133.0
 42
0.4142135623730951
 10
2145.5
 20
131.0
 10
2145.5
 20
127.5
 42
0.4142135623730951
  0
LINE
  5
173
330
17
100
AcDbEntity
  8
EDGE_BANDING
100
AcDbLine
 10
2140.0
 20
111.0
 30
0.0
 11
2380.0
 21
111.0
 31
0.0
  0
LINE
  5
174
330
17
100
AcDbEntity
  8
EDGE_BANDING
100
AcDbLine
 10
2140.0
 20
161.0
 30
0.0
 11
2380.0
 21
161.0
 31
0.0
  0
LINE
  5
175
330
17
100
AcDbEntity
  8
EDGE_BANDING
100
AcDbLine
 10
2380.0
 20
111.0
 30
0.0
 11
2380.0
 21
161.0
 31
0.0
  0
LINE
  5
176
330
17
100
AcDbEntity
  8
GRAIN_DIRECTION
100
AcDbLine
 10
2212.0
 20
136.0
 30
0.0
 11
2308.0
 21
136.0
 31
0.0
  0
LINE
  5
177
330
17
100
AcDbEntity
  8
GRAIN_DIRECTION
100
AcDbLine
 10
2300.5
 20
132.25
 30
0.0
 11
2308.0
 21
136.0
 31
0.0
  0
LINE
  5
178
330
17
100
AcDbEntity
  8
GRAIN_DIRECTION
100
AcDbLine
 10
2300.5
 20
139.75
 30
0.0
 11
2308.0
 21
136.0
 31
0.0
  0
LWPOLYLINE
  5
17B
330
17
100
AcDbEntity
  8
SHEET_BOUNDARY
100
AcDbPolyline
 90
4
 70
1
 10
0.0
 20
0.0
 10
2440.0
 20
0.0
 10
2440.0
 20
1220.0
 10
0.0
 20
1220.0
  0
TEXT
  5
17C
330
17
100
AcDbEntity
  8
PART_LABELS
100
AcDbText
 10
4.0
 20
6.0
 30
0.0
 40
24.0
  1
1
100
AcDbText
  0
TEXT
  5
17D
330
17
100
AcDbEntity
  8
PART_LABELS
100
AcDbText
 10
4.0
 20
181.0
 30
0.0
 40
24.0
  1
2
100
AcDbText
  0
TEXT
  5
17E
330
17
100
AcDbEntity
  8
PART_LABELS
100
AcDbText
 10
4.0
 20
356.0
 30
0.0
 40
24.0
  1
3
100
AcDbText
  0
TEXT
  5
17F
330
17
100
AcDbEntity
  8
PART_LABELS
100
AcDbText
 10
4.0
 20
531.0
 30
0.0
 40
24.0
  1
4
100
AcDbText
  0
TEXT
  5
180
330
17
100
AcDbEntity
  8
PART_LABELS
100
AcDbText
 10
4.0
 20
706.0
 30
0.0
 40
24.0
  1
5
100
AcDbText
  0
TEXT
  5
181
330
17
100
AcDbEntity
  8
PART_LABELS
100
AcDbText
 10
4.0
 20
881.0
 30
0.0
 40
24.0
  1
6
100
AcDbText
  0
TEXT
  5
182
330
17
100
AcDbEntity
  8
PART_LABELS
100
AcDbText
 10
296.0
 20
706.0
 30
0.0
 40
24.0
  1
7
100
AcDbText
  0
TEXT
  5
183
330
17
100
AcDbEntity
  8
PART_LABELS
100
AcDbText
 10
296.0
 20
881.0
 30
0.0
 40
24.0
  1
8
100
AcDbText
  0
TEXT
  5
184
330
17
100
AcDbEntity
  8
PART_LABELS
100
AcDbText
 10
4.0
 20
1056.0
 30
0.0
 40
24.0
  1
9
100
AcDbText
  0
TEXT
  5
185
330
17
100
AcDbEntity
  8
PART_LABELS
100
AcDbText
 10
4.0
 20
1115.0
 30
0.0
 40
24.0
  1
10
100
AcDbText
  0
TEXT
  5
186
330
17
100
AcDbEntity
  8
PART_LABELS
100
AcDbText
 10
580.02
 20
1056.0
 30
0.0
 40
24.0
  1
11
100
AcDbText
  0
TEXT
  5
187
330
17
100
AcDbEntity
  8
PART_LABELS
100
AcDbText
 10
580.02
 20
1115.0
 30
0.0
 40
24.0
  1
12
100
AcDbText
  0
TEXT
  5
188
330
17
100
AcDbEntity
  8
PART_LABELS
100
AcDbText
 10
4.0
 20
1174.0
 30
0.0
 40
24.0
  1
13
100
AcDbText
  0
TEXT
  5
189
330
17
100
AcDbEntity
  8
PART_LABELS
100
AcDbText
 10
646.0
 20
1174.0
 30
0.0
 40
24.0
  1
14
100
AcDbText
  0
TEXT
  5
18A
330
17
100
AcDbEntity
  8
PART_LABELS
100
AcDbText
 10
1288.0
 20
6.0
 30
0.0
 40
24.0
  1
15
100
AcDbText
  0
TEXT
  5
18B
330
17
100
AcDbEntity
  8
PART_LABELS
100
AcDbText
 10
588.0
 20
6.0
 30
0.0
 40
24.0
  1
16
100
AcDbText
  0
TEXT
  5
18C
330
17
100
AcDbEntity
  8
PART_LABELS
100
AcDbText
 10
1288.0
 20
58.0
 30
0.0
 40
24.0
  1
17
100
AcDbText
  0
TEXT
  5
18D
330
17
100
AcDbEntity
  8
PART_LABELS
100
AcDbText
 10
588.0
 20
58.0
 30
0.0
 40
24.0
  1
18
100
AcDbText
  0
TEXT
  5
18E
330
17
100
AcDbEntity
  8
PART_LABELS
100
AcDbText
 10
1288.0
 20
110.0
 30
0.0
 40
24.0
  1
19
100
AcDbText
  0
TEXT
  5
18F
330
17
100
AcDbEntity
  8
PART_LABELS
100
AcDbText
 10
588.0
 20
110.0
 30
0.0
 40
24.0
  1
20
100
AcDbText
  0
TEXT
  5
190
330
17
100
AcDbEntity
  8
PART_LABELS
100
AcDbText
 10
1908.02
 20
6.0
 30
0.0
 40
24.0
  1
21
100
AcDbText
  0
TEXT
  5
191
330
17
100
AcDbEntity
  8
PART_LABELS
100
AcDbText
 10
2128.04
 20
6.0
 30
0.0
 40
24.0
  1
22
100
AcDbText
  0
TEXT
  5
192
330
17
100
AcDbEntity
  8
PART_LABELS
100
AcDbText
 10
1902.0
 20
65.0
 30
0.0
 40
24.0
  1
23
100
AcDbText
  0
TEXT
  5
193
330
17
100
AcDbEntity
  8
PART_LABELS
100
AcDbText
 10
2144.0
 20
65.0
 30
0.0
 40
24.0
  1
24
100
AcDbText
  0
TEXT
  5
194
330
17
100
AcDbEntity
  8
PART_LABELS
100
AcDbText
 10
1902.0
 20
117.0
 30
0.0
 40
24.0
  1
25
100
AcDbText
  0
TEXT
  5
195
330
17
100
AcDbEntity
  8
PART_LABELS
100
AcDbText
 10
2144.0
 20
117.0
 30
0.0
 40
24.0
  1
26
100
AcDbText
  0
ENDSEC
  0
SECTION
  2
OBJECTS
  0
DICTIONARY
  5
A
330
0
100
AcDbDictionary
281
1
  3
ACAD_COLOR
350
B
  3
ACAD_GROUP
350
C
  3
ACAD_LAYOUT
350
D
  3
ACAD_MATERIAL
350
E
  3
ACAD_MLEADERSTYLE
350
F
  3
ACAD_MLINESTYLE
350
10
  3
ACAD_PLOTSETTINGS
350
11
  3
ACAD_PLOTSTYLENAME
350
12
  3
ACAD_SCALELIST
350
14
  3
ACAD_TABLESTYLE
350
15
  3
ACAD_VISUALSTYLE
350
16
  3
EZDXF_META
350
2D
  0
DICTIONARY
  5
B
330
A
100
AcDbDictionary
281
1
  0
DICTIONARY
  5
C
330
A
100
AcDbDictionary
281
1
  0
DICTIONARY
  5
D
330
A
100
AcDbDictionary
281
1
  3
Model
350
1A
  3
Layout1
350
1E
  0
DICTIONARY
  5
E
330
A
100
AcDbDictionary
281
1
  3
ByBlock
350
1F
  3
ByLayer
350
20
  3
Global
350
21
  0
DICTIONARY
  5
F
330
A
100
AcDbDictionary
281
1
  3
Standard
350
2C
  0
DICTIONARY
  5
10
330
A
100
AcDbDictionary
281
1
  3
Standard
350
22
  0
DICTIONARY
  5
11
330
A
100
AcDbDictionary
281
1
  0
ACDBDICTIONARYWDFLT
  5
12
330
A
100
AcDbDictionary
281
1
  3
Normal
350
13
100
AcDbDictionaryWithDefault
340
13
  0
ACDBPLACEHOLDER
  5
13
330
12
  0
DICTIONARY
  5
14
330
A
100
AcDbDictionary
281
1
  0
DICTIONARY
  5
15
330
A
100
AcDbDictionary
281
1
  0
DICTIONARY
  5
16
330
A
100
AcDbDictionary
281
1
  0
LAYOUT
  5
1A
330
D
100
AcDbPlotSettings
  1

  4
A3
  6

 40
7.5
 41
20.0
 42
7.5
 43
20.0
 44
420.0
 45
297.0
 46
0.0
 47
0.0
 48
0.0
 49
0.0
140
0.0
141
0.0
142
1.0
143
1.0
 70
1024
 72
1
 73
0
 74
5
  7

 75
16
 76
0
 77
2
 78
300
147
1.0
148
0.0
149
0.0
100
AcDbLayout
  1
Model
 70
1
 71
0
 10
0.0
 20
0.0
 11
420.0
 21
297.0
 12
0.0
 22
0.0
 32
0.0
 14
1e+20
 24
1e+20
 34
1e+20
 15
-1e+20
 25
-1e+20
 35
-1e+20
146
0.0
 13
0.0
 23
0.0
 33
0.0
 16
1.0
 26
0.0
 36
0.0
 17
0.0
 27
1.0
 37
0.0
 76
1
330
17
  0
LAYOUT
  5
1E
330
D
100
AcDbPlotSettings
  1

  4
A3
  6

 40
7.5
 41
20.0
 42
7.5
 43
20.0
 44
420.0
 45
297.0
 46
0.0
 47
0.0
 48
0.0
 49
0.0
140
0.0
141
0.0
142
1.0
143
1.0
 70
0
 72
1
 73
0
 74
5
  7

 75
16
 76
0
 77
2
 78
300
147
1.0
148
0.0
149
0.0
100
AcDbLayout
  1
Layout1
 70
1
 71
1
 10
0.0
 20
0.0
 11
420.0
 21
297.0
 12
0.0
 22
0.0
 32
0.0
 14
1e+20
 24
1e+20
 34
1e+20
 15
-1e+20
 25
-1e+20
 35
-1e+20
146
0.0
 13
0.0
 23
0.0
 33
0.0
 16
1.0
 26
0.0
 36
0.0
 17
0.0
 27
1.0
 37
0.0
 76
1
330
1B
  0
MATERIAL
  5
1F
102
{ACAD_REACTORS
330
E
102
}
330
E
100
AcDbMaterial
  1
ByBlock
  2

 70
0
 40
1.0
 71
1
 41
1.0
 91
-1023410177
 42
1.0
 72
1
  3

 73
1
 74
1
 75
1
 44
0.5
 73
0
 45
1.0
 46
1.0
 77
1
  4

 78
1
 79
1
170
1
 48
1.0
171
1
  6

172
1
173
1
174
1
140
1.0
141
1.0
175
1
  7

176
1
177
1
178
1
143
1.0
179
1
  8

270
1
271
1
272
1
145
1.0
146
1.0
273
1
  9

274
1
275
1
276
1
 42
1.0
 72
1
  3

 73
1
 74
1
 75
1
 94
63
  0
MATERIAL
  5
20
102
{ACAD_REACTORS
330
E
102
}
330
E
100
AcDbMaterial
  1
ByLayer
  2

 70
0
 40
1.0
 71
1
 41
1.0
 91
-1023410177
 42
1.0
 72
1
  3

 73
1
 74
1
 75
1
 44
0.5
 73
0
 45
1.0
 46
1.0
 77
1
  4

 78
1
 79
1
170
1
 48
1.0
171
1
  6

172
1
173
1
174
1
140
1.0
141
1.0
175
1
  7

176
1
177
1
178
1
143
1.0
179
1
  8

270
1
271
1
272
1
145
1.0
146
1.0
273
1
  9

274
1
275
1
276
1
 42
1.0
 72
1
  3

 73
1
 74
1
 75
1
 94
63
  0
MATERIAL
  5
21
102
{ACAD_REACTORS
330
E
102
}
330
E
100
AcDbMaterial
  1
Global
  2

 70
0
 40
1.0
 71
1
 41
1.0
 91
-1023410177
 42
1.0
 72
1
  3

 73
1
 74
1
 75
1
 44
0.5
 73
0
 45
1.0
 46
1.0
 77
1
  4

 78
1
 79
1
170
1
 48
1.0
171
1
  6

172
1
173
1
174
1
140
1.0
141
1.0
175
1
  7

176
1
177
1
178
1
143
1.0
179
1
  8

270
1
271
1
272
1
145
1.0
146
1.0
273
1
  9

274
1
275
1
276
1
 42
1.0
 72
1
  3

 73
1
 74
1
 75
1
 94
63
  0
MLINESTYLE
  5
22
102
{ACAD_REACTORS
330
10
102
}
330
10
100
AcDbMlineStyle
  2
Standard
 70
0
  3

 62
256
 51
90.0
 52
90.0
 71
2
 49
0.5
 62
256
  6
BYLAYER
 49
-0.5
 62
256
  6
BYLAYER
  0
MLEADERSTYLE
  5
2C
102
{ACAD_REACTORS
330
F
102
}
330
F
100
AcDbMLeaderStyle
179
2
170
2
171
1
172
0
 90
2
 40
0.0
 41
0.0
173
1
 91
-1056964608
 92
-2
290
1
 42
2.0
291
1
 43
8.0
  3
Standard
 44
4.0
300

342
29
174
1
175
1
176
0
178
1
 93
-1056964608
 45
4.0
292
0
297
0
 46
4.0
 94
-1056964608
 47
1.0
 49
1.0
140
1.0
294
1
141
0.0
177
0
142
1.0
295
0
296
0
143
3.75
271
0
272
9
273
9
  0
DICTIONARY
  5
2D
330
A
100
AcDbDictionary
280
1
281
1
  3
CREATED_BY_EZDXF
350
2E
  3
WRITTEN_BY_EZDXF
350
198
  0
DICTIONARYVAR
  5
2E
330
2D
100
DictionaryVariables
280
0
  1
1.4.4 @ 2026-10-10T00:05:12.206910+00:00
  0
DICTIONARYVAR
  5
198
330
2D
100
DictionaryVariables
280
0
  1
1.4.4 @ 2026-10-10T00:05:12.225623+00:00
  0
ENDSEC
  0
EOF
